<svg id="Layer_1" data-name="Layer 1" xmlns="http://www.w3.org/2000/svg" viewBox="0 0 864 864"><defs><style>.cls-1{fill:#371a45;}.cls-2{fill:#fff;}.cls-3{fill:#0096fc;}.cls-4{fill:#ff0019;}.cls-5{fill:#ff5917;}.cls-6{fill:#ffe600;}.cls-7{fill:#220f2d;}.cls-8{fill:#8c789b;}</style></defs><title>Artboard 3</title><path class="cls-1" d="M832.53,542.81c-44.67-1.52-71.73-19.45-95.61-35.28-19.32-12.8-37.56-24.89-61.57-25.71-22.21-.75-37.62,8.45-48.09,19.61-.86-5.34-1.92-10.65-3.24-15.92a35,35,0,0,0-4.77-10.8l111.9-3.1a.9.9,0,0,0,0-1.79l-118.6-3.29h-.24c-.18,0-.35.05-.53.07a34.92,34.92,0,0,0-13.06-6.45l-22-5.57c8.52-13.82,26.22-31,60.67-51l.59-.34a5.63,5.63,0,0,0-1.63-10.36c-31.07-6.8-54.79-6.74-72.79-3.42,6-17.47,6.51-35.36,1.51-51.55l93.7-2.59a.9.9,0,0,0,.87-.87.88.88,0,0,0-.87-.92l-96.28-2.67c-.13-.32-.25-.65-.39-1a91.79,91.79,0,0,0-12.82-21c3-14.52,5.31-34.34.74-49.48l41.3-1.15a.89.89,0,0,0,.87-.87.88.88,0,0,0-.87-.91l-42.77-1.19a32.81,32.81,0,0,0-4.25-7.48c-3.7-4.73-11.1-9.21-19.67-13.17-8-7.61-22.74-12.72-34.91-15.85a9.85,9.85,0,0,0-7.54,1.18l-1.86-.49c-25.19-6.56-58.12-12.17-75-8.26-12.19,2.82-21.5,14.32-28.36,28.13a137.67,137.67,0,0,0-91.26-61.54c-1.55-.3-3.15-.56-4.86-.8-4.3-.64-8.67-1.07-13-1.29a138.55,138.55,0,0,0-58.18,9.67c-2.94,1.17-5.85,2.45-8.63,3.79a137.5,137.5,0,0,0-61.85,59.23,138.26,138.26,0,0,0-13.69,38.17l0,.14c0,.21-.24,1.2-.5,2.8a135.41,135.41,0,0,0-2,18.81c-.58,10.7-.22,23.61,3.15,34.51l0,.07a139.43,139.43,0,0,0,8.19,25.48,138,138,0,0,0,9.09,17.33l.21.42.68,1a137.79,137.79,0,0,0,7.92,11.35l.37.54.24.2a136.94,136.94,0,0,0,12.93,14.1c-71.7,28.14-113,68.95-131.62,91.45a25.77,25.77,0,0,0-.84,31.89c18.32,24.65,60.55,70.79,137.6,103a.33.33,0,0,0,.1.06c40,16.74,84.61,27.54,132.46,32.09,18,1.72,35.12,2.48,51.3,2.48,65.77,0,116.11-12.57,149-24.47l1.3-.49a69.14,69.14,0,0,0,16.68,18.89c16.94,13.4,40,20.13,68.82,20.13A235.61,235.61,0,0,0,628.7,685a5.64,5.64,0,0,0,2.17-10.27l-2-1.35,84.25-2.34a.89.89,0,0,0,0-1.78l-93.87-2.6c-15.77-11.52-38.73-30.74-48.27-50.91l.28-.21,23.56-4.67a34.88,34.88,0,0,0,26.59-24c1.07-3.47,2-7,2.87-10.5,9.68,12.09,24.53,22.64,47.1,23.4.86,0,1.71.05,2.55.05,22.82,0,41.21-10.47,60.63-21.52,24.9-14.16,53.12-30.23,97.79-28.7a3.4,3.4,0,0,0,3.52-3.29v-.12A3.42,3.42,0,0,0,832.53,542.81Z"/><path class="cls-2" d="M482.51,500.5c.27-3,.71-6.07,1.28-9.09.39-2.06.88-4.13,1.4-6.15l1.23-.12c1.52-.17,3-.39,4.51-.65a67.45,67.45,0,0,0,8.84-2.17,51.9,51.9,0,0,0,8.43-3.66,34.35,34.35,0,0,0,7.36-5.69,2.09,2.09,0,0,0-2.8-3.09l-.09.07a29.76,29.76,0,0,1-6.79,4,45.27,45.27,0,0,1-7.71,2.28,61,61,0,0,1-8.09,1c-1.35.08-2.72.11-4.07.09-1.08,0-2.2-.06-3.21-.13-3.51-1.22-7-2.57-10.33-4.09a99.74,99.74,0,0,1-10.19-5.36,73.66,73.66,0,0,1-17.51-14.38,52.56,52.56,0,0,1-13.58-35.27c2-3.38,3.9-6.83,5.64-10.37a72.52,72.52,0,0,1,32.4-5.44c26.75,1.32,50.08,13.49,57.8,18-.13.57-.25,1.14-.35,1.72a18.77,18.77,0,0,0,.19,6.17,26.08,26.08,0,0,0,4.85,10.25,73.37,73.37,0,0,0,6.73,7.63c2.26,2.31,4.53,4.52,6.32,6.7a19.4,19.4,0,0,1,1.19,1.6,8.48,8.48,0,0,1,.89,1.6,23.49,23.49,0,0,1,1.42,3.77,33.79,33.79,0,0,1,1.12,8.45,50.22,50.22,0,0,1-.59,8.87,84.64,84.64,0,0,1-13.26,33.71,63.27,63.27,0,0,1-11.86,13.45c-1.1,1-2.32,1.79-3.49,2.67a38.73,38.73,0,0,1-3.7,2.2,28,28,0,0,1-7.87,2.86,12.77,12.77,0,0,1-2,.31,13.9,13.9,0,0,1-2.08.17l-2.15,0a20.81,20.81,0,0,1-2.11-.12,26.84,26.84,0,0,1-4.06-.63l-1.88-.59c-.63-.2-1.17-.53-1.77-.77a15.5,15.5,0,0,1-5.69-4.86,22.34,22.34,0,0,1-3.31-7.32A51.37,51.37,0,0,1,482.51,500.5ZM387,456.74l-.89.74-.37.9h0c-.58,1.32-1.34,2.84-2.09,4.24s-1.57,2.84-2.4,4.24a94.08,94.08,0,0,1-5.42,8.08,70.3,70.3,0,0,1-13.35,13.71c-1.23,1-2.55,1.82-3.85,2.7s-2.66,1.61-4.07,2.24-2.82,1.24-4.23,1.83a43.05,43.05,0,0,1-4.4,1.25,37.91,37.91,0,0,1-18.17-.44,16.8,16.8,0,0,1-2.24-.66l-2.22-.73c-1.47-.55-2.91-1.21-4.37-1.81a11.64,11.64,0,0,1-5.53-4.88,11.93,11.93,0,0,1-1.2-3.51,18.51,18.51,0,0,1-.19-4.11,33.82,33.82,0,0,1,1.86-8.85,85.47,85.47,0,0,1,8.5-17.35,151.53,151.53,0,0,1,11.54-16.06c2.08-2.47,4.33-5.26,6.5-7.92,1.12-1.32,2.1-2.77,3.15-4.14s2.09-2.77,3.07-4.21l.93-1.37a137.92,137.92,0,0,0,30.34-34.37,33.46,33.46,0,0,0,17.56-7.19,31.14,31.14,0,0,0,12.43-9.64,62.32,62.32,0,0,1,23,13.14c-.68,1.4-1.36,2.8-2,4.23a83.5,83.5,0,0,0-6.06,24.53c-.09,1-.15,1.93-.19,2.9q-4.12,6.84-8.9,13.28c-4,5.31-8.18,10.48-12.66,15.4-2.27,2.44-4.55,4.86-6.94,7.17S389.4,454.74,387,456.74Zm.09-84.26c-5.15.15-9.07-2.64-11.43-5-6.24-6.26-9.75-17.05-9.39-28.88.57-19,11.29-35.26,23.41-35.61h.39a15.78,15.78,0,0,1,11,5c6.24,6.26,9.76,17.05,9.4,28.87C409.94,355.83,399.22,372.14,387.11,372.48Zm4-77.8c-.55,0-1.1-.06-1.67,0-16.95.48-30.8,19.68-31.53,43.71-.42,14.08,4,27.17,11.84,35a27,27,0,0,0,6.08,4.62h-.06c-6.23.13-12.2-2.47-17.2-7.5-7.95-8-12.47-21.17-12.09-35.27,0-.73.05-1.44.09-2.17,1.43-23.33,15.44-41.86,31.9-42.19h.42A22.24,22.24,0,0,1,391.13,294.68Zm-171,141.81c-.49-.16-1-.31-1.47-.48a129.73,129.73,0,0,1-18.9-8.26c-2.25-1.22-4.21-2.34-6-3.44-1.13-.69-2.25-1.44-3.38-2.17a134.57,134.57,0,0,0,51.59,10.48,123.23,123.23,0,0,0,43.82-7.95c27.71-10.53,48.74-30.3,60.78-56.15a44.77,44.77,0,0,0,4.11,5.55,112,112,0,0,1-35,41.2C289.23,434.33,254.51,442,220.08,436.49Zm134.1-142.6a116.19,116.19,0,0,0-21.72-43.08c-21.56-27.2-54.15-45.08-87.16-47.83q-46.62-3.89-77.94,20.87A128.35,128.35,0,0,1,193,203.15c.27-.18.57-.33.86-.5,15.23-5.12,32.49-7,51.37-5.38,34.79,2.9,69.17,21.8,92,50.56a122.87,122.87,0,0,1,21.87,41.76A43.72,43.72,0,0,0,354.18,293.89Zm-34,127.64a119.66,119.66,0,0,0,36.27-41.84,31.57,31.57,0,0,0,12,5.83,129.77,129.77,0,0,1-94.93,56.89A129,129,0,0,0,320.16,421.53Zm136.39-154c1.3-1.25,4.25-3,9.62-.83,7.15,2.83,7,15.35,7,15.46v.37l.05.36c0,.25,3.15,25.28-15.9,55.76a19.72,19.72,0,0,1-8.89-.22,44.6,44.6,0,0,0-1-4.7c-.41-1.72-.82-3.43-1.33-5.12-.23-.7-.48-1.39-.72-2.09C450.46,313.1,459.63,285.55,456.55,267.57Zm-3.85,88.37c-1,.76-2,1.57-3,2.38v-3.47c0-1,0-2,0-3.05l5.35,2.47c-.65.45-1.29.89-1.92,1.36C453,355.73,452.84,355.83,452.7,355.94Zm11-6.88L459,346.87c1.19-.23,2-.45,2.08-.48l1.5-.44.84-1.31.09-.14,5.14,2.32Q466.12,347.83,463.7,349.06ZM569.87,460.49a215.4,215.4,0,0,1,10,46.65,79.2,79.2,0,0,0-15.62-2.06,73.56,73.56,0,0,0-16.65,1.53,90.44,90.44,0,0,0,9.43-28.43,60,60,0,0,0,.68-10.25,42.58,42.58,0,0,0-1.42-10.51,32.06,32.06,0,0,0-2-5.19,16.19,16.19,0,0,0-1.46-2.58,25.26,25.26,0,0,0-1.67-2.25c-.09-.11-.19-.21-.28-.33A184.29,184.29,0,0,1,569.87,460.49ZM557.45,341.54a4.17,4.17,0,0,0,.11,1.26v0a66.35,66.35,0,0,1,2.23,17.81A51.71,51.71,0,0,1,556.4,378a62.16,62.16,0,0,1-8.86,15.59,166.44,166.44,0,0,1-12.43,14c-1.11,1.19-2.24,2.42-3.36,3.75q-.53.63-1,1.32c-8.86-5.11-32.84-17.35-61.06-18.75a84,84,0,0,0-28.15,3.21c.1-.26.22-.51.31-.76.6-1.66,1.29-3.29,1.81-5l1.61-5.06c.89-3.42,1.87-6.83,2.47-10.33.26-1.33.51-2.66.71-4,.23-.26.45-.53.68-.8a24.78,24.78,0,0,1,1.91-2.06l1.95-2c1.42-1.23,2.78-2.53,4.24-3.71a71.15,71.15,0,0,1,9.33-6.38c1.67-.9,3.26-1.94,5-2.73s3.37-1.82,5.14-2.58l2.64-1.22c.87-.42,1.73-.89,2.65-1.23,1.79-.78,3.59-1.55,5.38-2.49l.14-.07a2.12,2.12,0,0,0-1.13-4c-2.07.14-4.12.45-6.18.75-.74.12-1.46.3-2.19.48a11.1,11.1,0,0,0-4.76-4.22l-5.41-2.44c16-28.85,14.08-51.86,13.7-55.14a32.67,32.67,0,0,0-.15-3.31c36.37,9,61.14,27.26,73.12,54.45A67.42,67.42,0,0,1,557.45,341.54ZM537.71,253c8.57,11,7.37,31.72,4.52,48.24q-14.47-14.17-35.85-23c.84.06,1.69.14,2.51.14,4.88,0,9.37-1.06,12.84-3.79,6.59-5.16,10.19-14.19,9.94-23a4.16,4.16,0,0,0-.18-2.47c0-.48-.1-1-.18-1.44A25.88,25.88,0,0,1,537.71,253Zm-51.36-25.49a1.7,1.7,0,0,1,1.37-.24c18.46,4.74,31.17,11.2,34,17.29a18.15,18.15,0,0,1,1.47,5.3,13.16,13.16,0,0,1-5.06,4.9,19.9,19.9,0,0,1-9,2,52.51,52.51,0,0,1-10.3-1c-3.52-.61-7-1.48-10.82-2.08a2.22,2.22,0,0,0-.87,4.34h.06c3.33.83,6.84,2,10.43,3a58.53,58.53,0,0,0,11.3,2.11,26.92,26.92,0,0,0,12.31-1.7l.26-.13a16.65,16.65,0,0,1-4.78,6.32c-5.37,4.21-19,1.87-35.54-6.08a1.84,1.84,0,0,1-1-2l5.41-30.89A1.78,1.78,0,0,1,486.35,227.52Zm-79.12-8.1c13.54-3.13,42.63,1,70.07,8.07L472,258.05a10.57,10.57,0,0,0-.13,2.24,15.63,15.63,0,0,0-2.58-1.32c-11.44-4.53-18.6,1.63-20.8,5.51l-.8,1.42.37,1.59c3,12.75-2.6,33.36-7.47,47.66l-.53-1.08a2.1,2.1,0,0,0-3.92,1.39l0,.13c1.37,6.63,3.05,13,3.8,19.59l.38,2.44c.12.81.14,1.63.22,2.45L441,345c0,3.28.39,6.54.19,9.81l-.06,2.45,0,1.22-.11,1.23-.44,4.88c-.14,1.22-.34,2.44-.53,3.66a74.25,74.25,0,0,0-5,6.89,69.84,69.84,0,0,0-22.52-12.81,58.32,58.32,0,0,0,6.32-25.17c.34-11-2.34-21.4-7.26-29.17-3.55-8.71-8.93-15.58-15.41-20-.27-1.41-.59-2.81-.9-4.22a4.16,4.16,0,0,0,1.72-3.91,75.11,75.11,0,0,1-.28-11.69c.16-4,.49-8.06.92-12.11s.93-8.11,1.51-12.17,1.22-8.11,1.94-12.12v0a1.8,1.8,0,0,0-3.51-.8c-1.13,4-2.16,8-3.14,12s-1.9,8.07-2.72,12.16q-1,5.12-1.83,10.34a138,138,0,0,0-7.81-17.32C388.31,233.88,396.7,221.86,407.23,219.42ZM239.56,185.75a128.59,128.59,0,0,1,27.9-1.62c4,.2,8.14.61,12.2,1.21,1.61.23,3.07.47,4.52.75a129.43,129.43,0,0,1,102.54,97.47,29.82,29.82,0,0,0-8.4-1,31.21,31.21,0,0,0-12.4,3A131.27,131.27,0,0,0,343.26,243c-24.1-30.4-60.51-50.38-97.38-53.45a156,156,0,0,0-21.43-.35A128.67,128.67,0,0,1,239.56,185.75Zm64.68,477.79c-46.17-4.39-89.19-14.69-127.91-30.6-.39-2.15-.75-4.29-1.11-6.44s-.71-4.06-1-6.1c-.4-2.54-.75-5.09-1.11-7.64-.29-2-.6-4-.87-6-.33-2.54-.62-5.08-.91-7.62-.24-2-.5-4.06-.71-6.08-.27-2.49-.47-5-.7-7.46-.19-2.09-.41-4.18-.57-6.27-.18-2.29-.31-4.59-.46-6.89s-.33-4.56-.45-6.84c-.08-1.52-.11-3-.18-4.56q-.76-17.34-.39-34.68c0-.46,0-.93,0-1.4.1-3.65.25-7.3.42-10.95,0-.88.06-1.76.1-2.64.18-3.51.42-7,.68-10.52.07-1,.12-2,.2-3.06.26-3.44.59-6.88.92-10.31.11-1.09.19-2.17.31-3.26.35-3.39.76-6.78,1.17-10.17.14-1.12.26-2.25.41-3.37.43-3.35.92-6.7,1.42-10,.18-1.17.33-2.33.51-3.5.52-3.3,1.09-6.6,1.67-9.89.21-1.21.4-2.42.62-3.63.6-3.25,1.24-6.49,1.9-9.74.25-1.25.49-2.51.75-3.76.34-1.63.72-3.25,1.08-4.87,3.06,2.21,6.18,4.34,9.36,6.26,1.91,1.16,4,2.35,6.39,3.65a137.49,137.49,0,0,0,59.76,16.25c1.74.06,3.5.09,5.25.09l2.67,0a138.08,138.08,0,0,0,62.35-16.33,156.66,156.66,0,0,0-10.5,14.83,98.27,98.27,0,0,0-8.45,16.81A76.2,76.2,0,0,0,352.2,604.16c1.13,0,2.28,0,3.42-.07a76.19,76.19,0,0,0,37-140.75c.11-.23.22-.44.32-.67,1.18-.93,2.27-1.84,3.37-2.79,1.33-1.15,2.63-2.31,3.91-3.51,2.56-2.38,5-4.87,7.44-7.38a172.18,172.18,0,0,0,13.52-16c.89-1.19,1.76-2.4,2.62-3.61,0,.12.05.23.07.35.19.95.41,1.89.64,2.83l.18.75c.3,1.15.63,2.29,1,3.42a62.82,62.82,0,0,0,12.77,22.13,82.22,82.22,0,0,0,19.46,16A109.92,109.92,0,0,0,469,480.7c1.47.67,3,1.28,4.46,1.88,1.14.46,2.28.9,3.43,1.33h0c-.49,2-.94,3.94-1.32,5.94-.62,3.27-1.09,6.57-1.39,9.91a59.61,59.61,0,0,0,1.27,20.51,30.73,30.73,0,0,0,4.61,10,23.79,23.79,0,0,0,8.74,7.46c.87.38,1.73.84,2.62,1.14l2.7.84a34,34,0,0,0,5.41.86c.89,0,1.8.19,2.68.15h.25c8,7.46,31,26.44,60.17,27.2l1.84,0a80.2,80.2,0,0,0,13.35-1.16A215.85,215.85,0,0,1,566,609c-4.47,3.35-26.66,19.13-65.48,33.12C460.37,656.62,393.74,672.07,304.24,663.54Z"/><path class="cls-3" d="M377.06,486.5a49.34,49.34,0,0,1,23.78,40.09,49.53,49.53,0,0,1-47.23,51.62c-.74,0-1.48,0-2.22,0a49.45,49.45,0,0,1-39.25-79.53,21.75,21.75,0,0,0,3.28,1.88c1.67.69,3.32,1.45,5,2.08l2.61.86a22.94,22.94,0,0,0,2.64.77,46.25,46.25,0,0,0,22.1.5,47.63,47.63,0,0,0,5.37-1.53c1.72-.7,3.48-1.33,5.11-2.19s3.23-1.75,4.82-2.67,3.06-2,4.48-3.13A70.84,70.84,0,0,0,377.06,486.5Zm238.85,1a180.24,180.24,0,0,1,5.28,37.93,142.2,142.2,0,0,0-32.66-16A224.4,224.4,0,0,0,579.75,464l16.92,4.29A26.53,26.53,0,0,1,615.91,487.54ZM593.14,602.7,576,606.09a224.64,224.64,0,0,0,10.57-41.17,141.12,141.12,0,0,0,33.67-14.19,180.36,180.36,0,0,1-6.89,33.72A26.54,26.54,0,0,1,593.14,602.7Z"/><path class="cls-4" d="M562.86,559.59c-21.24-.55-39.42-12.39-49.31-20.36a39.63,39.63,0,0,0,6.81-2.81,48.92,48.92,0,0,0,4.54-2.7c1.39-1,2.85-2,4.13-3.15a70.46,70.46,0,0,0,12.33-13.65,68.41,68.41,0,0,1,22.71-3.48c25.48.68,50.76,17.37,60.64,24.68C614.46,544.9,588.35,560.23,562.86,559.59ZM304,486.08a20.57,20.57,0,0,0,2.1,6.07,16.5,16.5,0,0,0,1.5,2.3,55.26,55.26,0,0,0-11.85,36.81,55.81,55.81,0,0,0,55.66,53.27c.83,0,1.66,0,2.5,0A55.75,55.75,0,0,0,389,487.66a56.44,56.44,0,0,0-7.87-6c.45-.57.92-1.12,1.36-1.7a101.62,101.62,0,0,0,5.91-8.8c.45-.75.86-1.52,1.29-2.28A70,70,0,1,1,304,477.39c-.12.87-.22,1.76-.27,2.67A27.32,27.32,0,0,0,304,486.08Zm323.7-86.43c-31.57,19.05-48.78,36-57.72,50.27a254.73,254.73,0,0,0-34.2-21.23,11.86,11.86,0,0,1-.69-2.2,10.39,10.39,0,0,1-.11-3.38,12.79,12.79,0,0,1,.4-1.68,6.55,6.55,0,0,1,.29-.85,5.33,5.33,0,0,1,.34-.78,16.53,16.53,0,0,1,2.18-3.09c.93-1.12,2-2.25,3-3.39,3.7-3.91,7.6-8,11.18-12.43C572.24,394.36,597.74,393.89,627.68,399.65ZM40,531.73a17.45,17.45,0,0,1,.57-21.58c18.43-22.27,59.72-63,132-90.49-.31,1.38-.58,2.75-.88,4.13-.38,1.71-.74,3.42-1.1,5.13q-.87,4.21-1.68,8.43c-.33,1.71-.66,3.42-1,5.14-.51,2.82-1,5.65-1.46,8.49-.28,1.69-.57,3.39-.83,5.08-.45,2.87-.86,5.75-1.26,8.62-.23,1.66-.47,3.32-.68,5-.39,3-.72,5.91-1.06,8.86-.17,1.58-.37,3.16-.53,4.74-.33,3.13-.6,6.26-.87,9.4-.12,1.4-.26,2.8-.37,4.2-.28,3.61-.5,7.22-.71,10.83-.05.93-.13,1.86-.18,2.79q-.36,6.88-.54,13.77v.09q-.17,6.74-.17,13.48c0,1.41,0,2.82.05,4.22,0,3.12,0,6.25.12,9.37,0,1.74.13,3.49.19,5.24.1,2.78.2,5.56.34,8.34.09,1.9.22,3.8.34,5.7.16,2.63.32,5.27.53,7.9.15,2,.33,3.95.5,5.92.22,2.56.45,5.13.71,7.69.21,2,.44,4,.67,6q.42,3.78.9,7.57c.26,2,.54,4.07.82,6.1.35,2.51.72,5,1.1,7.52.31,2,.64,4.07,1,6.1.2,1.16.36,2.32.56,3.48C96.34,597.75,57.25,554.93,40,531.73Zm580.43,146.1c-40.79,5.61-73,.08-93.51-16.12a60.63,60.63,0,0,1-13.85-15.37c24.84-9.78,41.79-19.71,50.94-25.73C575.89,644.44,603.11,665.9,620.43,677.83ZM731.14,572.41C711,583.85,693.64,593.72,671.56,593c-22.93-.77-37-12.59-45.43-25.07a188.55,188.55,0,0,0,3-22.68c3-2,4.82-3.36,5.13-3.6a4.17,4.17,0,0,0,.17-6.51c-.29-.25-2-1.67-4.79-3.76a188.63,188.63,0,0,0-1.2-21.24c9.32-11.69,24-22.25,46.64-21.48,22.09.75,38.75,11.79,58,24.58,18,11.94,37.8,25,65.37,31.85C770.56,550,749.93,561.71,731.14,572.41Z"/><path class="cls-5" d="M661.05,581.47c-18-.61-27.89-12.65-33.23-23.69q.87-6.25,1.34-12.55c3-2,4.82-3.36,5.13-3.6a4.17,4.17,0,0,0,.17-6.51c-.29-.25-2-1.67-4.79-3.76q0-5.21-.29-10.4c6.14-10.48,16.79-21.41,34.44-20.81,33.5,1.14,48.3,42.35,101.13,44.15C712.12,542.5,694.55,582.61,661.05,581.47Z"/><path class="cls-6" d="M653.52,516c20.73.71,29.9,26.22,62.6,27.33-32.7-1.11-43.58,23.71-64.31,23-14.24-.49-20.32-12.57-22.74-20.1,0-.33.07-.66.09-1,3-2,4.82-3.36,5.13-3.6a4.17,4.17,0,0,0,.17-6.51c-.25-.22-1.67-1.39-3.91-3.09C633.94,524.81,640.79,515.56,653.52,516Z"/><path class="cls-7" d="M338.14,335a65.09,65.09,0,0,0,3.54,23.43,100.28,100.28,0,0,1-58.93,58.39c-39.48,15-85.49,6.86-121.07-21.16,79.94,17.77,162.65-23.4,181.24-109.85a100,100,0,0,1,4.61,16.67,64.67,64.67,0,0,0-9.28,30.05C338.2,333.39,338.16,334.21,338.14,335Z"/><path class="cls-8" d="M279.42,233.42s-58.75-5-94.62,26.79l-.11.1c-7.55,6.7-14.71,19.15-17.84,28.74a115.92,115.92,0,0,0-5.67,30.3c-1.67,25.13,2.24,37.22,2.24,37.22C150,342.34,143,326.73,144.15,305.78q.18-3.09.6-6.36c.06-.5.13-1,.21-1.49,0,0,0,0,0,0a140.56,140.56,0,0,1,4.3-16.35c6.23-19,20.78-40.78,45.77-50.86C241.78,211.85,281.66,230.93,279.42,233.42Zm11.47,71.77c2.22,11.28,11.88,18.88,21.57,17s15.72-12.61,13.49-23.9-11.88-18.88-21.57-17S288.66,293.9,290.89,305.19Zm21.76,35.69c1.31,4.57,5.55,7.36,9.46,6.23s6-5.73,4.72-10.3-5.54-7.35-9.46-6.23S311.34,336.32,312.65,340.88Z"/></svg>