<svg id="Layer_1" data-name="Layer 1" xmlns="http://www.w3.org/2000/svg" viewBox="0 0 864 864"><defs><style>.cls-1{fill:#fff;}.cls-2{fill:#ffd243;}.cls-3{fill:#fcac38;}.cls-4{fill:#371a45;}.cls-5{fill:#220f2d;}.cls-6{fill:#8c789b;}</style></defs><title>Artboard 1</title><path class="cls-1" d="M654.83,487.25a18.57,18.57,0,0,0-4.27-5.51,21.41,21.41,0,0,0,4-4.73,17.5,17.5,0,0,0,1.64-14.47,16.11,16.11,0,0,0-8.21-10,21.83,21.83,0,0,0-8.43-2.2,150.25,150.25,0,0,0-65.93-90.16c-3.33-2.09-6.81-4.07-10.31-5.88-1.86-1-3.77-1.86-5.67-2.75.73-.78,1.47-1.54,2.19-2.33.4-.45.78-.92,1.18-1.37,1.41-1.59,2.81-3.19,4.16-4.82.37-.44.71-.9,1.07-1.34,1.36-1.67,2.71-3.35,4-5.07.32-.42.62-.86.94-1.28,1.31-1.76,2.61-3.52,3.86-5.32.3-.44.58-.89.88-1.33,1.24-1.81,2.46-3.62,3.63-5.46.29-.47.57-1,.86-1.43,1.14-1.84,2.27-3.68,3.35-5.55.31-.53.59-1.08.89-1.62,1-1.83,2.06-3.67,3-5.53.32-.61.61-1.23.92-1.85.92-1.81,1.84-3.62,2.7-5.47.32-.67.6-1.36.9-2,.82-1.81,1.64-3.61,2.41-5.44.31-.76.59-1.53.9-2.29.71-1.77,1.43-3.54,2.09-5.33.31-.83.57-1.67.86-2.5.62-1.75,1.24-3.49,1.81-5.25.32-1,.59-2,.89-3,.16-.52.31-1,.46-1.55,5.81-2,10.36-4,12.28-5.86,13.1-12.91,12.83-44.74,11.5-62.57-1.57-21.06-6.75-47.81-13.26-55.89-3.71-4.6-11.88-7.75-20.31-9.87A192.14,192.14,0,0,0,390.09,29.73C296.11,43,227.54,122.49,224.74,214.3L218,217.7c-14.12,5.11-13.48,38.21-5.42,68.8,7.14,27.07,18.73,48.53,29.53,54.67a13.66,13.66,0,0,0,6.81,1.95,10.45,10.45,0,0,0,2.3-.27l16.51-1.53a194.19,194.19,0,0,0,32,31.2c-15,6.48-27.49,14.65-33.81,24.89a4.81,4.81,0,0,0-1.23,2.2,29.36,29.36,0,0,0-1.54,3.44c-9.53,26.05-12.7,68.23-10.88,109.72a18.67,18.67,0,0,0-6.37,3.19c-7.36,6.59-6.94,20.13-5.37,41.64,1.25,17.1,4.12,35.95,15.91,46.16a47.19,47.19,0,0,0,12.22,7.54c3.53,9.43,7.54,16.86,12,21.44,8,8.18,20.79,14,35.79,18.29-.14,2.82-.31,5.63-.54,8.43-.82,7.21-1.09,15-4.6,21.24-19.36,27.36-38.71,61-38.2,95.56.69,19.87,8.63,40.74,25.47,52.57a42.45,42.45,0,0,0,45.11,1.64c14.26-8.82,15.24-27.37,14.76-42.17a85.18,85.18,0,0,1,.26-10.84c40.63-23.55,71.47-66.43,73.68-114.14,0-.72,0-1.43.06-2.14,5.29-.17,8.67-.35,9.44-.39l3.26-.19,5.28,18.9c-13.3,12.07-28,27.89-29.18,46.24-1.58,23.21-.14,50.62,14.43,70a38.44,38.44,0,0,0,26.91,14.74c10.66,1.23,22.62-1.74,29.21-10.87C500,788,500,773.11,499,759.81c22.36-7.72,44.94-20,56.56-41.63,15.6-29.33,11.11-64,3-95.08,2.81-1.34,5.61-2.77,8.37-4.3a150.08,150.08,0,0,0,58.4-58.47h.25c5.47,0,12.27-1.92,17-6.87,7.9-8.21,11.5-21.09,10.72-38.3C655.19,511,660,497.64,654.83,487.25Z"/><path class="cls-2" d="M614.34,536.76c2.11-19.72,11.2-23.33,12.31-25.08s-9.49-4.35-7.72-19c1.39-11.54,14.71-11.86,20.35-11.47a145.42,145.42,0,0,0-68.2-116.95c-3.25-2-6.59-3.94-10-5.7a146.09,146.09,0,0,0-59-16.15l-.55,0q-1.87-.11-3.78-.15-3.76-.1-7.53,0a145.69,145.69,0,0,0-66.81,18.28c-1.13.64-2.25,1.27-3.36,1.93-.67.39-1.34.8-2,1.21A145.32,145.32,0,0,0,348.94,495.7c3.14,2.52,6.77,5.35,6.87,5,.18-.55,11.68-13.83,23.57-14.45s18,2.51,13.73,14.48-15.17,12.65-4.55,21.65,34.68-1.83,42.4,8.82-5.51,22-5,30.08c.53,7.85-.66,30.31-29.35,34.07A145.33,145.33,0,0,0,621.71,557C618.3,555.38,612.85,550.56,614.34,536.76Z"/><path class="cls-3" d="M364.9,492.14c.39-12.08,6.05-20.82,14.24-20.79,3.54,0,7.21,1.62,10.68,4.38a11.62,11.62,0,0,0-5.12-1.48c-5.47-.14-9.09,4.79-10.06,12.3A34,34,0,0,0,364.9,492.14ZM560.46,388.33c-8-.32-14.62,4.92-14.84,11.73a10.61,10.61,0,0,0,.62,3.72,7.11,7.11,0,0,1,.68-3.34c2.08-4.37,8.21-6,13.7-3.57s8.25,7.89,6.17,12.27a7.81,7.81,0,0,1-3.6,3.56c6.3-1.09,11.11-5.7,11.3-11.46C574.71,394.44,568.43,388.66,560.46,388.33Zm-60.93-18.6a11.36,11.36,0,0,1,.58,3.9c-.34,9.81-13.15,18.2-28.63,18.73s-27.76-7-27.42-16.8c.14-4.13,2.51-8,6.36-11.16-8.6,5.29-14,13.3-13.46,21.68.83,13.3,16.23,22.48,34.4,20.49s32.22-14.39,31.39-27.69A18,18,0,0,0,499.53,369.73Zm14.4,98.18c-1.41,16.07-16.72,27.42-34.2,25.35s-30.52-16.8-29.11-32.88S467.34,433,484.82,435,515.34,451.83,513.93,467.91Zm-4.64.86c-4.3-13.87-19.21-23-35.05-20.83a31.63,31.63,0,0,0-21.16,12.16,24,24,0,0,0,.25,6c2.4,14.4,17,24.34,32.58,22.19C497.63,486.7,506.58,478.73,509.29,468.77Zm110.4,21.89c-2.53,11.45,6.72,18.34,7,21s-7.35,4.56-11,18.65c-3.41,13.08-.37,23,7,25A145.28,145.28,0,0,1,397.1,595.8c25.16-1.91,29.21-22.62,29.69-32.52a165,165,0,0,0,62,14.32c4.48-12.12,17.82-22.76,34.79-26.32s32.84,1,40.79,10.58c3.16-1.51,6.31-3.11,9.42-4.83,11.79-6.56,31.92-27.1,36.64-44a62.82,62.82,0,0,1,1.25-19.44c-10.62,1.13-20.91-7.68-23.48-20.54-2.72-13.57,4.17-26.49,15.4-28.86s22.53,6.71,25.25,20.28a28.5,28.5,0,0,1-1.54,16.69l-.79,1.65A21,21,0,0,1,619.69,490.66Zm-58.05,94.62c-.79-12.4-17.18-20.37-36.61-17.79s-34.54,14.72-33.75,27.12S508.46,615,527.89,612.4,562.43,597.68,561.64,585.28ZM618.8,459.39a25.55,25.55,0,0,0-13.24-13.3,15.49,15.49,0,0,0-4,1.46c-9.2,4.88-12.49,17.94-7.35,29.2,3.86,8.45,11.37,13.48,18.76,13.39C621.34,484,624,470.82,618.8,459.39Z"/><path class="cls-4" d="M546.21,407c-4.56-5.31-2.67-14.18,3-18a18.75,18.75,0,0,1,19.59-1.41c15.81,8.51,7.84,29.11-9.24,26.86a.9.9,0,0,1,.08-1.79c7.84-.27,16.2-7.55,12.22-15.57-3.56-7.07-13.86-9-20.38-4.83a10.63,10.63,0,0,0-4.1,14A.72.72,0,0,1,546.21,407Zm27.12,11.76c5.49-3.27,9.53-9.57,9-16a.73.73,0,0,0-1.44,0,17.13,17.13,0,0,1-9.53,12.63c-14.71,8-37.58-4.91-28.7-22.51a.9.9,0,0,0-1.46-1c-4.42,4.85-5.13,12.6-2.05,18.43C545.31,422.32,562.21,425.78,573.33,418.76Zm39.27,85.77a1.08,1.08,0,0,0,1-1.2,1.09,1.09,0,0,0-1-1,36.4,36.4,0,0,1-20.71-10.19c-17-15.91-17.06-48,7.7-56.21a1.35,1.35,0,0,0-.5-2.63C585.33,434,574.17,447,573,460.59c-2.14,18,9.34,36.81,26.64,42.49A30.84,30.84,0,0,0,612.6,504.53Zm-85.69-30.89a1.08,1.08,0,0,0-2.07-.58,52.49,52.49,0,0,1-8,13.79c-20.69,25.81-63.51,23.82-75.45-9a43.39,43.39,0,0,1-2-7.6,47,47,0,0,1-.58-8,1.35,1.35,0,0,0-2.67-.27,41.05,41.05,0,0,0,8.09,33.13c15.07,19.65,45.13,21.62,64.27,7A47.12,47.12,0,0,0,526.91,473.64Zm-22-29.18a26,26,0,0,1,4.54,16.72c-.86,13.71-12.9,25.14-26.41,26-23.75,1.33-34.24-25.39-18.6-42.27a31.39,31.39,0,0,1,14.88-9.09,1.34,1.34,0,0,0-.47-2.63c-17.16,1.48-31.26,19.1-28,36.3,2.72,18.74,23.17,29.25,40.46,23.05,20.37-6.44,30.71-33.09,15.3-49.42A1.08,1.08,0,0,0,504.86,444.46Zm55.33,108c-12.53-8.32-29-8-42.68-3.17-18.07,6.15-37.11,24.29-31.61,45a24.23,24.23,0,0,0,4.49,8.5,27.17,27.17,0,0,0,9.93,7.42,1.34,1.34,0,0,0,1.25-2.36c-18.86-11.75-12.07-33.09,3.69-44.21a56.82,56.82,0,0,1,15.9-8c40.11-12.11,63.54,21.88,26.58,48.26a75.44,75.44,0,0,1-7.46,4.29,1.08,1.08,0,0,0,.81,2c11.39-3.86,22.19-11.63,27.79-22.69A26.5,26.5,0,0,0,560.19,552.42Zm-99-141.75c13.3.94,27.26-3.74,36.42-13.63,5.84-6.21,9.5-15.53,6.44-24a20.4,20.4,0,0,0-9.75-11.25,1.34,1.34,0,0,0-1.48,2.23c16.59,13.5,1.92,32.32-14.28,37.16-13.69,5.27-38.7,2.3-38.29-16.44,1.06-11.43,12-19.88,22.37-23.94a1.08,1.08,0,0,0-.61-2.07c-15.75,2.85-33.38,18.74-26.28,36.05C440,404.89,451.23,409.88,461.24,410.67Zm192.18,104.5c.78,17.21-2.82,30.09-10.72,38.3-4.77,4.95-11.57,6.87-17,6.87h-.25A150.08,150.08,0,0,1,567,618.8c-2.76,1.53-5.56,3-8.37,4.3,8.06,31.09,12.55,65.75-3,95.08C544,739.76,521.39,752.09,499,759.81c1,13.3,1,28.2-7.29,39.76-6.59,9.13-18.55,12.1-29.21,10.87a38.44,38.44,0,0,1-26.91-14.74c-14.57-19.34-16-46.75-14.43-70,1.17-18.35,15.88-34.17,29.18-46.24l-5.28-18.9-3.26.19c-.77,0-4.15.22-9.44.39,0,.71,0,1.42-.06,2.14-2.21,47.71-33.05,90.59-73.68,114.14a85.18,85.18,0,0,0-.26,10.84c.48,14.8-.5,33.35-14.76,42.17a42.45,42.45,0,0,1-45.11-1.64c-16.84-11.83-24.78-32.7-25.47-52.57-.51-34.51,18.84-68.2,38.2-95.56,3.51-6.24,3.78-14,4.6-21.24.23-2.8.4-5.61.54-8.43-15-4.24-27.83-10.11-35.79-18.29-4.47-4.58-8.48-12-12-21.44a47.19,47.19,0,0,1-12.22-7.54c-11.79-10.21-14.66-29.06-15.91-46.16-1.57-21.51-2-35.05,5.37-41.64a18.67,18.67,0,0,1,6.37-3.19c-1.82-41.49,1.35-83.67,10.88-109.72a29.36,29.36,0,0,1,1.54-3.44,4.81,4.81,0,0,1,1.23-2.2c6.32-10.24,18.78-18.41,33.81-24.89a194.19,194.19,0,0,1-32-31.2l-16.51,1.53a10.45,10.45,0,0,1-2.3.27,13.66,13.66,0,0,1-6.81-1.95c-10.8-6.14-22.39-27.6-29.53-54.67-8.06-30.59-8.7-63.69,5.42-68.8l6.79-3.4C227.54,122.49,296.11,43,390.09,29.73A192.14,192.14,0,0,1,591.85,140.17c8.43,2.12,16.6,5.27,20.31,9.87,6.51,8.08,11.69,34.83,13.26,55.89,1.33,17.83,1.6,49.66-11.5,62.57-1.92,1.89-6.47,3.9-12.28,5.86-.15.52-.3,1-.46,1.55-.3,1-.57,2-.89,3-.57,1.76-1.19,3.5-1.81,5.25-.29.83-.55,1.67-.86,2.5-.66,1.79-1.38,3.56-2.09,5.33-.31.76-.59,1.53-.9,2.29-.77,1.83-1.59,3.63-2.41,5.44-.3.67-.58,1.36-.9,2-.86,1.85-1.78,3.66-2.7,5.47-.31.62-.6,1.24-.92,1.85-1,1.86-2,3.7-3,5.53-.3.54-.58,1.09-.89,1.62-1.08,1.87-2.21,3.71-3.35,5.55-.29.47-.57,1-.86,1.43-1.17,1.84-2.39,3.65-3.63,5.46-.3.44-.58.89-.88,1.33-1.25,1.8-2.55,3.56-3.86,5.32-.32.42-.62.86-.94,1.28-1.3,1.72-2.65,3.4-4,5.07-.36.44-.7.9-1.07,1.34-1.35,1.63-2.75,3.23-4.16,4.82-.4.45-.78.92-1.18,1.37-.72.79-1.46,1.55-2.19,2.33,1.9.89,3.81,1.78,5.67,2.75,3.5,1.81,7,3.79,10.31,5.88a150.25,150.25,0,0,1,65.93,90.16,21.83,21.83,0,0,1,8.43,2.2,16.11,16.11,0,0,1,8.21,10A17.5,17.5,0,0,1,654.56,477a21.41,21.41,0,0,1-4,4.73,18.57,18.57,0,0,1,4.27,5.51C660,497.64,655.19,511,653.42,515.17Zm-11.61-54.75c0,.08,0,.16,0,.24.87,4.74,1.46,9.48,1.86,14.2a12.12,12.12,0,0,0,2.61-2.87,7.83,7.83,0,0,0,.64-6.69,6.5,6.5,0,0,0-3.36-4.21A10,10,0,0,0,641.81,460.42Zm-9.86-.05a34.41,34.41,0,0,0-4.78,1.18,4.81,4.81,0,0,1-5.81-6.84,22.79,22.79,0,0,0-4.12-2.82c-7-3.94-16.37-3.06-21.2,3.49-7.35,9.92-2,25.17,8.61,30.74a17.55,17.55,0,0,0,10.14,2.13,18,18,0,0,1,6.44-8.42A22.91,22.91,0,0,1,634.11,476c-.38-4.53-.92-9.08-1.75-13.62C632.24,461.71,632.08,461.05,632,460.37ZM321.14,471.73a2.42,2.42,0,0,1,3-1.63,60,60,0,0,1,20,10.47A151.37,151.37,0,0,1,368,406.24a190.79,190.79,0,0,1-28.16-9.85,109.67,109.67,0,0,0-13.57,8.93h0a130.49,130.49,0,0,0-28.43,30.16c-9.46,13.93-17.37,30.55-20,47.54,6.24-9.12,16.76-14.5,31.84-13.46a1.81,1.81,0,0,1-.24,3.6c-16.44-.59-29.86,8.9-31.33,25.84a49.8,49.8,0,0,0-.29,7.34,62.54,62.54,0,0,0,2.05,8.5c4.54,13,13.63,24.53,24,33.64a139.27,139.27,0,0,0,34.65,21.59,2.39,2.39,0,0,1,4.55-1.37,32.2,32.2,0,0,0,8.45,10.84c14.68,12.85,49.2,17.42,63.33,2,5.06-6.29,6.63-16.56,6.07-24.64-.56-3.27,2.84-5,4.36-7.41,5.57-9.41,2.67-19.78-9.81-19.48-11.65-.25-26.67,3.57-34.79-8.5a14.16,14.16,0,0,1,2-17.41c.79-.82,2.37-2.26,3.23-3,2.48-2.31,5.29-4.72,3.78-8-3.83-4.92-12.92-3-17.89-.32-10.67,5.35-14.88,16.74-19.24,27.27a2.49,2.49,0,0,1-4.78-.61,33.66,33.66,0,0,1,3.56-19.4c-4.55-3-8.37-7.5-11.77-11.07a100.61,100.61,0,0,0-17.46-14.51A2.42,2.42,0,0,1,321.14,471.73Zm79.2,24.8c-.69,6.23-5.46,10.23-9.59,13.84-1.09,1-2.14,1.92-2.19,3.57.17,6.18,8.92,7,14.59,6.78,2.17-7.81.62-16.73-2.19-24.17-.19-.58-.41-1.18-.65-1.79C400.32,495.34,400.38,495.9,400.34,496.53ZM296.23,600.6a30.62,30.62,0,0,1-4,4.95,29.55,29.55,0,0,0,15.69-6.79c3.52-3,5.93-7.38,7.55-12.55-.62-6.23-1.38-12.47-2.12-18.75-3-2-6-4-8.83-6.14C305.12,574.94,303.7,588.63,296.23,600.6Zm93.51-221c-39.76-9.39-74.47-31.94-97.64-63.2a50,50,0,0,1-2.84,13.6c23.36,27.8,55.75,48.19,92.53,57.91C384.32,385.09,387,382.33,389.74,379.65ZM276.85,268c-7.67-29.11-19.55-48.81-27.32-53.23a4.86,4.86,0,0,0-2.62-.79l-15,7.5c9.75,8.3,19.68,28,26.06,52.16,5.8,22,7.75,45.32,3.13,58.57l16.36-1.52C282.47,328.42,286.63,305.1,276.85,268ZM410.61,52.9c-84.8,12-148.47,76.43-158.26,152.56a17.22,17.22,0,0,1,2,.94,32.41,32.41,0,0,1,8.16,7.19c6-74.89,67.14-139.35,149.52-151,45.36-6.41,90.41,4,126.87,29.23a164.56,164.56,0,0,1,29.42,26c-.53-.79-1-1.6-1.58-2.38-.92-1.33-1.91-2.6-2.88-3.9S562,109,561,107.81s-2-2.48-3.06-3.73-2-2.43-3-3.62-2.16-2.35-3.23-3.53-2.11-2.36-3.21-3.5-2.23-2.21-3.35-3.32-2.27-2.29-3.45-3.39-2.34-2.08-3.51-3.11-2.41-2.2-3.66-3.25-2.44-2-3.65-2.92-2.55-2.08-3.87-3.08-2.55-1.82-3.83-2.74-2.59-1.89-3.93-2.8A191.87,191.87,0,0,0,410.61,52.9ZM544,346c1.39.48,2.77,1,4.14,1.49.63-.66,1.29-1.3,1.92-2,.42-.45.82-.92,1.23-1.37,1.41-1.52,2.81-3.05,4.16-4.62l.25-.3a184.8,184.8,0,0,0,12.19-16A172,172,0,0,1,544,346Zm52.69-194.32a191.54,191.54,0,0,1,10.83,41.68c.13,1,.26,2,.38,2.94.11.6.2,1.19.29,1.86a153.67,153.67,0,0,1,.39,40.3q-.39,4.17-1,8.29c-.15,1.07-.35,2.12-.51,3.18-.26,1.68-.5,3.36-.81,5-.24,1.3-.53,2.59-.79,3.88s-.55,2.83-.87,4.23v0a10.25,10.25,0,0,0,2.52-1.44c17.63-17.36,6.15-94.78-2.51-105.53C603.34,154.47,600.45,153,596.69,151.65Zm-362,57.69,7.93-4c9.84-80.84,77.07-149.36,166.68-162a206.75,206.75,0,0,1,49.54-1,182.11,182.11,0,0,0-67.36-3C304,51.64,239.7,124.37,234.65,209.34Zm12.17,123.44a3.87,3.87,0,0,0,2.39.65c4.77-1.37,8.18-24.17-.55-57.31-7-26.68-17.89-44.72-25-48.74a4.72,4.72,0,0,0-2-.7,1.5,1.5,0,0,0-.37,0c-4.77,1.37-8.18,24.17.56,57.31C228.9,310.72,239.74,328.76,246.82,332.78Zm127,65c.41-.56.79-1.13,1.21-1.67-36.08-10.41-67.93-30.65-91.5-57.88a11.51,11.51,0,0,1-3.7,1.86,4,4,0,0,1-.5.09A183.67,183.67,0,0,0,373.83,397.79Zm-92.09-4q2.82-.33,5.63-.59a308.28,308.28,0,0,1,40.63-.91c.46-.3.94-.58,1.41-.88a194.55,194.55,0,0,1-20.62-12.28C298,383.28,288.49,388.14,281.74,393.78ZM261.82,510.36c2.14-.41,4.38-.79,6.69-1.14a83,83,0,0,1,1.9-37.79,141.74,141.74,0,0,1,48.89-72.89c-3.34.21-6.83.53-12.56,1-11.35,1-23,2.29-33.94,5.29-.23.51-.47,1-.66,1.53C263.87,429,260.13,467.8,261.82,510.36Zm16.11,94.1c4.79-.33,9.66-4,12.55-8,7.86-10.9,9.62-25,9.62-38.66a103.33,103.33,0,0,1-18.32-19.18,70.25,70.25,0,0,1-10.77-20c-9.64,1.34-16.94,2.92-18.74,4.49-4.36,3.91-3.1,21.16-2.18,33.76,1,14.24,3.41,31.61,12.6,39.56A39.11,39.11,0,0,0,277.93,604.46Zm38.81,36.78c.08-3.13.13-6.26.17-9.39.07-7.93,0-16.43-.06-24.4,0-1.28-.08-2.56-.13-3.84a28.42,28.42,0,0,1-2.54,2.49A39.69,39.69,0,0,1,288,615.44a46.79,46.79,0,0,1-7.66-.67A41.57,41.57,0,0,0,287.51,626C294,632.62,304.34,637.55,316.74,641.24Zm86.49,79.43a80.34,80.34,0,0,1-24.66,4.07,64.62,64.62,0,0,1-19.44-2.91c-16.37-5.15-29.9-17-40.3-35.13C294.32,721.41,266,772.64,295,812.26,300.13,819,307.15,824,315,825.76c7.45,1.6,16.94.55,23.42-3.43,11-7.17,10.36-21.92,10.29-33.88a105.84,105.84,0,0,1,.17-11.14,53.83,53.83,0,0,1-13.52,1.17c-12.44-.59-24.65-6.55-31.53-17.2A1.81,1.81,0,1,1,307,759.4c11.33,14.73,29.83,16,46.24,10C373.77,756.38,390.77,739.9,403.23,720.67Zm32.94-69.3-3.05-26.74a150.24,150.24,0,0,1-38.82-25A74.14,74.14,0,0,1,375.7,598c-10.24-2.12-20.67-6.75-28.24-14.14a151.19,151.19,0,0,1-23.69-10.29l.21,1.86a311.7,311.7,0,0,1,2.6,42.41c0,14.17,0,28.15-1.11,42.39-.66,6-1.11,12.27-2.88,18.16,9.8,19.19,22.78,31.48,38.65,36.49,20.46,6.46,40.44-.93,48-4.34a144.94,144.94,0,0,0,17.29-67.16,2.42,2.42,0,0,1,4.79-.6,78.83,78.83,0,0,1,1,8.69Zm111.56,61a51.2,51.2,0,0,1-15.68,5.49,61.52,61.52,0,0,1-11.06,1c-15.38,0-39.68-5.32-64.59-31.73-2.45,2.19-4.89,4.51-7.18,6.89-8.56,9.32-17.62,19.55-18.42,32.69-2.73,29.42,3.4,82.75,44.47,73.27,16.11-5.45,15.13-26.64,14-41.41a57.33,57.33,0,0,1-37.53-13.1,1.81,1.81,0,0,1,2.37-2.73A52.44,52.44,0,0,0,492,752.06c.15-.06.26-.16.41-.21,21.42-7,43.61-17.86,54.69-38.29C547.33,713.15,547.53,712.73,547.73,712.32Zm2-85.31a150.16,150.16,0,0,1-17.93,5.88c-1.65,1.54-3.36,3-5.2,4.45a2.44,2.44,0,0,1-3.8-2.42,149.38,149.38,0,0,1-76.26-5.08l7.19,25.76q13-1.12,25.82-3.5a2.41,2.41,0,0,1,1.29,4.64,148.11,148.11,0,0,1-25,6.47l4.62,16.58a4.82,4.82,0,0,1,.16,1.2c30.2,32.76,59,31.73,70.13,29.7,9.79-1.78,17.94-6.36,22.26-12.14C559.14,676.31,556,650.77,549.71,627Zm66.22-69.65c-9-6.43-6.54-19.3-5.64-23.86,2-9.93,5.51-17.17,10.62-21.65-6.11-5-8.64-11.18-7.52-18.54-14.54,1.51-27.91-12.31-27.94-27,.14-24.18,26.6-29.85,39.39-14.19a47.24,47.24,0,0,1,4.93-1.22,140.88,140.88,0,0,0-61.25-82.61c-3.12-2-6.37-3.81-9.64-5.5A142.05,142.05,0,0,0,502,347.21l-.63,0c-1.22-.07-2.43-.12-3.66-.15s-2.47,0-3.73,0-2.37,0-3.55,0c-2.28.05-4.56.18-6.82.34a42.45,42.45,0,0,1,21.06,9.23,25.58,25.58,0,0,1,8.15,13.26,1.09,1.09,0,0,1-2,.69c-8.67-17.57-32-19.49-48.95-14.64-16.45,4.58-36.32,18.75-32.57,38a1.35,1.35,0,0,1-2.54.84,23.53,23.53,0,0,1-1-15.72c2.88-9.32,9.24-16.94,17.35-22.44l-1.69.64a141.56,141.56,0,0,0-15.53,7.43c-1.1.61-2.18,1.22-3.28,1.88-.64.38-1.27.76-1.92,1.17a141,141,0,0,0-67,121.11,27.9,27.9,0,0,0,3.65,2.83,39.32,39.32,0,0,1,9.68-7.75c6.94-4.36,17.56-5.45,25-2-7.14-7.42-16.76-11.27-23.94-1a1.34,1.34,0,0,1-2.36-1.26,15.45,15.45,0,0,1,15.43-9.75c21.14,2.72,33.51,31.19,29.52,50.52,1.71-.07,3.44-.08,5.17,0a47.29,47.29,0,0,0-2.27-28.62,1.37,1.37,0,0,1,2.21-1.51,29.07,29.07,0,0,1,7.5,14.49,39.79,39.79,0,0,1-.16,16.58,20.61,20.61,0,0,1,5.62,2.32c12.07,7.35,11,25.14,2,34.56.66,10.59-1.31,21-8.21,29.75a34.2,34.2,0,0,1-15.62,9.6A141.26,141.26,0,0,0,515,626.47a54,54,0,0,1-26.81-8.67,32.29,32.29,0,0,1-12-15.3,1.08,1.08,0,0,1,2-.89c5.89,10.69,17.48,16.23,29.15,17.82,23.4,2.93,48.52-6.72,63.54-25,7.37-9.09,11.87-21.07,7.69-32.59a1.35,1.35,0,0,1,2.45-1.09c6.68,11.88,2.58,27.07-5.14,37.45a61.1,61.1,0,0,1-7.58,8.62A140.26,140.26,0,0,0,615.93,557.36Zm30.27-65.79a9.59,9.59,0,0,0-4.54-4.24,48.87,48.87,0,0,1-10,3.22,4.71,4.71,0,0,1-5.15-2.55,10,10,0,0,0-3.53,6.77c-1,6.38,3.31,9.65,8.09,12.23,1.42.77,3.19,1.72,3.67,4.09.19,1,.49,4.29-3.83,5.89-5.36,2-9.09,8.15-11.1,18.38-2.2,11.17.31,13.81,3.35,15,1.93.76,8.74.44,12.64-3.6,6.14-6.37,8.82-17.22,8-32.23a4.81,4.81,0,0,1,.45-2.33C645.84,508.65,649.44,498,646.2,491.57Z"/><path class="cls-5" d="M280,245.54s48.87,102.39,176.7,94.72c0,0,87.89-4.23,137.2-73.32,0,0-11.74,45.52-55.08,77.39,0,0-74.84-28.42-144.9,31.61,0,0-55.59-9-101.38-65.2C292.51,310.74,290.91,272.52,280,245.54Z"/><path class="cls-6" d="M456.48,79.26c39,.86,68.37,27.16,86.34,49.37a199.7,199.7,0,0,1,14,19.68s0,0,0,0c.36.63.7,1.25,1,1.89q2.19,4.14,4,8.2c12.11,27.39,10.36,51.8-.7,77.57,0,0-.74-18.12-15.61-50.86a163.77,163.77,0,0,0-22.88-37.62c-9.05-11.24-22.55-26.27-36.14-31.42l-.2-.07C421.76,91.65,342.09,130,342.09,130,337.8,127.78,383.62,77.66,456.48,79.26ZM314.79,208c-14,2.32-23.23,17.23-20.62,33.32s16.08,27.26,30.08,25S347.49,249,344.87,232.9,328.79,205.64,314.79,208Zm12.41,69.91c-5.84.47-10.16,6.3-9.66,13s5.66,11.78,11.49,11.31,10.17-6.3,9.66-13S333,277.39,327.2,277.86Z"/></svg>