<svg width="1614" height="994" viewBox="0 0 1614 994" fill="none" xmlns="http://www.w3.org/2000/svg">
<path d="M435.417 286.054L365.643 275.253L317.194 326.612C315.008 328.932 312.216 330.595 309.135 331.412C306.053 332.229 302.805 332.168 299.756 331.236C296.708 330.304 293.98 328.538 291.883 326.137C289.785 323.737 288.4 320.797 287.885 317.651L276.601 247.958L212.797 217.717C209.917 216.351 207.476 214.207 205.75 211.527C204.025 208.846 203.083 205.737 203.032 202.55C202.98 199.362 203.821 196.224 205.459 193.49C207.097 190.755 209.468 188.533 212.302 187.075L247.903 168.786L275.083 154.81L284.113 84.7711C284.518 81.6096 285.801 78.6247 287.814 76.154C289.828 73.6832 292.493 71.8252 295.507 70.79C298.522 69.7548 301.766 69.5837 304.873 70.2962C307.98 71.0086 310.825 72.5761 313.088 74.8214L363.193 124.581L432.599 111.503C435.731 110.914 438.965 111.213 441.937 112.366C444.908 113.519 447.497 115.48 449.412 118.028C451.326 120.576 452.49 123.608 452.771 126.783C453.052 129.957 452.44 133.147 451.003 135.992L419.164 199.026L446.977 249.867L453.05 260.967C454.581 263.767 455.297 266.94 455.118 270.126C454.939 273.312 453.871 276.384 452.036 278.995C450.201 281.605 447.672 283.65 444.735 284.898C441.798 286.145 438.57 286.546 435.417 286.054Z" fill="#FFDA22"/>
<path d="M304.817 338.137C302.478 338.135 300.152 337.786 297.916 337.102C293.766 335.841 290.056 333.437 287.208 330.166C284.36 326.896 282.49 322.889 281.812 318.606L271.057 252.087L210.151 223.331C206.233 221.477 202.912 218.564 200.564 214.921C198.215 211.278 196.933 207.05 196.863 202.716C196.792 198.382 197.936 194.115 200.164 190.398C202.393 186.68 205.617 183.66 209.473 181.68L269.401 150.865L277.993 84.0349C278.54 79.7324 280.28 75.6687 283.016 72.3038C285.752 68.9388 289.376 66.4069 293.477 64.9946C297.577 63.5822 301.991 63.3457 306.219 64.312C310.448 65.2782 314.321 67.4085 317.401 70.4619L365.217 117.944L431.426 105.464C435.693 104.653 440.102 105.055 444.152 106.624C448.202 108.193 451.731 110.867 454.338 114.341C456.945 117.815 458.525 121.951 458.899 126.278C459.274 130.606 458.427 134.951 456.455 138.821L426.088 198.968L458.41 258.08C460.49 261.882 461.464 266.189 461.222 270.516C460.981 274.843 459.534 279.016 457.044 282.563C454.555 286.11 451.123 288.89 447.137 290.588C443.15 292.286 438.768 292.835 434.485 292.173L367.897 281.821L321.657 330.833C319.502 333.141 316.894 334.981 313.997 336.237C311.1 337.494 307.975 338.141 304.817 338.137ZM301.125 75.9831C299.883 75.9819 298.65 76.1919 297.479 76.6042C295.536 77.2466 293.817 78.4297 292.523 80.0149C291.229 81.6 290.415 83.5213 290.174 85.5532L280.754 158.79L215.097 192.55C213.299 193.489 211.796 194.91 210.759 196.655C209.722 198.399 209.19 200.397 209.224 202.426C209.257 204.455 209.854 206.435 210.948 208.144C212.043 209.853 213.591 211.224 215.419 212.104L282.134 243.701L293.947 316.582C294.274 318.597 295.158 320.481 296.5 322.02C297.841 323.559 299.587 324.692 301.539 325.291C303.491 325.889 305.572 325.929 307.546 325.407C309.52 324.884 311.308 323.819 312.708 322.333L363.377 268.627L436.349 279.911C438.372 280.23 440.445 279.974 442.33 279.173C444.215 278.372 445.837 277.057 447.012 275.379C448.187 273.701 448.867 271.726 448.975 269.681C449.082 267.635 448.613 265.6 447.621 263.808L412.205 199.175L445.493 133.266C446.435 131.441 446.844 129.389 446.674 127.342C446.504 125.296 445.761 123.339 444.531 121.695C443.301 120.051 441.634 118.787 439.719 118.046C437.804 117.306 435.719 117.119 433.703 117.507L361.18 131.207L308.74 79.1808C307.744 78.1723 306.558 77.3706 305.251 76.8219C303.945 76.2731 302.542 75.988 301.125 75.9831Z" fill="#371A45"/>
<path d="M796.769 749.594C796.535 747.526 795.886 745.527 794.859 743.716C793.846 741.965 792.529 740.407 790.972 739.115C789.547 737.934 788.005 736.901 786.371 736.033C783.417 734.496 780.338 733.211 777.169 732.191C774.109 731.167 771.072 730.304 768.036 729.488C761.974 727.843 755.958 726.371 749.977 724.887C743.995 723.403 737.876 721.85 732.458 719.975C726.898 717.897 721.545 715.302 716.47 712.223C706.156 705.896 696.584 698.434 687.932 689.977C685.838 687.987 683.791 685.939 681.767 683.869C681.767 681.016 681.847 678.175 681.767 675.391C681.682 665.567 680.863 655.762 679.317 646.06C690.658 645.715 704.197 640.654 718.425 628.507L718.609 628.346C729.594 617.752 735.449 607.193 737.565 597.703C743.11 585.212 743.478 573.479 740.372 563.851C750.928 546.718 758.693 528.015 763.377 508.444L763.446 508.11C771.59 456.671 761.571 410.488 734.494 374.566C710.465 342.715 674.416 320.872 632.973 313.05C626.42 311.828 619.803 310.975 613.154 310.497L612.832 310.393L612.153 310.255C584.962 307.423 557.517 312.168 532.855 323.966C526.758 326.655 520.837 329.729 515.129 333.168C492.993 346.544 474.548 365.238 461.47 387.552C458.202 392.808 455.267 398.263 452.682 403.886C450.242 408.933 448.069 414.105 446.172 419.38C445.47 417.252 444.699 415.124 443.814 412.996C443.17 411.454 442.514 409.832 441.812 408.13C432.024 384.182 422.891 364.121 410.146 361.326C403.371 359.831 393.973 363.822 390.81 372.139C389.154 377.094 388.41 382.308 388.613 387.529C383.379 383.572 376.259 379.477 369.231 379.259C366.85 379.206 364.485 379.67 362.3 380.618C360.114 381.566 358.16 382.976 356.571 384.751C354.982 386.525 353.796 388.623 353.094 390.9C352.393 393.176 352.192 395.578 352.507 397.939C349.831 397.986 347.216 398.74 344.926 400.124C343.051 401.169 341.407 402.583 340.094 404.281C338.781 405.98 337.827 407.927 337.289 410.005C335.368 418.264 340.935 427.178 345.847 435.058C348.699 439.659 351.598 444.34 351.839 447.078C356.44 514.862 387.405 560.654 412.515 587.144C419.911 594.944 427.844 602.216 436.257 608.907C434.255 613.922 432.445 618.883 430.827 623.791L428.055 624.113C427.048 624.238 426.123 624.731 425.458 625.498C424.793 626.265 424.436 627.251 424.455 628.266C423.949 629.179 423.647 630.192 423.569 631.233L423.443 632.878C422.741 642.241 421.648 656.861 421.326 670.71C421.326 671.078 421.326 671.435 421.269 671.86L421.096 672.516C420.048 676.738 420.012 681.148 420.993 685.387C420.96 702.517 424.312 719.485 430.856 735.316C437.399 751.147 447.006 765.53 459.124 777.637C472.167 821.991 492.642 845.502 509.148 857.741C526.195 870.394 541.769 873.569 548.878 874.385C549.602 887.038 554.123 926.25 582.477 930.126C584.154 930.357 585.845 930.476 587.538 930.483C591.64 930.507 595.705 929.714 599.497 928.15C603.289 926.586 606.731 924.282 609.623 921.373C620.113 911.251 625.565 894.055 628.337 878.526C650.02 873.925 668.596 863.055 677.097 857.511C679.512 864.355 684.757 875.558 694.419 881.287C698.392 883.664 702.937 884.913 707.567 884.899C710.536 884.877 713.487 884.436 716.332 883.587C733.137 878.699 742.327 859.558 742.914 828.214C743.039 819.586 741.876 810.987 739.463 802.701C741.591 802.77 743.719 802.793 745.87 802.701C750.704 802.733 755.518 802.078 760.168 800.758C762.832 799.851 765.26 798.362 767.276 796.398C768.243 795.475 769.128 794.471 769.922 793.396C770.313 792.867 770.693 792.326 771.072 791.763H771.233C771.923 791.544 772.602 791.325 773.258 791.049C774.612 790.503 775.904 789.813 777.111 788.99C779.672 787.282 781.704 784.891 782.977 782.089C784.154 779.387 784.704 776.453 784.588 773.508C784.554 772.13 784.408 770.756 784.151 769.402C784.157 769.352 784.157 769.302 784.151 769.252C784.576 769.045 785.013 768.873 785.427 768.642C787.059 767.814 788.601 766.82 790.028 765.675C791.543 764.467 792.886 763.058 794.02 761.488C794.6 760.648 795.104 759.759 795.527 758.831L796.136 757.393C796.297 756.898 796.412 756.381 796.55 755.875C796.812 754.867 796.955 753.833 796.976 752.792C797.023 751.722 796.953 750.65 796.769 749.594ZM653.344 781.123C650.817 781.111 648.325 780.533 646.051 779.432C649.984 778.275 653.73 776.559 657.174 774.336C659.187 775.751 661.189 777.189 663.224 778.581C660.149 780.122 656.781 780.988 653.344 781.123Z" fill="white"/>
<path d="M449.749 680.084C447.736 688.665 443.48 695.038 440.225 694.244C439.236 694.014 427.388 690.011 427.388 690.011C423.523 688.401 421.913 681.005 423.811 672.872C425.824 664.291 430.954 658.149 435.313 659.161C435.637 659.244 435.949 659.364 436.245 659.518C438.373 660.254 445.447 662.704 447.494 663.176C450.692 663.935 451.716 671.504 449.749 680.084Z" fill="#22A7F0"/>
<path d="M796.769 749.594C796.535 747.526 795.886 745.527 794.859 743.716C793.846 741.965 792.529 740.407 790.972 739.115C789.547 737.934 788.005 736.901 786.371 736.033C783.417 734.496 780.338 733.211 777.169 732.191C774.109 731.167 771.072 730.304 768.036 729.488C761.974 727.843 755.958 726.371 749.977 724.887C743.995 723.403 737.876 721.85 732.458 719.975C726.898 717.897 721.545 715.302 716.47 712.223C706.156 705.896 696.584 698.434 687.932 689.977C685.838 687.987 683.791 685.939 681.767 683.869C681.767 681.016 681.847 678.175 681.767 675.391C681.682 665.567 680.863 655.762 679.317 646.06C690.658 645.715 704.197 640.654 718.425 628.507L718.609 628.346C729.594 617.752 735.449 607.193 737.565 597.703C743.11 585.212 743.478 573.479 740.372 563.851C750.928 546.718 758.693 528.015 763.377 508.444L763.446 508.11C771.59 456.671 761.571 410.488 734.494 374.566C710.465 342.715 674.416 320.872 632.973 313.05C626.42 311.828 619.803 310.975 613.154 310.497L612.832 310.393L612.153 310.255C584.962 307.423 557.517 312.168 532.855 323.966C526.758 326.655 520.837 329.729 515.129 333.168C492.993 346.544 474.548 365.238 461.47 387.552C458.202 392.808 455.267 398.263 452.682 403.886C450.242 408.933 448.069 414.105 446.172 419.38C445.47 417.252 444.699 415.124 443.814 412.996C443.17 411.454 442.514 409.832 441.812 408.13C432.024 384.182 422.891 364.121 410.146 361.326C403.371 359.831 393.973 363.822 390.81 372.139C389.154 377.094 388.41 382.308 388.613 387.529C383.379 383.572 376.259 379.477 369.231 379.259C366.85 379.206 364.485 379.67 362.3 380.618C360.114 381.566 358.16 382.976 356.571 384.751C354.982 386.525 353.796 388.623 353.094 390.9C352.393 393.176 352.192 395.578 352.507 397.939C349.831 397.986 347.216 398.74 344.926 400.124C343.051 401.169 341.407 402.583 340.094 404.281C338.781 405.98 337.827 407.927 337.289 410.005C335.368 418.264 340.935 427.178 345.847 435.058C348.699 439.659 351.598 444.34 351.839 447.078C356.44 514.862 387.405 560.654 412.515 587.144C419.911 594.944 427.844 602.216 436.257 608.907C434.255 613.922 432.445 618.883 430.827 623.791L428.055 624.113C427.048 624.238 426.123 624.731 425.458 625.498C424.793 626.265 424.436 627.251 424.455 628.266C423.949 629.179 423.647 630.192 423.569 631.233L423.443 632.878C422.741 642.241 421.648 656.861 421.326 670.71C421.326 671.078 421.326 671.435 421.269 671.86L421.096 672.516C420.048 676.738 420.012 681.148 420.993 685.387C420.96 702.517 424.312 719.485 430.856 735.316C437.399 751.147 447.006 765.53 459.124 777.637C472.167 821.991 492.642 845.502 509.148 857.741C526.195 870.394 541.769 873.569 548.878 874.385C549.602 887.038 554.123 926.25 582.477 930.126C584.154 930.357 585.845 930.476 587.538 930.483C591.64 930.507 595.705 929.714 599.497 928.15C603.289 926.586 606.731 924.282 609.623 921.373C620.113 911.251 625.565 894.055 628.337 878.526C650.02 873.925 668.596 863.055 677.097 857.511C679.512 864.355 684.757 875.558 694.419 881.287C698.392 883.664 702.937 884.913 707.567 884.899C710.536 884.877 713.487 884.436 716.332 883.587C733.137 878.699 742.327 859.558 742.914 828.214C743.039 819.586 741.876 810.987 739.463 802.701C741.591 802.77 743.719 802.793 745.87 802.701C750.704 802.733 755.518 802.078 760.168 800.758C762.832 799.851 765.26 798.362 767.276 796.398C768.243 795.475 769.128 794.471 769.922 793.396C770.313 792.867 770.693 792.326 771.072 791.763H771.233C771.923 791.544 772.602 791.325 773.258 791.049C774.612 790.503 775.904 789.813 777.111 788.99C779.672 787.282 781.704 784.891 782.977 782.089C784.154 779.387 784.704 776.453 784.588 773.508C784.554 772.13 784.408 770.756 784.151 769.402C784.157 769.352 784.157 769.302 784.151 769.252C784.576 769.045 785.013 768.873 785.427 768.642C787.059 767.814 788.601 766.82 790.028 765.675C791.543 764.467 792.886 763.058 794.02 761.488C794.6 760.648 795.104 759.759 795.527 758.831L796.136 757.393C796.297 756.898 796.412 756.381 796.55 755.875C796.812 754.867 796.955 753.833 796.976 752.792C797.023 751.722 796.953 750.65 796.769 749.594ZM705.105 397.881C725.407 437.197 729.18 481.792 715.457 520.165C713.13 526.21 710.441 532.11 707.406 537.833C704.35 537.496 701.27 537.434 698.204 537.649C712.087 512.769 717.47 483.219 713.767 451.184V450.931C706.071 407.693 686.276 372.852 656.53 350.18C629.718 329.775 596.115 320.4 562.612 323.978C558.816 324.369 555.066 324.932 551.351 325.634C570.863 319.551 591.337 317.152 611.728 318.56C650.882 329.947 684.884 358.796 705.105 397.881ZM452.751 523.454C467.279 550.106 487.04 571.109 511.103 585.12C541.306 602.729 577.01 608.384 611.176 600.97C618.167 599.447 625.028 597.378 631.696 594.782C630.975 597.984 630.589 601.253 630.546 604.536C602.626 614.384 572.385 615.587 543.771 607.987C509.114 598.635 473.019 574.123 455.684 532.254C454.603 529.378 453.648 526.434 452.751 523.454ZM541.597 615.946C554.843 619.519 568.504 621.326 582.224 621.318C598.922 621.336 615.51 618.616 631.328 613.266C632.292 618.104 634.191 622.707 636.918 626.816C597.275 635.211 555.928 628.743 520.743 608.642C527.504 611.588 534.475 614.029 541.597 615.946ZM643.233 633.971C649.27 639.109 656.68 642.368 664.547 643.345C666.566 644.198 668.666 644.842 670.816 645.266C672.555 655.068 673.463 665 673.531 674.954C669.988 671.013 666.537 666.987 663.178 662.877C655.656 653.675 648.49 644.174 641.772 634.339L643.233 633.971ZM712.984 622.215C689.979 641.77 669.988 640.619 661.096 631.21C652.918 622.572 652.884 605.272 671.173 586.051C693.603 565.232 715.227 564.783 725.005 575.101C733.459 584.027 733.286 602.557 712.984 622.215ZM665.467 580.093L665.283 580.254C647.593 598.796 644.751 616.533 649.893 628.772C648.789 627.912 647.75 626.97 646.787 625.954C635.285 613.83 634.135 590.652 657.496 566.14C685.171 540.685 712.984 541.433 726.178 555.34C730.638 560.207 733.343 566.426 733.862 573.007C733.016 571.717 732.058 570.504 730.997 569.384C718.402 556.133 691.854 555.535 665.467 580.093ZM755.337 506.477C751.272 523.406 744.824 539.672 736.185 554.787C734.998 552.944 733.646 551.212 732.148 549.611C727.62 544.956 721.984 541.528 715.768 539.65C718.539 534.256 721.023 528.72 723.21 523.063C737.692 482.459 733.758 435.46 712.409 394.132C697.122 364.535 674.255 340.553 647.213 324.932C712.823 344.245 771.118 406.336 755.337 506.534V506.477ZM352.875 430.526C348.814 424.027 344.213 416.653 345.352 411.742C345.655 410.728 346.159 409.785 346.835 408.971C347.511 408.156 348.345 407.487 349.286 407.003C351.342 405.937 353.735 405.727 355.946 406.416C358.557 410.857 361.718 414.95 365.355 418.597C368.952 422.126 371.989 426.184 374.361 430.629C374.701 431.316 375.225 431.896 375.875 432.302C376.525 432.708 377.276 432.926 378.042 432.93C378.694 432.933 379.337 432.779 379.917 432.481C380.401 432.235 380.831 431.896 381.183 431.484C381.536 431.071 381.804 430.593 381.971 430.077C382.139 429.561 382.203 429.017 382.161 428.477C382.118 427.936 381.969 427.409 381.723 426.925C379.002 421.782 375.511 417.084 371.371 412.996C367.822 409.504 364.806 405.508 362.422 401.137C362.371 401.04 362.313 400.948 362.249 400.86C362.249 400.86 362.249 400.78 362.192 400.745C361.778 400.113 358.269 394.419 363.215 389.646C363.974 388.885 364.884 388.293 365.887 387.908C366.89 387.523 367.963 387.355 369.036 387.414C376.374 387.587 385.691 395.316 389.74 399.262C391.045 406.827 392.922 414.283 395.354 421.565C395.617 422.402 396.141 423.133 396.848 423.652C397.556 424.171 398.41 424.451 399.287 424.452C399.708 424.453 400.127 424.391 400.53 424.268C401.573 423.938 402.442 423.208 402.949 422.238C403.455 421.268 403.557 420.137 403.233 419.092C398.459 403.92 397.792 397.145 397.769 397.007C397.776 396.923 397.776 396.838 397.769 396.754C397.775 396.716 397.775 396.677 397.769 396.639C397.113 392.958 395.998 381.904 398.632 374.968C399.447 373.091 400.844 371.525 402.617 370.502C404.39 369.479 406.444 369.053 408.478 369.286C413.528 370.436 418.761 377.913 423.431 386.931C422.923 386.58 422.388 386.269 421.832 385.999L421.2 385.7C420.877 385.576 420.546 385.473 420.211 385.39C419.64 385.24 419.052 385.17 418.462 385.183C418.005 385.159 417.547 385.178 417.093 385.24C416.707 385.281 416.323 385.342 415.943 385.424C415.205 385.566 414.478 385.762 413.769 386.011C412.403 386.463 411.094 387.073 409.87 387.828C409.23 388.2 408.623 388.623 408.052 389.093C406.789 390.02 405.683 391.142 404.774 392.418C404.337 393.121 403.953 393.855 403.624 394.615C402.971 396.192 402.653 397.888 402.692 399.595C402.681 400.411 402.765 401.226 402.945 402.022C403.081 402.755 403.265 403.477 403.497 404.185C403.877 405.335 404.314 406.566 404.809 407.728C405.781 409.991 406.935 412.172 408.259 414.249C408.765 415.066 409.272 415.825 409.674 416.469L409.134 417.01C408.328 417.815 407.477 418.747 406.661 419.679C404.931 421.596 403.507 423.769 402.439 426.12C401.377 428.514 400.798 431.094 400.737 433.712C400.737 434.356 400.737 435 400.817 435.621C400.885 436.251 400.989 436.877 401.128 437.496L401.312 438.405L401.622 439.302C401.829 439.889 402.06 440.452 402.313 441.016C402.354 441.106 402.413 441.187 402.486 441.254C402.559 441.321 402.645 441.373 402.738 441.407C402.921 441.47 403.122 441.458 403.296 441.374C403.47 441.29 403.605 441.141 403.67 440.958V440.901C404.33 438.822 405.118 436.786 406.028 434.804C406.88 433.06 407.889 431.397 409.042 429.835C410.194 428.295 411.471 426.853 412.86 425.522C413.597 424.832 414.356 424.176 415.161 423.451L416.472 422.301C416.748 422.025 416.955 421.864 417.289 421.496C417.743 421.026 418.13 420.496 418.439 419.92C418.886 419.077 419.145 418.147 419.198 417.194C419.219 416.447 419.122 415.702 418.911 414.986C418.775 414.474 418.59 413.977 418.359 413.502C418.152 413.03 417.991 412.8 417.806 412.432C417.082 411.201 416.484 410.281 415.874 409.372C414.739 407.694 413.717 405.941 412.814 404.127C410.859 399.86 410.514 398.445 412.331 396.271C413.411 395.149 414.762 394.325 416.254 393.878C416.804 393.681 417.383 393.576 417.967 393.568C418.06 393.568 418.474 393.924 418.784 394.143C420.298 395.397 421.71 396.771 423.006 398.249C424.363 399.768 425.663 401.378 426.916 403.011C429.422 406.299 431.649 409.788 433.576 413.444C435.589 417.279 437.252 421.286 438.546 425.418C438.578 425.518 438.632 425.61 438.705 425.686C438.777 425.763 438.865 425.822 438.963 425.861C439.06 425.899 439.165 425.916 439.27 425.909C439.375 425.902 439.477 425.872 439.569 425.821C440.386 428.766 441.019 431.699 441.548 434.643C440.789 437.807 440.098 440.97 439.558 444.133V444.329C439.563 444.355 439.563 444.383 439.558 444.409C437.342 457.954 436.57 471.696 437.257 485.404V486.244V486.83L437.349 487.106C437.993 498.329 439.836 509.45 442.847 520.28C439.593 524.093 436.035 527.636 432.208 530.874C416.955 543.687 401.933 546.552 387.635 539.454C371.581 510.89 362.187 479.068 360.156 446.365C359.765 441.568 356.417 436.208 352.875 430.526ZM418.531 581.312C409.075 571.316 400.601 560.434 393.226 548.818C396.415 549.643 399.696 550.064 402.991 550.071C420.395 550.071 435.279 538.419 445.263 527.733C446.643 531.729 448.177 535.624 449.864 539.42C449.979 539.708 450.106 539.972 450.221 540.26C450.254 540.346 450.293 540.431 450.336 540.513C453.197 547.419 456.557 554.108 460.389 560.527C452.609 573.493 445.659 586.94 439.581 600.786C432.151 594.756 425.12 588.251 418.531 581.312ZM465.369 568.406C466.968 570.764 468.648 573.076 470.385 575.308C494.356 606.514 529.956 627.944 570.629 635.65C581.43 637.692 592.397 638.724 603.388 638.733C613.237 638.731 623.066 637.873 632.766 636.168C633.226 636.846 633.697 637.514 634.169 638.181C648.168 658.034 663.19 677.289 680.789 694.428C668.815 701.088 639.805 720.148 639.598 748.409L637.355 746.109L632.881 741.404C627.204 734.903 621.933 728.058 617.099 720.907C612.153 713.833 607.552 706.736 601.927 699.673C601.731 699.434 601.463 699.264 601.162 699.191C600.862 699.117 600.545 699.144 600.261 699.266C599.977 699.388 599.74 699.599 599.586 699.868C599.432 700.136 599.37 700.447 599.408 700.754C600.651 709.393 604.47 717.203 608.944 724.438C576.472 731.098 539.48 710.635 529.956 704.884C530.761 701.157 531.601 697.603 532.395 694.29C532.889 692.22 533.372 690.23 533.809 688.32C534.81 683.974 534.336 679.419 532.462 675.372C530.587 671.326 527.419 668.018 523.457 665.971C485.395 646.325 450.014 622.79 449.657 622.549C448.848 622.009 447.873 621.776 446.908 621.893L439.937 622.721C446.665 603.847 455.181 585.66 465.369 568.406ZM653.344 781.123C650.817 781.111 648.325 780.533 646.051 779.432C649.984 778.275 653.73 776.559 657.174 774.336C659.187 775.751 661.189 777.189 663.224 778.581C660.149 780.122 656.781 780.988 653.344 781.123ZM638.114 773.071C634.526 768.414 631.76 763.178 629.936 757.588C630.12 756.645 630.385 755.092 630.649 753.149C631.029 752.815 631.362 752.481 631.719 752.148L633.697 754.218L636.147 756.519C637.781 758.06 639.38 759.647 641.036 761.12L646.143 765.56C647.42 766.71 648.754 767.791 650.112 768.85C646.331 770.789 642.302 772.202 638.137 773.048L638.114 773.071ZM442.111 677.174C443.174 673.035 443.276 668.707 442.41 664.522C444.216 665.108 445.861 665.672 446.701 665.81C447.564 666.385 448.932 671.308 447.023 679.475C445.113 687.642 441.697 691.483 440.823 691.587C440.42 691.483 438.338 690.805 435.624 689.908C438.932 686.339 441.185 681.923 442.134 677.151L442.111 677.174ZM434.267 661.807H434.612C436.728 662.302 438.626 668.041 436.797 675.898C434.968 683.754 430.712 688.067 428.607 687.561C426.502 687.055 424.581 681.338 426.422 673.482C428.182 666.04 432.081 661.784 434.29 661.784L434.267 661.807ZM430.126 693.784C434.037 695.095 438.833 696.683 439.569 696.855C439.969 696.946 440.378 696.992 440.789 696.993C446.114 696.993 450.462 688.803 452.372 680.66C453.38 676.616 453.676 672.428 453.246 668.283C452.452 662.348 449.657 660.841 448.058 660.461C446.459 660.082 440.225 657.977 437.223 656.941C436.079 656.396 434.811 656.166 433.549 656.275C432.288 656.384 431.078 656.829 430.045 657.563C430.505 648.579 431.115 640.125 431.563 634.212C439.707 643.207 454.81 657.424 478.597 671.135L473.824 698.005L464.127 699.535C463.513 699.631 462.949 699.935 462.531 700.395C462.112 700.855 461.864 701.445 461.827 702.066L460.239 727.371C445.286 717.491 433.358 707.104 431.287 700.145C430.719 698.062 430.33 695.934 430.126 693.784ZM467.106 704.516L476.573 703.124C477.142 703.041 477.671 702.781 478.084 702.38C478.497 701.98 478.773 701.459 478.873 700.893L483.658 673.965C488.259 676.45 493.045 678.911 498.209 681.304C499.492 681.898 500.547 682.891 501.217 684.136C501.887 685.38 502.135 686.808 501.924 688.205C499.255 705.573 497.909 723.119 497.899 740.691C497.926 741.436 497.757 742.175 497.408 742.834C497.058 743.492 496.541 744.047 495.909 744.441C495.105 744.923 494.192 745.191 493.255 745.22C492.319 745.248 491.391 745.035 490.56 744.602C481.958 740.412 473.587 735.762 465.484 730.673L467.106 704.516ZM501.614 673.873C469.602 659.046 449.853 641.77 439.558 630.808L446.321 630.002C453.016 634.408 485.234 655.308 519.638 673.045C521.982 674.263 523.852 676.227 524.956 678.626C526.06 681.025 526.334 683.724 525.735 686.296C525.309 688.182 524.838 690.149 524.354 692.185C523.526 695.636 522.664 699.294 521.824 703.159C518.701 703.934 515.833 705.509 513.502 707.727C511.171 709.945 509.457 712.731 508.527 715.811C505.996 724.174 509.344 733.525 517.591 742.267V742.348C517.66 745.327 516.797 748.329 515.601 749.33C515.405 749.502 515.072 749.767 514.071 749.571C512.173 749.18 508.251 748.329 504.133 747.42C505.417 745.379 506.084 743.011 506.054 740.599C506.064 723.462 507.379 706.35 509.988 689.413C510.441 686.276 509.874 683.077 508.37 680.288C506.866 677.498 504.506 675.265 501.637 673.919L501.614 673.873ZM516.464 718.307C517.028 716.505 518.059 714.885 519.454 713.612C520.848 712.339 522.555 711.459 524.4 711.061C531.486 715.524 562.83 734.066 595.199 734.066C601.534 734.109 607.848 733.328 613.982 731.742C615.224 733.422 616.605 734.998 617.904 736.631L620.044 739.254C620.769 740.128 621.539 740.944 622.344 741.796L626.163 746.166C625.864 746.454 625.565 746.73 625.243 747.006C599.42 768.228 559.023 761.959 534.109 745.384C520.823 736.516 514.071 726.152 516.464 718.307ZM433.197 716.501C448.058 731.248 475.032 746.224 486.994 752.021C488.729 752.857 490.615 753.335 492.538 753.425C498.819 754.793 509.378 757.048 512.449 757.681C513.206 757.837 513.977 757.918 514.75 757.922C516.984 757.94 519.151 757.157 520.858 755.714C522.857 753.905 524.275 751.543 524.93 748.927C526.367 750.077 527.863 751.147 529.473 752.217C545.729 762.946 564.737 768.754 584.214 768.942C597.385 769.142 610.371 765.831 621.838 759.348C627.072 775.13 635.825 785.333 646.442 788.415C644.521 803.679 634.94 862.112 600.432 871.912C596.6 871.472 592.82 870.655 589.148 869.474C555.285 858.408 531.371 815.274 531.129 814.837L530.347 813.399L528.783 812.893C528.07 812.651 456.697 788.737 435.06 723.092C434.393 720.884 433.772 718.698 433.185 716.501H433.197ZM477.355 803.415C475.319 799.021 473.364 794.316 471.512 789.266C487.365 802.497 505.345 812.947 524.688 820.174C526.057 822.474 529.07 827.501 533.487 833.62C527.695 834.364 521.818 834.119 516.107 832.896C496.116 828.49 483.233 812.444 477.355 803.415ZM603.883 915.426C601.272 918.065 598.064 920.035 594.53 921.17C590.996 922.306 587.24 922.572 583.581 921.948C557.528 918.382 556.987 870.98 556.987 870.509V866.368H552.846C552.628 866.368 534.638 866.368 514.083 851.093C506.092 845.063 499.014 837.912 493.068 829.859C499.556 834.48 506.899 837.765 514.669 839.521C518.755 840.429 522.929 840.884 527.115 840.878C530.865 840.866 534.607 840.519 538.295 839.843C549.303 853.727 566.074 870.52 586.675 877.249C593.867 879.58 601.385 880.745 608.944 880.7C612.555 880.696 616.163 880.466 619.745 880.01C617.076 893.295 612.314 907.259 603.883 915.426ZM734.644 828.007C734.356 843.627 731.285 870.566 714.02 875.604C708.199 877.307 703.173 876.824 698.641 874.155C690.083 869.106 685.723 857.615 684.148 852.507C686.306 850.828 688.284 848.927 690.048 846.837C692.369 844.108 694.397 841.143 696.099 837.991C697.831 834.896 699.29 831.655 700.458 828.306C701.641 824.984 702.444 821.538 702.851 818.034C702.863 817.923 702.843 817.81 702.791 817.709C702.74 817.609 702.661 817.526 702.563 817.471C702.497 817.428 702.423 817.399 702.345 817.385C702.267 817.372 702.188 817.373 702.111 817.39C702.034 817.408 701.961 817.44 701.896 817.485C701.832 817.53 701.777 817.588 701.735 817.655C699.941 820.542 698.066 823.406 696.099 826.017C694.132 828.628 692.107 831.274 689.979 833.724C687.851 836.174 685.643 838.497 683.423 840.775C681.203 843.052 678.937 845.203 676.82 847.596C674.681 849.149 646.557 869.152 615.765 871.97C643.601 852.542 651.48 803.817 653.252 789.29H653.344C659.613 789.29 665.525 786.816 671.242 783.653L672.254 784.286L673.749 785.103L679.731 788.358C681.721 789.439 683.848 790.302 685.896 791.291L689.002 792.717C690.06 793.154 691.141 793.534 692.211 793.937C700.717 797.276 709.603 799.556 718.667 800.723C722.612 801.287 726.557 801.735 730.526 802.08C733.337 810.447 734.722 819.227 734.621 828.053L734.644 828.007ZM775.455 778.546C774.825 779.99 773.785 781.218 772.464 782.077C771.741 782.542 770.969 782.928 770.163 783.228C769.761 783.4 769.335 783.538 768.91 783.676L768.277 783.837L767.805 783.941L765.574 784.424L765.344 784.873C764.075 784.851 762.813 784.685 761.583 784.378C759.42 783.849 756.982 783.055 754.336 782.33C751.692 781.602 749.002 781.052 746.284 780.686C743.598 780.306 740.888 780.121 738.175 780.133C738.083 780.134 737.994 780.159 737.915 780.205C737.836 780.252 737.771 780.318 737.726 780.398C737.666 780.517 737.655 780.655 737.696 780.782C737.737 780.91 737.826 781.015 737.945 781.077C742.73 783.527 747.515 785.678 752.013 788.093C754.413 789.48 756.939 790.636 759.558 791.544L759.926 791.636L759.581 791.878C758.914 792.303 758.195 792.639 757.442 792.878C753.586 793.937 749.604 794.471 745.606 794.466C737 794.534 728.403 793.911 719.897 792.602C711.429 791.531 703.126 789.414 695.178 786.299C694.189 785.919 693.177 785.574 692.199 785.149L689.289 783.803C687.357 782.883 685.367 782.077 683.538 781.054L677.879 777.971L676.464 777.2L675.095 776.349L672.358 774.635C668.654 772.438 665.191 769.839 661.649 767.377C659.9 766.112 658.198 764.72 656.53 763.409C654.862 762.098 653.079 760.752 651.515 759.291L647.121 755.472C641.473 725.565 676.107 704.654 686.045 699.305C694.098 706.781 702.875 713.436 712.248 719.17C716.661 721.829 721.276 724.137 726.051 726.072C726.171 726.824 726.497 727.528 726.992 728.106C727.488 728.685 728.133 729.115 728.858 729.35C735.762 731.504 742.476 734.228 748.93 737.494C752.074 739.096 755.099 740.922 757.982 742.957C760.658 744.729 762.995 746.965 764.884 749.56C765.178 750.004 765.407 750.488 765.562 750.998C765.606 751.131 765.629 751.271 765.631 751.412C765.631 751.412 765.631 751.504 765.631 751.504C765.631 751.504 765.631 751.504 765.631 751.653C765.328 752.802 764.743 753.858 763.929 754.724C763.026 755.635 761.933 756.336 760.728 756.778C759.524 757.219 758.237 757.39 756.959 757.278C753.809 757.009 750.753 756.068 747.998 754.517C744.928 752.895 741.945 751.114 739.061 749.18L736.254 747.34L733.816 749.284C732.297 750.503 730.537 751.837 728.835 753.057C727.133 754.276 725.384 755.495 723.613 756.645C721.841 757.796 720.058 758.888 718.207 759.866C716.353 760.856 714.431 761.713 712.455 762.431H712.363C712.117 762.516 711.9 762.67 711.737 762.873C711.574 763.077 711.472 763.322 711.443 763.581C711.386 763.947 711.475 764.32 711.69 764.621C711.905 764.922 712.229 765.127 712.593 765.192C715.017 765.513 717.476 765.435 719.874 764.962L721.646 764.594C722.221 764.456 722.796 764.283 723.371 764.122C724.521 763.8 725.672 763.397 726.753 762.972C728.943 762.109 731.076 761.106 733.137 759.97C734.172 759.417 735.161 758.819 736.162 758.175L736.427 758.003C738.91 759.641 741.522 761.076 744.237 762.293L746.008 763.041C744.007 763.179 742.017 763.363 740.038 763.65C739.931 763.679 739.836 763.743 739.768 763.831C739.7 763.92 739.663 764.028 739.663 764.139C739.663 764.251 739.7 764.359 739.768 764.447C739.836 764.536 739.931 764.599 740.038 764.628C743.294 765.433 746.503 766.089 749.666 766.929C752.829 767.768 755.923 768.596 759.11 769.459C762.475 770.474 765.951 771.08 769.462 771.265C771.696 771.316 773.931 771.15 776.133 770.77C776.302 771.666 776.398 772.574 776.421 773.485C776.483 775.226 776.144 776.957 775.432 778.546H775.455ZM788.683 752.274C788.678 752.783 788.609 753.29 788.475 753.781C788.406 754.023 788.372 754.264 788.291 754.506L787.981 755.208C787.769 755.688 787.511 756.146 787.21 756.576C786.521 757.517 785.709 758.36 784.795 759.084C783.8 759.887 782.724 760.584 781.585 761.166C781.01 761.476 780.435 761.752 779.791 762.017C779.147 762.282 778.503 762.523 778.077 762.65L775.156 763.558C773.223 763.719 771.314 763.88 769.404 763.926C768.07 763.926 766.713 763.926 765.321 763.834C767.051 762.972 768.61 761.803 769.922 760.384C771.672 758.508 772.929 756.228 773.58 753.747C773.689 753.347 773.766 752.939 773.81 752.527C773.844 752.095 773.844 751.66 773.81 751.228C773.782 750.449 773.662 749.677 773.453 748.927C773.086 747.644 772.536 746.419 771.82 745.292C770.605 743.424 769.156 741.719 767.506 740.22C766.158 738.985 764.737 737.833 763.25 736.769L765.839 737.436C768.783 738.241 771.705 739.069 774.523 740.013C777.247 740.88 779.894 741.973 782.437 743.279C784.556 744.279 786.356 745.848 787.636 747.811C788.141 748.702 788.451 749.69 788.545 750.71C788.642 751.225 788.681 751.75 788.66 752.274H788.683Z" fill="#371A45"/>
<path d="M635.043 584.441C626.811 588.145 618.214 590.978 609.393 592.895C553.295 605.03 485.165 581.278 452.027 503.084C447.993 490.383 445.975 477.128 446.045 463.802C448.07 437.899 455.04 415.837 465.335 397.605C470.549 389.077 476.541 381.048 483.233 373.623C464.07 458.925 534.109 572.685 639.391 576.067C637.752 578.755 636.299 581.553 635.043 584.441Z" fill="#21102B"/>
<path d="M663.696 531.598C636.976 549.128 616.536 519.061 637.137 500.012C664.363 477.536 689.002 512.539 663.696 531.598ZM609.059 541.237C598.143 548.944 607.311 561.942 617.928 555.811C628.786 548.139 619.618 535.153 609.013 541.272L609.059 541.237ZM665.203 406.382C653.068 362.362 548.05 293.093 485.246 397.824C541.769 373.093 600.789 358.577 665.157 406.416L665.203 406.382Z" fill="#8C789B"/>
<path d="M677.5 674.722C719.031 674.722 757.954 667.492 798.06 658.157C882.064 638.604 967.642 609.436 1039.71 567.161C1075.45 546.201 1114.28 520.106 1127.6 483.068C1133.09 467.825 1138.08 452.75 1140.27 436.822C1141.07 430.963 1143.76 416.586 1139.74 411.283C1131.58 400.521 1110.82 399.319 1097.59 399.319C1078.48 399.319 1062.65 426.09 1054.25 437.857C1030.26 471.484 1018.38 504.364 1018.38 543.693C1018.38 556.704 1015.06 573.607 1021.31 585.682C1028.83 600.219 1038.63 614.028 1050.78 626.061C1109.53 684.238 1212.69 693.359 1297.37 693.359C1353.85 693.359 1413.26 696.113 1469.14 687.607C1482.7 685.543 1495.85 683.994 1509.15 680.934C1514.51 679.701 1526.15 678.59 1530.09 675.528C1537.48 669.793 1549.39 669.3 1557.96 664.369C1562.11 661.986 1567.19 658.676 1571.97 658.042C1576.72 657.411 1606.68 654.087 1596.91 649.874" stroke="white" stroke-width="30" stroke-linecap="round"/>
</svg>
