<svg id="Layer_1" data-name="Layer 1" xmlns="http://www.w3.org/2000/svg" viewBox="0 0 864 864"><defs><style>.cls-1{fill:#29b8ff;}.cls-2{fill:#2276fc;}.cls-3{fill:#371a45;}.cls-4{fill:#ffb200;}.cls-5{fill:#ffc943;}.cls-6{fill:#ffec90;}.cls-7{fill:#1f9fff;}.cls-8{fill:#fff;}.cls-9{fill:#111a28;}.cls-10{fill:#8c789b;}.cls-11{fill:#d66b09;}</style></defs><title>Artboard 5</title><path class="cls-1" d="M804.48,229.2a103.43,103.43,0,0,0-206.56,0c-.09,1.94-.14,3.73-.14,5.49a103.42,103.42,0,1,0,206.84,0C804.62,233,804.57,231.19,804.48,229.2Z"/><path class="cls-2" d="M627.36,267.71a72.88,72.88,0,0,0-11.89,2.57,92.16,92.16,0,0,1-3.53-10.15c4.4-.85,9.26-1.85,14.45-2.42,8.47-.94,19,4.77,31.1,2.72,14.45-2.46,7.86,1.4.3,3.72C638.93,270,636.44,266.58,627.36,267.71ZM696.09,188c31.77,7.64,52,2.36,70.61-.53a47.29,47.29,0,0,1,14.36-.16,93.09,93.09,0,0,0-15-19c-16.24-3.53-32.65-11.12-51.49-10.92-28,.27-47.46,9-76.68,9.35a92.67,92.67,0,0,0-24.31,37.1c7.28-1,14.53-3.77,22.42-7.87C653.61,186.86,670,181.75,696.09,188Zm42.38,12.78a74.67,74.67,0,0,0,52.29,9.46A94,94,0,0,0,786.9,199a122.68,122.68,0,0,1-22.28,3.38C752.9,203.06,735.63,199.06,738.47,200.8ZM713.72,265c-32.53-5-47.27,18.64-77.42,18.64-1,0-1.94,0-2.91-.05a81.56,81.56,0,0,1-11.94-1.43,93.67,93.67,0,0,0,14.1,18.12c18.58-7.88,38.12-7.27,60,.37,27.54,9.62,34.17-3.66,51.92-5.65a129.86,129.86,0,0,1,24.48-.26,93.72,93.72,0,0,0,12.3-18.6,69.34,69.34,0,0,1-8.41,1.37C747.71,280.33,736,268.42,713.72,265ZM794,234.72a93.46,93.46,0,0,1-1.67,17.5c-12,2.34-26.88,1.43-41.15-1.77-19-4.26-37-11.07-55.11-4.17-32.82,12.48-41.93-4.73-63.37-3.32a71.77,71.77,0,0,0-23.29,5.72,93.25,93.25,0,0,1-1-14c0-1.58,0-3.21.12-5,.17-3.16.5-6.27,1-9.34a84,84,0,0,0,26.83,4.66c30.15,0,44.89-23.69,77.42-18.66,22.23,3.43,36.45,21.48,61.83,21.72a44.92,44.92,0,0,0,17.93-3.45c.18,1.67.33,3.35.41,5.05S794,233.16,794,234.72Zm-59.72-7.8c-8.36-5.93-16.06-11-24.44-11.6-6.74-.51-9.42-.23-23.36,6.64-11.28,5.56-26.61,10.89-19.21,15.65,6.2,4,17.32-5.56,33-5.08,16.77.52,24.29,4.61,31.84,3.89C743.15,235.36,742.67,232.86,734.3,226.92Z"/><path class="cls-3" d="M701.2,338.14A103.54,103.54,0,0,1,597.78,234.72c0-1.76.05-3.55.14-5.49a103.43,103.43,0,0,1,206.56,0c.09,2,.14,3.79.14,5.52A103.54,103.54,0,0,1,701.2,338.14Zm0-196.25a92.78,92.78,0,0,0-92.7,87.87c-.08,1.75-.12,3.38-.12,5a92.82,92.82,0,1,0,185.64,0c0-1.56,0-3.19-.13-5A92.76,92.76,0,0,0,701.2,141.89Z"/><path class="cls-3" d="M720.75,505.14c-11.51-25.46-59.57-30.7-135.43-14.84a202.59,202.59,0,0,0-89.53-69.61c.25-.37.48-.75.72-1.12,23.25-6.15,40.48-17.89,43.66-38.62,6.36-41.39-7.54-117.63-29.92-136-10.74-8.81-29.64-11.29-49.91-9.46.91-2,1.79-3.92,2.61-5.92A33.21,33.21,0,0,0,478.8,220c9.74-6.14,17.27-20.1,15.4-42.14l0-.26c-1.76-12-5.85-20.7-11-26.57-5.47-9.33-12.84-15.05-20.49-17.64a150.44,150.44,0,0,0-24.81-39.84l-.26-.27c-29.34-29-63.68-43.8-99.35-43-31.62.76-62.34,13.9-86.51,37s-39,53.37-41.49,85.16a123.28,123.28,0,0,0,10.26,59.72A121.34,121.34,0,0,0,237,260.4q4.56,6.14,9.86,12.05l.26.26q5.39,5.07,11,9.51A168.17,168.17,0,0,0,273,293.44l.52.35.6.19c.6.2,1.21.36,1.81.55a141.09,141.09,0,0,0,17.66,8.9A115.57,115.57,0,0,1,274,325.11c-11.27-9.56-35.19-28.81-52.47-35.35a4.43,4.43,0,0,0-5.64,2.4l-6.24,14.65a4.41,4.41,0,0,0,1,4.89l.68.68,17,25.14c2.81,34.14,21.71,46.45,32.22,47.66l11.92,17.63a51,51,0,0,0-5.91,11.2c-8.93,23.69.82,49.14,5.19,58.57-7.81,5.19-25.94,18.86-29,35.69-.15.86-.25,1.71-.32,2.55a203.14,203.14,0,0,0-20.82,144c-62,46.49-89.79,86-78.28,111.49,7.15,15.81,28.69,23.79,62,23.79,25.65,0,58.28-4.75,96.66-14.28A203.79,203.79,0,0,0,623.12,630.55C697.83,578.79,733.41,533.13,720.75,505.14Zm-504,203.69c-.1-.22-2.07-5.28,15.46-20.61.8,1.92,1.64,3.84,2.5,5.74,2.58,5.72,5.44,11.34,8.53,16.77C219.4,714,216.84,709.06,216.74,708.83ZM613,543.49c-2-5.9-4.38-11.76-7-17.48q-1.29-2.85-2.67-5.67c23.09-3,25.59,1.78,25.69,2S631.18,527.74,613,543.49Z"/><path class="cls-4" d="M245.05,524.94a33.28,33.28,0,0,0,4.13,6.43c5.67,7,14.89,10.55,26.13,10.55a68.6,68.6,0,0,0,19.85-3.21c13.52-4.14,28-12.39,37.75-23.43-.09.36-.21.71-.3,1.08-1.36,5.54-2.3,11.41-1.51,17.62a26.76,26.76,0,0,0,2.87,9.18,17.33,17.33,0,0,0,1.3,2.13,17.14,17.14,0,0,0,1.53,2,14.72,14.72,0,0,0,1.74,1.79l.91.84.92.69a40.88,40.88,0,0,0,16.26,7.52,48.89,48.89,0,0,0,17.63.64,49.47,49.47,0,0,0,30.4-16.59,63.18,63.18,0,0,0,14.1-31.2,79.58,79.58,0,0,0,.92-17c-.35-5.82-1.39-11.15-2.09-16.34a70.35,70.35,0,0,1-.71-7.54,19.52,19.52,0,0,1,.71-6.44,5.6,5.6,0,0,1,2.85-3.49c.21-.09.31-.18.6-.29l.87-.33,1.73-.68c1.18-.41,2.37-.78,3.57-1.16,4.85-1.4,10.05-2.33,15.42-3.5a97.94,97.94,0,0,0,16.14-4.76,86,86,0,0,0,15-7.84c2.4-1.47,4.62-3.16,6.89-4.8,1.13-.84,2.24-1.8,3.36-2.7s2.15-1.92,3.17-2.94,2-2.06,2.94-3.13a193.63,193.63,0,0,1,102.58,90.94c1.84,3.48,3.61,7.08,5.26,10.72a196.59,196.59,0,0,1,7.71,19.85l-.44.35-1.56,1.21L602,552.42l-1.69,1.26L598.45,555l-1.8,1.31-1.87,1.35-1.92,1.36L591,560.39l-2.05,1.42c-.64.45-1.29.89-1.95,1.34l-2.16,1.46-2,1.34-2.23,1.48-2.1,1.38-2.31,1.49L574,571.69l-2.41,1.53-2.21,1.38-2.5,1.56-2.25,1.39-2.6,1.6-2.3,1.39L557,582.15l-2.36,1.41-2.74,1.62-2.44,1.42c-.92.55-1.86,1.09-2.8,1.64l-2.47,1.42-2.9,1.66-2.51,1.43-2.94,1.66-2.62,1.47-3,1.64L527.61,599l-3,1.67-2.74,1.48c-1,.55-2,1.1-3,1.64l-2.88,1.55-3,1.6L510,608.49l-3.06,1.6c-1,.53-2,1-3,1.57l-3.07,1.59-3.07,1.58-3.1,1.59L491.5,618l-3.06,1.55-3.27,1.64-3.06,1.53-3.31,1.63-3.1,1.52-3.41,1.67-3.05,1.48-3.73,1.79-2.77,1.33-4,1.89-2.64,1.25-4,1.87-2.67,1.24L445,640.48l-2.25,1L436,644.59l-6.75,3-2.6,1.15-4.14,1.83-2.81,1.23-3.94,1.72-2.8,1.21-3.9,1.68-3,1.26-3.7,1.57-3,1.26-3.62,1.52-3,1.25-3.57,1.47-3,1.24-3.54,1.43-3,1.2-3.55,1.41-3,1.18-3.47,1.36-3,1.17-3.37,1.31-3,1.15-3.33,1.27L354,678.6l-3.32,1.24-2.93,1.08-3.26,1.2-2.89,1-3.24,1.16-2.83,1-3.21,1.13-2.8,1-3.13,1.08-2.78,1-3.08,1-2.73.92-3,1-2.67.87-3,1-2.6.83-2.93.92-2.58.79-2.86.88-2.51.75-2.81.84-2.45.71-2.74.79-2.39.67-2.7.74-2.3.63-2.63.7-2.23.58-2.58.65c-.72.19-1.45.37-2.16.54s-1.66.41-2.49.6l-2.1.5-2.41.55-2,.45-2.34.5-2,.41-2.26.44-1.85.36-.58.11a196.59,196.59,0,0,1-9.81-18.91c-1.65-3.64-3.19-7.35-4.59-11a196.68,196.68,0,0,1-7.36-23.69h0A194,194,0,0,1,245.05,524.94ZM500.7,787.59A195.5,195.5,0,0,1,313.3,772.9l.11,0,2-.55,7.42-2,3.51-1,6.07-1.74,4-1.2c1.89-.56,3.77-1.12,5.67-1.7l4.29-1.33,5.48-1.72,4.45-1.44q2.71-.87,5.43-1.77l4.54-1.52,5.43-1.84,4.62-1.6c1.8-.62,3.6-1.26,5.41-1.9l4.68-1.67,5.43-2,4.73-1.75,5.44-2,4.75-1.81c1.84-.7,3.67-1.42,5.51-2.13l4.73-1.85,5.58-2.23,4.69-1.89,5.74-2.36c1.51-.62,3-1.24,4.54-1.88,2-.83,4-1.69,6-2.54,1.43-.61,2.87-1.21,4.3-1.83,2.22-1,4.44-1.92,6.66-2.89l3.66-1.6q5.16-2.26,10.32-4.6t10.3-4.72l3.25-1.53c2.33-1.08,4.66-2.17,7-3.27l3.83-1.84,6.28-3,4.09-2q3-1.44,5.89-2.91l4.24-2.14q2.82-1.42,5.63-2.86L523.3,690q2.75-1.41,5.48-2.85l4.29-2.26,5.32-2.84,4.28-2.32,5.2-2.85,4.24-2.34,5.11-2.88,4.17-2.36,5-2.89,4.1-2.39c1.66-1,3.3-1.94,4.94-2.92,1.33-.79,2.67-1.58,4-2.38l4.95-3,3.8-2.32,5-3.11,3.6-2.26,5.19-3.32,3.18-2c2.09-1.36,4.15-2.73,6.2-4.09l2-1.31.08-.05A195.46,195.46,0,0,1,500.7,787.59Z"/><path class="cls-5" d="M616.43,624.42c-42.8,29.47-95.2,58.52-151.54,84-21.13,9.56-42.27,18.37-63.09,26.31a898.86,898.86,0,0,1-100.06,32c-82.27,20.69-139.89,19.12-150.39-4.09-9.18-20.31,17.87-56.92,72.54-98.5.05.18.11.36.16.54q.91,3.24,1.93,6.46c.24.74.49,1.48.73,2.23q.79,2.43,1.66,4.84c.14.41.27.83.42,1.24-17.3,14.59-23.7,25.12-20.13,33s16.23,10.12,39.47,6.48l0,0,3-.51c43.32-7.41,113.82-32,188.57-65.82,14-6.34,27.69-12.78,40.88-19.24q13.2-6.46,25.7-12.93c3.19-1.65,6.32-3.29,9.42-4.93,41.59-22,76.09-43.35,98-61l2.33-1.89v0c18.07-15,24.83-25.86,21.19-33.91s-15.71-10-38.08-6.69c-.21-.39-.45-.76-.66-1.15q-1.23-2.22-2.52-4.39c-.4-.7-.8-1.39-1.22-2.08q-1.71-2.83-3.51-5.61c-.12-.19-.23-.38-.35-.56,67.33-13.6,112.68-9.73,121.87,10.58C723.18,532,686.29,576.3,616.43,624.42Z"/><path class="cls-6" d="M226.14,671.67c.74,2.32,1.53,4.63,2.35,6.92-22.75,18.8-34.15,34.39-30.64,42.14,4.46,9.87,37.25,13.07,115-10.43,39.87-12.06,85-29.3,130.4-49.85s88.14-43,123.55-65c69-42.83,88.21-69.56,83.74-79.44-3.5-7.75-22.73-9.48-51.88-4.81-1.18-2.13-2.38-4.25-3.64-6.34,35.71-6.07,56.52-3.29,61.77,8.33,10.58,23.39-49.57,65.23-86.37,88.09C534.71,623.41,491.72,646,446,666.7s-91.09,38-131.25,50.17c-26.64,8.06-65.54,18.18-92.74,18.18-15.14,0-26.66-3.13-30.44-11.5C186.34,711.94,198,694.48,226.14,671.67Zm-60,73.27c5.12,11.32,20.85,17,45.49,17,24.16,0,56.88-5.45,96.55-16.35C353.91,733,405.35,714,456.89,690.72s99.74-49.4,139.41-75.46c69.45-45.62,103.47-84.66,93.32-107.09-6.46-14.3-28-18-53-16.87a426.4,426.4,0,0,0-45.77,6.91c1.16,1.77,2.27,3.59,3.38,5.4,49.64-9.4,82.8-6.72,89.18,7.39,8.36,18.48-26.45,56.23-90.84,98.53-39.37,25.87-87.25,51.78-138.46,74.94s-102.31,42-147.73,54.49c-74.28,20.42-125.62,21.62-134,3.15-6.38-14.11,13.5-40.79,53.34-71.85-.63-2-1.25-4.06-1.82-6.11A426.49,426.49,0,0,0,188.49,694C171.06,712,159.65,730.63,166.12,744.94Z"/><path class="cls-7" d="M334.75,414.81l-22.87-46.87-11.7-24,84.29-18.4,5.14,10.1c-.34.3-.65.63-1,.95-.66.67-1.35,1.31-2,2a35.72,35.72,0,0,0-6.09,9.63,32.23,32.23,0,0,0-.74,22.56,38.65,38.65,0,0,0,5.21,10,39.63,39.63,0,0,0,6,6.69l-1.14,0a77.42,77.42,0,0,0-11.14,1.29A71.26,71.26,0,0,0,368,391.82a62.68,62.68,0,0,0-19.58,11.32c-.73.63-1.45,1.28-2.14,2s-1.32,1.45-2,2.17-1.35,1.45-1.91,2.24l-1.68,2.4-.83,1.2-.26.46ZM292,345.13l12,24.52,22.36,45.82H321l-35.64-66.58-2-3.69ZM268.8,382.6a11,11,0,0,0,2.07-2.88c3.32-6.67,1.47-17.48-4.5-26.31A58.66,58.66,0,0,0,233.49,330l-.28-.07-6.42-9.49L267.3,342.7l38.5,71.93-20.25-7.26Z"/><path class="cls-8" d="M502.18,369a104.22,104.22,0,0,1-5.54,30.29A67.12,67.12,0,0,1,481,424.83c-.88.88-1.83,1.69-2.73,2.54s-1.9,1.58-2.92,2.34c-2.1,1.5-4.15,3.08-6.33,4.41a76.91,76.91,0,0,1-13.51,7.06,89.78,89.78,0,0,1-14.75,4.34c-5.13,1.12-10.53,2.07-16,3.65-1.37.42-2.74.85-4.09,1.33l-2,.78-1,.4L417,452c-.33-19.41-8.4-35.14-23.15-44.31a50.19,50.19,0,0,0-19.59-7,79.51,79.51,0,0,1,16.1-2.91,91.66,91.66,0,0,1,21.09,1.05c1.76.29,3.51.64,5.27,1s3.66.78,5.5,1.14c3.67.73,7.37,1.38,11.12,1.86a1.49,1.49,0,0,0,.85-2.82c-1-.51-2-1-3.06-1.45a86.87,86.87,0,0,0,16.8-2.74,98.88,98.88,0,0,0,20.68-8,84.7,84.7,0,0,0,18.33-12.67,69.75,69.75,0,0,0,14.12-17.59c.31-.61.64-1.21,1-1.81A131.57,131.57,0,0,1,502.18,369ZM383,489.16h-.06l-2.32.71-1.13.35c-.38.1-.77.15-1.16.22l-2.27.43-2.28.12a27.66,27.66,0,0,1-8.8-1.15,48.67,48.67,0,0,1-8.18-3.43c-1.31-.69-2.62-1.43-3.9-2.19-.24-.14-.48-.3-.73-.44l-5.87-7.1-1.79-2.17c-.28-.35-.64-.74-.85-1l-.67-.94a27.68,27.68,0,0,1-2.42-4,48.33,48.33,0,0,1-3.76-19.89,60.2,60.2,0,0,1,3.7-20.33c.64-1.58,1.35-3.14,2.1-4.66l1.25-2.2.63-1.1.73-1,1.45-2c.48-.68,1.09-1.23,1.63-1.86a28.76,28.76,0,0,1,3.56-3.5,47.44,47.44,0,0,1,4.57-3.35c10-3.45,23.4-1.8,33.9,4.73,8.64,5.37,22,18.16,19.84,45.2a17.67,17.67,0,0,0-1,2.32,27.62,27.62,0,0,0-1.16,9.49,78.85,78.85,0,0,0,.78,8.51c.74,5.45,1.74,10.69,2,15.62a71.25,71.25,0,0,1-.81,15.1,59.42,59.42,0,0,1-4.22,14.35,53.52,53.52,0,0,1-3.48,6.57c-.63,1.07-1.36,2.07-2.07,3.09s-1.53,1.88-2.29,2.83A40.58,40.58,0,0,1,373,550c-9.57,1.39-19.81-.64-27.15-6.37a13.78,13.78,0,0,1-4.06-4.65,17.72,17.72,0,0,1-1.88-6.13c-.6-4.48.11-9.45,1.31-14.3a87.39,87.39,0,0,1,5.18-14.4q1.61-3.54,3.45-7c.61-1.14,1.24-2.26,1.89-3.37.28-.48.57-1,.86-1.44.36.17.7.37,1.06.54a33.93,33.93,0,0,0,10.21,2.83,27.11,27.11,0,0,0,10.58-.82l2.5-.84c.79-.37,1.57-.77,2.33-1.17.38-.21.76-.39,1.13-.61l1-.77c.68-.5,1.35-1,2-1.53a.48.48,0,0,0,.16-.52A.46.46,0,0,0,383,489.16ZM321.65,301.83A119.89,119.89,0,0,0,371,291.6a110.82,110.82,0,0,0,61.48-71.24,37.19,37.19,0,0,0,4.56,3.89A115.56,115.56,0,0,1,399.89,280c-17.7,14.46-42.21,25-69.33,24.07a113.16,113.16,0,0,1-14.1-2.32C318.19,301.79,319.93,301.83,321.65,301.83ZM413.46,331h0l-5.27-10.3c2.26.48,4.5,1,6.76,1.45,2.67.53,5.35,1,8.08,1.51,1.35.24,2.74.47,4.15.68.75.1,1.43.21,2.25.29l1.3.09h.46l.63,0c.41,0,.86-.11,1.23-.18a25.69,25.69,0,0,0,8.79-4.21,22.92,22.92,0,0,0,3.34-3.12c7.68-1.34,21.88,3.33,32.88,13.22,6,5.44,14.89,16.05,11.17,29a65.32,65.32,0,0,1-8.25,9.13c-19.85,17.7-49.38,25.79-74.66,18.7a28.53,28.53,0,0,1-14.44-11,31.72,31.72,0,0,1-4.31-8.18,25.16,25.16,0,0,1,.57-17.63,28.9,28.9,0,0,1,4.85-7.67c.52-.57,1.09-1.09,1.63-1.64.28-.27.54-.55.83-.81l.91-.73c.62-.48,1.2-1,1.84-1.45l2-1.29a17.43,17.43,0,0,1,2.06-1.18l2-1.06a11.26,11.26,0,0,1,1.67-.45c.71-.14,1.55-.28,2.25-.36l6.3-.8Zm69-5.55c-9.19-8.27-22.52-14.64-33.19-15.12a22.14,22.14,0,0,0,1.36-6.68c0-.77,0-1.54,0-2.29s-.2-1.51-.3-2.25a19.31,19.31,0,0,0-1.26-4.28,1.55,1.55,0,0,0-2.89,0l-.06.14c-1,2.63-1.63,5.08-2.59,7.28a33.8,33.8,0,0,1-3.13,5.93,20.78,20.78,0,0,1-4.33,4.5,18.61,18.61,0,0,1-5.37,3h-.61c-.52,0-1.18-.1-1.76-.15-1.26-.17-2.54-.34-3.84-.56q-3.88-.67-7.82-1.47c-4.56-.91-9.14-1.9-13.69-2.91l-5.43-10.63a136.3,136.3,0,0,0,33.23-23.38,138,138,0,0,0,19.94-23.83c3.93,4,7.85,8,11.71,12a168.54,168.54,0,0,1,25.35,32.62,94.1,94.1,0,0,1,8.37,18.4,53.15,53.15,0,0,1,2.71,19.27,30,30,0,0,1-.57,4.73,32,32,0,0,1-1.13,4.61c-.11.38-.19.77-.33,1.14l-.47,1.13-.25.62C494.53,339.56,490,332.1,482.5,325.4Zm-57.81-55.32a129.89,129.89,0,0,1-24.06,18.1c1.22-.93,2.44-1.87,3.64-2.85a121.61,121.61,0,0,0,39-57.47,30.93,30.93,0,0,0,9.57,2.49A128.56,128.56,0,0,1,424.69,270.08ZM392,308.53l9.08,17.75-.39.14-.27.12-.16.08-.32.17-.65.34-1.29.68c-.57.3-1.14.61-1.7.94L390,316.37a4.16,4.16,0,0,0-4.59-2.17L294.1,334.14l-.6-.28C306.6,328.5,336.38,318.31,392,308.53ZM532.41,370.8c-.24,3.06-.56,6-1,8.81-2.19,14.2-13.43,23.2-28.88,28.77.9-2,1.73-4.08,2.46-6.16a108.34,108.34,0,0,0,5.28-23.38,16.57,16.57,0,0,0,4.86.73,24.26,24.26,0,0,0,8.34-1.62A18.06,18.06,0,0,0,532.41,370.8Zm-12-1.17c-3.88,1.44-7,1.41-9.4,0,0-.09,0-.18,0-.27a146.56,146.56,0,0,0-2.49-33.08c-.22-1.13-.49-2.24-.73-3.36a59,59,0,0,0-.84-10.23l14.19-4.91a3.4,3.4,0,0,1,4.43,2.49C530.07,341.55,531.07,365.71,520.42,369.63ZM472.1,243.68c13.34,0,24.66,2.4,31.47,7.32a3,3,0,0,0-.32.12,66.39,66.39,0,0,0-6.83,3.23c-2.24,1.18-4.44,2.46-6.61,3.8a65.8,65.8,0,0,0-6.3,4.49.66.66,0,0,0-.22.53.62.62,0,0,0,.67.57c2.6-.2,5.11-.57,7.61-1s4.95-.87,7.4-1.38,4.88-1,7.25-1.76c1.33-.41,2.66-.86,4-1.39,7.33,10.95,13.76,30.46,17.89,51.92a12.3,12.3,0,0,0-9.81-.79L504.91,314c-.1-.34-.19-.68-.3-1a102.56,102.56,0,0,0-9.15-20.15,169.46,169.46,0,0,0-12.23-18q-6.6-8.61-13.85-16.62a166.91,166.91,0,0,0-13.75-13.38A130.42,130.42,0,0,1,472.1,243.68Zm13.28-64.91c1.82,21.81-7.16,34.58-17,35.92-8.69,1.19-19.12-6.43-22.88-26.11-2.91-23.05,6.15-36.57,16.63-38C471.15,149.34,482.24,157.64,485.38,178.77ZM460.15,142c-14.48,2.53-27,19.55-23.4,47.87l0,.26c3.29,17.41,11.39,27.41,20.29,31.45-12.12.82-25.88-9-30.52-33.31-3.47-28.53,9.19-45.45,23.52-47.42A21.24,21.24,0,0,1,460.15,142ZM431.24,99.47a144.11,144.11,0,0,1,21.09,32.3,30.63,30.63,0,0,0-3.46.26,31.26,31.26,0,0,0-14.15,5.84c-2-3.81-4.18-7.57-6.6-11.28-19.33-27.88-51.18-46.91-87.39-52.2A134.1,134.1,0,0,0,272.07,82C314.11,52.25,377.07,46.1,431.24,99.47Zm-181.18,2.37c24.75-17.86,57.1-25.37,89.67-20.6,34.32,5,64.46,23,82.65,49.22a126.29,126.29,0,0,1,7,12.18,39.92,39.92,0,0,0-3.43,4.3c-9.75-19.63-26-36.09-47.65-48.11l-.24-.13c-31.39-15-63-18.34-91.36-9.64a104.55,104.55,0,0,0-55.45,40.69A130,130,0,0,1,250.06,101.84Zm52.1,204.83a123.82,123.82,0,0,0,28.13,6c-27.27,7.17-41.37,13.23-46.87,15.91A131.53,131.53,0,0,0,302.16,306.67Zm-79.85-7c17.28,8.06,40.54,27.48,48.91,34.71l-.54.67-51.42-28.23Zm40.63,76.07c-.12.24-.35.65-.56.66h-.14c-3.69,0-20.89-6.34-24.69-35.63A50.31,50.31,0,0,1,259,358.38C264,365.68,264.28,373.07,262.94,375.77ZM251.42,509.88c2.69-14.8,21.75-27.75,27-31a25.71,25.71,0,0,0,2.64,1.7,27.33,27.33,0,0,0,10.43,3.07,39.81,39.81,0,0,0,10.37-.36c1.67-.36,3.33-.7,4.95-1.14s3.18-1.06,4.74-1.65a.47.47,0,0,0,.31-.43.49.49,0,0,0-.47-.5h0c-1.66,0-3.29,0-4.9,0l-4.79-.22a50,50,0,0,1-9.09-1.58,31.32,31.32,0,0,1-7.91-3.42,26.08,26.08,0,0,1-3.29-2.42c-.06,0-.1-.1-.16-.15-1.67-3.21-15.37-30.74-6.33-54.64.17-.45.37-.89.55-1.34,2.05-.13,5-.25,8.52-.15l29.24,10.5.2,0,.21.05a3.77,3.77,0,0,0,1,.14h5.21a40,40,0,0,1,9.42,9.71A71.74,71.74,0,0,0,328,448.54c-.05,2,.12,4,.19,6l.36,3a23.61,23.61,0,0,0,.46,3l.59,3c.24,1,.56,2,.83,3a32,32,0,0,0,1.63,4.5,91,91,0,0,0,3.36,20c-2.2,17.88-23,33.25-42.8,39.29-16.24,5-30.23,3.26-36.52-4.46C251.91,520.7,250.39,515.5,251.42,509.88Z"/><path class="cls-9" d="M425.54,211.31a100.87,100.87,0,0,1-6.18,19.55c-19,43.8-70.22,77.68-142,54.88-14.64-9.93-26-20.84-34.69-32.26,4.14,3.43,8.58,6.77,13.35,10,108.25,34.82,176.42-56.41,151.36-129.38a91.32,91.32,0,0,1,13.45,22.75c-3.32,8.78-4.68,19.73-3.09,32.62l0,.28A67.12,67.12,0,0,0,425.54,211.31Z"/><path class="cls-10" d="M405.05,166.54c-1,25.09-29.57,24.34-32.32,2.51C370.82,141.31,404.45,141.65,405.05,166.54ZM386.2,205.83c-.08,10.49,12.4,10.58,13.36,1C399.63,196.35,387.15,196.26,386.2,205.83Zm-60.63-99c-33.65-12.4-125.93,22.92-87.82,111C247.83,170.3,265.58,126,325.57,106.79Z"/><path class="cls-11" d="M613.42,637.17c-.91,6.38-2.13,12.69-3.65,18.89-32.15,22.49-80.82,49.48-137,74.9-53.82,24.34-104.17,42.54-141.82,52.2A194.74,194.74,0,0,1,313.3,772.9c48.45-12.88,101.9-32.29,155.24-56.41S571.75,665.05,613.42,637.17Zm-253.63,158q5,1.65,10.14,3c29.25-5.49,72.24-20.3,117.37-40.71,44.76-20.25,84.14-42.63,107.64-60.92q2.34-4.71,4.42-9.55C577.75,706,535,730.92,485.41,753.33,436.21,775.59,388,791.58,359.79,795.19ZM598,529.66l-.49-1c-29,26.42-93.25,64.53-171.14,99.75-75,33.94-143.7,56.58-183.51,62.09a196.66,196.66,0,0,0,9.74,18.74c42.33-7.82,112.14-32.39,183.44-64.63s135.85-68.44,169.67-95.07A196.76,196.76,0,0,0,598,529.66Zm-40-57.84q-3.26-3.24-6.64-6.32c-16.75,21.29-80.76,60-156.09,94.06C323.77,591.89,255.44,614,225.46,614.68c.07,3,.23,6.09.44,9.14C257.72,622.9,325.79,601,399,567.9,475.53,533.29,538.92,494.82,558,471.82ZM502,433c-3.12-1.43-6.27-2.79-9.45-4.05-16.6,13.39-43.24,29.78-75.17,46.42.33,2.33.88,6.27,1.33,9.61C454.88,466.22,484.81,447.65,502,433ZM261,539.68c-9,2.56-17.34,4.61-24.65,6-1.14,3.26-2.22,6.55-3.19,9.87,15.19-2.53,35.11-8,57.65-15.66C284.24,541.51,271.38,543.67,261,539.68Zm320.45-39.47c-.55-.82-1.09-1.64-1.65-2.45q-1.86-2.64-3.8-5.21c-19.62,23.33-86.73,63.63-166.08,99.51C334.34,626.25,263,649.52,229.82,651c.33,1.54.63,3.07,1,4.6s.75,2.95,1.15,4.43c35.15-2.3,106.58-25.63,181.73-59.62C493.3,564.4,558.92,525.07,581.46,500.21Z"/></svg>