<svg width="928" height="568" viewBox="0 0 928 568" fill="none" xmlns="http://www.w3.org/2000/svg">
<g clip-path="url(#clip0_25_93)">
<g filter="url(#filter0_d_25_93)">
<mask id="mask0_25_93" style="mask-type:alpha" maskUnits="userSpaceOnUse" x="2" y="92" width="915" height="273">
<path d="M210.713 355.793C203.724 354.891 196.961 354.27 190.423 353.932C183.999 353.594 177.461 353.425 170.811 353.425C152.888 353.425 134.515 355.172 115.692 358.667C116.368 355.961 117.101 353.594 117.89 351.565C118.791 349.422 119.58 347.111 120.257 344.631C120.933 342.038 121.497 339.05 121.947 335.668C122.399 332.286 122.624 327.945 122.624 322.646C122.624 317.235 122.229 312.105 121.44 307.257C120.651 302.297 119.468 297.956 117.89 294.236C116.312 290.402 114.339 287.359 111.972 285.103C109.718 282.849 107.069 281.722 104.026 281.722C100.644 281.722 97.7694 282.736 95.4024 284.765C93.1482 286.794 91.2883 289.557 89.8231 293.052C88.4706 296.547 87.4561 300.549 86.7799 305.059C86.2159 309.568 85.9345 314.36 85.9345 319.433C85.9345 324.507 86.2159 328.904 86.7799 332.624C87.4561 336.232 88.1887 339.388 88.9777 342.094C89.8795 344.8 90.7248 347.224 91.5138 349.366C92.3028 351.396 92.8663 353.425 93.2046 355.454C85.4269 354.552 77.7625 353.876 70.2104 353.425C62.7711 352.974 55.3312 352.748 47.8921 352.748C40.4527 352.748 32.957 352.974 25.4049 353.425C17.9656 353.876 10.2444 354.552 2.24146 355.454C9.22997 335.161 15.3167 315.037 20.5017 295.081C25.7994 275.126 30.3081 255.058 34.0279 234.877C37.7475 214.697 40.7345 194.291 42.9889 173.659C45.356 153.027 47.1031 131.888 48.2303 110.241C56.5714 111.369 65.7015 112.215 75.6206 112.778C85.6525 113.229 95.91 113.455 106.393 113.455C115.297 113.455 123.92 113.229 132.261 112.778C140.715 112.327 148.493 111.369 155.594 109.904C156.383 131.437 158.412 152.633 161.681 173.49C164.95 194.347 169.007 215.035 173.854 235.554C178.814 255.96 184.449 276.197 190.762 296.265C197.074 316.22 203.724 336.063 210.713 355.793ZM116.03 224.561C115.805 222.419 115.128 219.263 114.001 215.091C112.986 211.484 111.465 206.749 109.436 200.886C107.407 194.911 104.42 187.244 100.475 177.886C99.573 183.749 98.5589 188.992 97.4316 193.614C96.3042 198.124 95.2337 202.239 94.2192 205.959C93.2046 209.567 92.3028 212.893 91.5138 215.937C90.8376 218.981 90.4993 221.855 90.4993 224.561C90.4993 230.198 91.7958 234.595 94.3884 237.752C97.0932 240.796 100.081 242.318 103.349 242.318C106.844 242.318 109.774 240.627 112.141 237.245C114.508 233.863 115.805 229.635 116.03 224.561ZM350.201 200.04C350.201 204.55 349.299 208.608 347.495 212.216C345.692 215.824 343.269 218.924 340.225 221.518C337.182 223.998 333.631 225.97 329.574 227.437C325.516 228.789 321.232 229.466 316.724 229.466C311.539 229.466 307.086 228.846 303.366 227.606C299.76 226.365 296.66 224.787 294.068 222.87C291.588 220.841 289.615 218.642 288.15 216.275C286.685 213.795 285.501 211.427 284.599 209.172C283.81 206.917 283.303 204.832 283.078 202.915C282.852 200.998 282.739 199.533 282.739 198.518C283.754 200.435 285.05 201.619 286.628 202.069C288.206 202.521 289.446 202.746 290.348 202.746C292.94 202.746 294.8 202.069 295.927 200.717C297.054 199.364 297.618 197.954 297.618 196.489C297.618 195.587 297.393 194.572 296.942 193.445C296.491 192.317 295.702 191.303 294.575 190.401C293.447 189.386 291.982 188.54 290.179 187.864C288.375 187.188 286.121 186.849 283.415 186.849C281.725 186.849 279.922 187.188 278.005 187.864C276.089 188.54 274.342 189.612 272.764 191.077C271.298 192.43 270.059 194.178 269.044 196.32C268.03 198.349 267.523 200.717 267.523 203.423C267.523 208.496 268.819 212.78 271.411 216.275C274.004 219.77 277.385 222.87 281.556 225.576C285.839 228.169 290.63 230.593 295.927 232.848C301.338 235.103 306.861 237.471 312.497 239.951C318.133 242.318 323.599 245.024 328.897 248.068C334.308 250.999 339.098 254.607 343.269 258.891C347.552 263.175 350.99 268.305 353.582 274.28C356.175 280.256 357.471 287.359 357.471 295.589C357.471 306.073 355.329 315.544 351.046 323.999C346.763 332.455 341.014 339.727 333.8 345.815C326.699 351.79 318.414 356.356 308.946 359.513C299.478 362.782 289.502 364.417 279.02 364.417C269.439 364.417 260.365 363.121 251.798 360.528C243.232 357.935 235.736 354.327 229.311 349.704C222.886 345.082 217.757 339.614 213.925 333.301C210.205 326.987 208.346 320.166 208.346 312.838C208.346 307.314 209.248 302.522 211.051 298.463C212.854 294.292 215.334 290.854 218.49 288.148C221.759 285.442 225.535 283.412 229.818 282.06C234.215 280.707 238.949 280.03 244.021 280.03C247.74 280.03 251.46 280.425 255.18 281.214C258.9 282.003 262.394 283.187 265.663 284.765C268.932 286.344 271.862 288.261 274.454 290.515C277.047 292.77 279.133 295.363 280.711 298.294C279.809 298.069 278.907 297.9 278.005 297.787C277.216 297.674 276.371 297.618 275.469 297.618C272.989 297.618 271.017 298.295 269.551 299.647C268.199 300.888 267.523 302.973 267.523 305.904C267.523 309.061 268.819 311.711 271.411 313.853C274.004 315.995 276.878 317.066 280.034 317.066C281.837 317.066 283.528 316.671 285.106 315.882C286.685 315.093 288.037 314.078 289.164 312.838C290.291 311.485 291.137 310.02 291.701 308.441C292.377 306.863 292.715 305.228 292.715 303.537C292.715 300.606 291.701 297.449 289.672 294.067C287.755 290.684 284.994 287.866 281.387 285.611C274.285 281.214 267.579 277.437 261.267 274.28C254.955 271.124 249.15 268.136 243.852 265.317C238.554 262.499 233.763 259.68 229.48 256.862C225.31 254.043 221.759 250.774 218.828 247.053C215.898 243.22 213.643 238.767 212.065 233.693C210.487 228.507 209.698 222.25 209.698 214.922C209.698 206.241 211.389 198.236 214.771 190.908C218.265 183.467 223.225 177.041 229.649 171.63C236.074 166.218 243.965 161.99 253.32 158.946C262.675 155.789 273.271 154.211 285.106 154.211C297.167 154.211 307.312 155.62 315.54 158.439C323.881 161.257 330.588 164.865 335.66 169.262C340.845 173.659 344.565 178.563 346.819 183.975C349.074 189.386 350.201 194.741 350.201 200.04ZM541.767 360.697C535.678 359.795 528.915 359.118 521.476 358.667C514.036 358.217 506.596 357.991 499.156 357.991C492.056 357.991 485.18 358.217 478.53 358.667C471.992 359.118 466.3 359.682 461.453 360.358C463.82 352.241 465.68 343.842 467.033 335.161C468.498 326.48 469.569 317.461 470.245 308.103C471.034 298.632 471.541 288.768 471.767 278.508C471.992 268.249 472.105 257.426 472.105 246.038C472.105 244.347 471.992 242.093 471.767 239.274C471.654 236.456 471.373 233.412 470.921 230.142C470.471 226.872 469.795 223.603 468.893 220.334C468.104 216.951 467.033 213.907 465.68 211.201C464.327 208.496 462.637 206.297 460.608 204.606C458.692 202.915 456.437 202.069 453.845 202.069C452.154 202.069 450.463 202.971 448.773 204.775C447.195 206.467 445.56 208.778 443.869 211.709C442.179 214.527 440.544 217.853 438.966 221.687C437.388 225.407 435.866 229.353 434.401 233.524C434.626 245.024 435.021 256.411 435.585 267.685C436.261 278.846 437.106 289.613 438.121 299.986C439.248 310.245 440.544 319.941 442.009 329.073C443.475 338.092 445.222 346.097 447.251 353.087C445.335 352.974 443.08 352.805 440.488 352.579C438.233 352.467 435.528 352.354 432.372 352.241C429.329 352.128 425.834 352.072 421.889 352.072C414.563 352.072 406.109 352.41 396.528 353.087C387.06 353.65 376.746 354.778 365.587 356.469C367.165 353.312 368.574 348.972 369.814 343.447C371.054 337.81 372.125 331.497 373.026 324.507C373.928 317.404 374.661 309.907 375.224 302.015C375.9 294.01 376.408 286.005 376.746 278.001C377.197 269.996 377.478 262.274 377.591 254.833C377.817 247.279 377.986 240.514 378.099 234.539C378.211 228.451 378.268 223.321 378.268 219.15C378.268 214.979 378.268 212.273 378.268 211.032C378.042 192.205 377.535 174.73 376.746 158.608C376.408 151.844 376.013 145.023 375.562 138.145C375.111 131.268 374.548 124.842 373.872 118.866C373.195 112.891 372.406 107.649 371.505 103.139C370.716 98.6291 369.758 95.2474 368.63 92.9922C377.76 94.5705 386.214 95.6417 393.992 96.2052C401.769 96.7693 408.758 97.0508 414.957 97.0508C419.015 97.0508 422.678 96.9944 425.947 96.8821C429.216 96.6565 431.978 96.4309 434.232 96.2052C436.937 95.9801 439.304 95.6981 441.333 95.3597C440.431 99.306 439.642 104.041 438.966 109.565C438.29 115.09 437.67 121.29 437.106 128.168C436.542 135.045 436.035 142.429 435.585 150.321C435.246 158.213 434.964 166.443 434.739 175.012C441.164 164.978 448.096 157.931 455.536 153.873C462.975 149.701 470.696 147.616 478.699 147.616C486.702 147.616 494.028 149.419 500.68 153.027C507.442 156.522 513.249 161.99 518.092 169.431C523.054 176.759 526.887 186.06 529.593 197.334C532.408 208.608 533.818 221.968 533.818 237.414C533.818 248.012 533.818 259.004 533.818 270.391C533.931 281.665 534.213 292.77 534.664 303.706C535.114 314.529 535.905 324.845 537.028 334.653C538.156 344.462 539.734 353.143 541.767 360.697ZM729.103 357.145C725.606 356.582 721.772 356.187 717.602 355.961C713.432 355.849 709.094 355.793 704.587 355.793C699.176 355.793 693.65 355.905 688.016 356.131C682.491 356.469 677.084 356.863 671.786 357.315C666.488 357.765 661.472 358.273 656.738 358.837C652.004 359.4 647.888 359.908 644.396 360.358C649.239 344.011 652.959 326.536 655.551 307.934C658.257 289.331 659.612 268.7 659.612 246.038C659.612 244.347 659.553 242.093 659.444 239.274C659.444 236.456 659.33 233.412 659.103 230.142C658.88 226.872 658.484 223.603 657.92 220.334C657.47 216.951 656.738 213.907 655.724 211.201C654.819 208.496 653.636 206.297 652.172 204.606C650.708 202.915 648.902 202.069 646.761 202.069C643.605 202.069 640.503 203.197 637.461 205.452C634.532 207.706 631.881 210.694 629.516 214.415C627.261 218.135 625.401 222.419 623.936 227.267C622.581 232.115 621.908 237.132 621.908 242.318C621.908 251.676 622.131 261.202 622.581 270.898C623.036 280.481 623.768 290.008 624.782 299.478C625.797 308.948 627.093 318.25 628.671 327.382C630.248 336.401 632.222 344.969 634.587 353.087C632.672 352.974 630.417 352.805 627.825 352.579C625.569 352.467 622.922 352.354 619.88 352.241C616.833 352.128 613.341 352.072 609.393 352.072C602.067 352.072 593.613 352.41 584.032 353.087C574.455 353.65 564.081 354.778 552.922 356.469C554.277 350.155 555.459 342.433 556.473 333.301C557.488 324.169 558.333 314.247 559.011 303.537C559.689 292.826 560.193 281.665 560.53 270.053C560.985 258.328 561.207 246.772 561.207 235.385C561.207 226.929 561.094 218.642 560.871 210.525C560.644 202.408 560.307 194.741 559.857 187.526C559.516 180.31 559.011 173.659 558.333 167.571C557.656 161.483 556.869 156.24 555.969 151.844C565.096 153.422 573.549 154.549 581.331 155.225C589.107 155.789 596.151 156.071 602.463 156.071C606.519 156.071 610.125 156.015 613.286 155.902C616.551 155.677 619.316 155.451 621.567 155.225C624.273 154.887 626.642 154.549 628.671 154.211C627.993 157.706 627.315 161.426 626.642 165.372C626.078 169.318 625.515 173.602 624.951 178.225C628.67 173.49 632.613 169.374 636.783 165.88C640.958 162.272 645.128 159.284 649.298 156.916C653.582 154.549 657.807 152.801 661.977 151.674C666.147 150.434 670.094 149.814 673.814 149.814C681.927 149.814 688.916 151.505 694.778 154.887C700.754 158.157 705.656 163.343 709.49 170.446C713.432 177.548 716.366 186.624 718.28 197.672C720.194 208.721 721.154 221.968 721.154 237.414C721.154 248.012 721.154 258.778 721.154 269.714C721.268 280.65 721.55 291.361 722 301.845C722.45 312.331 723.241 322.308 724.369 331.778C725.492 341.136 727.07 349.592 729.103 357.145ZM916.098 356.131C913.956 355.905 911.478 355.68 908.658 355.454C906.294 355.229 903.42 355.059 900.036 354.947C896.767 354.834 893.16 354.778 889.218 354.778C883.579 354.778 877.38 355.003 870.618 355.454C863.97 355.905 857.094 356.75 849.991 357.991L850.668 310.47C846.384 327.269 840.072 340.234 831.732 349.366C823.501 358.498 813.81 363.064 802.651 363.064C799.153 363.064 795.211 362.613 790.813 361.711C786.421 360.81 781.909 359.062 777.289 356.469C772.778 353.989 768.326 350.494 763.933 345.984C759.649 341.474 755.815 335.668 752.432 328.565C749.053 321.35 746.347 312.669 744.319 302.522C742.291 292.263 741.277 280.143 741.277 266.163C741.277 247.222 743.191 231.044 747.025 217.628C750.854 204.099 755.761 193.05 761.732 184.482C767.707 175.914 774.301 169.656 781.513 165.711C788.731 161.765 795.775 159.792 802.651 159.792C808.513 159.792 813.81 160.637 818.544 162.328C823.387 163.907 827.671 165.993 831.391 168.585C835.111 171.065 838.326 173.884 841.032 177.041C843.733 180.198 845.934 183.355 847.626 186.511C847.285 182.678 846.78 178.619 846.102 174.335C845.425 169.938 844.638 165.429 843.733 160.806C851.064 162.272 858.499 163.23 866.052 163.681C873.606 164.132 880.596 164.358 887.017 164.358C894.684 164.358 900.882 164.189 905.616 163.85C908.322 163.737 910.8 163.568 913.056 163.343C911.814 168.98 910.691 175.293 909.677 182.283C908.658 189.274 907.758 196.771 906.972 204.775C906.294 212.667 905.73 221.01 905.28 229.804C904.938 238.485 904.77 247.392 904.77 256.524C904.77 273.547 905.616 290.628 907.308 307.764C909 324.901 911.928 341.023 916.098 356.131ZM846.607 259.23V231.833C846.607 228.789 846.439 225.689 846.102 222.532C845.766 219.375 844.975 216.501 843.733 213.907C842.61 211.314 840.918 209.229 838.663 207.651C836.407 205.959 833.365 205.114 829.531 205.114C825.475 205.114 822.091 206.523 819.39 209.341C816.793 212.16 814.656 216.049 812.965 221.01C811.387 225.858 810.259 231.664 809.581 238.429C809.017 245.081 808.735 252.352 808.735 260.244C808.735 264.754 809.017 269.32 809.581 273.942C810.259 278.564 811.327 282.792 812.796 286.626C814.261 290.346 816.234 293.39 818.713 295.758C821.191 298.125 824.233 299.309 827.844 299.309C831.901 299.309 835.17 297.9 837.649 295.081C840.127 292.263 841.987 288.768 843.228 284.596C844.579 280.425 845.484 276.084 845.934 271.575C846.384 266.952 846.607 262.837 846.607 259.23Z" fill="#EFC3F5"/>
</mask>
<g mask="url(#mask0_25_93)">
<path d="M927.999 324.874H-14.1931V387.902H927.999V324.874Z" fill="#5CB2B2"/>
<path d="M927.999 296.071H-14.1931V324.874H927.999V296.071Z" fill="#B3C8BB"/>
<path d="M928 224.133H-14.3455V291.422H928V224.133Z" fill="#FBC183"/>
<path d="M927.999 158.493H-14.1931V224.232H927.999V158.493Z" fill="#FB726D"/>
<path d="M927.999 112.747H-14.1931V179.502H927.999V112.747Z" fill="#FF5455"/>
</g>
</g>
<path d="M62.6697 128.146C62.6697 135.284 61.8337 141.703 61.8337 148.432" stroke="white" stroke-width="21" stroke-linecap="round"/>
<path d="M228.537 190.983C229.247 183.422 240.157 173.666 246.096 173.666" stroke="white" stroke-width="21" stroke-linecap="round"/>
<path d="M466.473 196.425C473.238 196.425 473.54 209.643 475.67 214.732" stroke="white" stroke-width="21" stroke-linecap="round"/>
<path d="M387.891 143.979C387.891 136.766 387.31 129.835 389.493 123.693" stroke="white" stroke-width="21" stroke-linecap="round"/>
<path d="M572.382 164.265C572.382 167.387 572.135 170.732 572.753 173.666" stroke="white" stroke-width="21" stroke-linecap="round"/>
<path d="M782.443 187.024C778.362 187.612 773.663 201.758 773.663 205.826" stroke="white" stroke-width="21" stroke-linecap="round"/>
</g>
<defs>
<filter id="filter0_d_25_93" x="-1.75854" y="112.747" width="921.857" height="259.67" filterUnits="userSpaceOnUse" color-interpolation-filters="sRGB">
<feFlood flood-opacity="0" result="BackgroundImageFix"/>
<feColorMatrix in="SourceAlpha" type="matrix" values="0 0 0 0 0 0 0 0 0 0 0 0 0 0 0 0 0 0 127 0" result="hardAlpha"/>
<feOffset dy="4"/>
<feGaussianBlur stdDeviation="2"/>
<feComposite in2="hardAlpha" operator="out"/>
<feColorMatrix type="matrix" values="0 0 0 0 0 0 0 0 0 0 0 0 0 0 0 0 0 0 0.25 0"/>
<feBlend mode="normal" in2="BackgroundImageFix" result="effect1_dropShadow_25_93"/>
<feBlend mode="normal" in="SourceGraphic" in2="effect1_dropShadow_25_93" result="shape"/>
</filter>
<clipPath id="clip0_25_93">
<rect width="928" height="568" fill="white"/>
</clipPath>
</defs>
</svg>
