<svg id="Layer_1" data-name="Layer 1" xmlns="http://www.w3.org/2000/svg" viewBox="0 0 864 864"><defs><style>.cls-1{fill:#371a45;}.cls-2{fill:#3bc8ff;}.cls-3{fill:#62ed2e;}.cls-4{fill:#6d6d6d;}.cls-5{fill:#fff;}.cls-6{fill:#ff0019;}.cls-7{fill:#220f2d;}.cls-8{fill:#8c789b;}</style></defs><title>Artboard 4</title><path class="cls-1" d="M815.43,500.68c-9.42-82.37-46-122.49-47.61-124.15a5,5,0,0,0-3.23-1.58l-50.75-4.45a5,5,0,0,0-3.47,1l-10.75,8.14a197.14,197.14,0,0,0,54.46-81.81,47.68,47.68,0,0,0,22.23-15.43c16.54-11.29,24.86-37.37,19.39-65.15-3-15.23-10-28.67-19.26-37.73A66,66,0,0,0,758,161.75a52.41,52.41,0,0,0-9.27-4.63,193.07,193.07,0,0,0-9.36-18.56c-26-45.34-68.43-77.71-119.44-91.16a198.61,198.61,0,0,0-60.46-6.35c-2.25.1-4.56.25-7,.48-6.2.52-12.42,1.33-18.5,2.43a201.45,201.45,0,0,0-78.09,32.16c-3.75,2.57-7.4,5.27-10.85,8a195,195,0,0,0-14.8,13l0,0-.4.38a196.44,196.44,0,0,0-52.39,88.23,191.61,191.61,0,0,0,31,166.84,193.81,193.81,0,0,0,59.06,52.31c-29.89,3.17-60.52,3.51-90.19-1.3q-7.68-1.72-15.44-3.15c-2-25.48-8.3-43.68-10.43-49.18,2.45-12.32-4.87-20.43-13.58-23.08s-20-.19-22.93,8.43c-3.7,10.88,6.36,20.22,13.95,24.7,4.5,10.26,6.59,23.39,7.48,35.7a166.1,166.1,0,0,0-43.23,1.71c-15.81,3-32.48,8.83-42.86,21.9-.88,1.12-1.66,2.21-2.38,3.28-.68.22-1.36.42-2.05.65a173,173,0,0,0-39.61,19.51L171.38,392c0-4.06-.57-13.39-5.47-19.4-3.75-4.6-11.25-6.37-18.65-4.4a21.37,21.37,0,0,0-16,17.61,17.14,17.14,0,0,0,3.15,13.43c4.72,6.27,13.05,8.75,17.45,9.66l30.85,53.78c-30.79,43.61-32.7,92.16-21.12,135.29a138.5,138.5,0,0,0-42.07,6.21c-24.42,7.7-56.28,26.39-69.35,71.68-13,44.87.76,72.58,14.56,87.93,14.77,16.43,35.06,24.59,47.19,25.42,3.16,11.2,14.08,27.22,40.07,30.12,9.72,1.09,59,5.46,74.29-15.4a22.77,22.77,0,0,0,4.21-16c24.31,9.8,85.63,33.53,113.44,35,4.22.22,8,.32,11.5.32,19.69,0,27.71-3.23,30.93-5.58,6.33-2.13,13.63-5.34,17-9.5,1.15.11,2.3.18,3.49.18,9.91,0,20.78-3.43,24.42-4.69l.2,0c2.72,0,8.9-.72,13.69-5.21,2.6-2.44,5.69-7,5.71-14.6.18.76.39,1.53.54,2.32,1,4.93,5.2,8.36,9.26,10.25,21.33,9.2,64.14,4.35,88.1,1.57a333.1,333.1,0,0,0,70.41,5.48c15-.55,30.25-2.42,44.78-6.83a91.36,91.36,0,0,0,27.23-13.42c2.29-20.8,3.47-41.54,1.45-62.44A111,111,0,0,0,690,705.06c2.31-1,4.56-2.15,6.89-3.34,23.87-12.5,45.53-30.88,58.84-54.56l1.06-1.94a42.12,42.12,0,0,0,8.37.83,66.76,66.76,0,0,0,33.72-9.89C817.33,624.69,823.68,572.78,815.43,500.68ZM479.33,607.31C461.73,624.4,440,649,441.14,675.06c1.77,24.36,10.64,47.37,21.39,69.1a6.09,6.09,0,0,0-.78,3.06c-7.14,9.71-12.29,21.14-11.29,33.51-1.83-6.48-10.62-17.31-44.48-41.28-13.88-9.83-27.84-18.89-35.92-24,36.37-26.58,53-67.7,55.45-136.48,1-27.94-4.24-51.28-11.77-70.11,17.06,4.64,34.6,8.33,52.81,9,.23,6.41.48,12.81.81,19.21.65,12.16,1.4,24.34,2.73,36.48.82,6.25,1.32,13,3.73,19.06l.35.66.37.65.19.32a100,100,0,0,0,7.6,9.54l.4.43C481.59,605.21,480.46,606.25,479.33,607.31ZM241.18,269.1a70,70,0,0,0,7.2-.37,69.16,69.16,0,0,0,27.28-8.68l27.85,6.25a5.31,5.31,0,0,0,6.26-6.68l-7.65-26.07a69.25,69.25,0,0,0,8.66-41.5,69.91,69.91,0,1,0-69.6,77.05Z"/><path class="cls-2" d="M569.39,537.5a10.11,10.11,0,1,1-10.12,10.11A10.12,10.12,0,0,1,569.39,537.5Z"/><path class="cls-3" d="M337.86,355.16l-.78-1.61-1.57-.83c-3.91-2.07-12-8.13-10.44-12.66.56-1.62,4.94-3.05,9.65-1.62,3.83,1.17,8,4.17,5.91,11.85l-.48,1.8.72,1.7c.11.26,7.51,18,10,44.85-1.22-.17-2.44-.34-3.66-.49C346.28,383.64,343.77,367.57,337.86,355.16ZM313.59,734.3a95.79,95.79,0,0,0,46.58-12.43c3.08,1.93,8.54,5.4,15.25,9.8A46.67,46.67,0,0,0,351.19,758C340.92,751,327.41,742.24,313.59,734.3Zm-95.93,63.23c-8.52,11.62-39.38,13.89-64.44,11.09-28.83-3.23-31.43-24.56-31.53-25.43l-.53-5.81-.42.07c0-.1,0-.2,0-.31a5.45,5.45,0,0,0,.29-.53c13.35-36.91,64.67-26.67,79.89-22.73-.35,3.27-.77,6.51-1.25,9.7-10.56-.26-21.1,3.49-30,8.77a83.76,83.76,0,0,0-9.17,6.43c1.71-.73,3.38-1.5,5.09-2.19,10.16-3.86,21.86-6,32.44-3.27l0,.2,2.77.63.18.06.24,0,2,.46c5,1,10.55,4.3,15,7.5C220.65,788.59,220.53,793.62,217.66,797.53Zm7.47-23.47a59.44,59.44,0,0,0-14.79-8.36,177,177,0,0,0,2.29-18.57c1.79-25.2-1.3-59.25-28.73-69.67-20.3-9.35-46.42-10-64.09,5.29A51.66,51.66,0,0,0,105.59,702a2,2,0,0,0,3.48,2c15.47-22.29,40.71-29.22,65.58-19.09a70.8,70.8,0,0,1,7.35,3.29c6.75,3,11.36,8.72,14.48,15.81,4.76,12.1,5.87,25.61,5.25,39a142.2,142.2,0,0,0-33.18-4.26H168c-20.83.11-36.8,6.15-47.2,17.6,1.28-8.18,4.72-16.42,11.81-21.18-13,5.87-18.49,20.63-20.52,34.92-.41.95-.81,1.89-1.17,2.87a5.33,5.33,0,0,0,.4,4.46c0,.3,0,.59-.06.89-8.55-1.12-25.44-7.21-38.49-21.74-12-13.32-23.82-37.63-12.23-77.78,9.4-32.56,30.24-54.2,61.93-64.31a128.27,128.27,0,0,1,42.4-5.72c13.69,42,39.47,77.7,62.2,97,18.33,15.57,39.82,23,59,26.24,6.7,3.09,13.88,6.85,21.24,11-11.48,7.76-30.64,24.82-29.23,51.37C252.07,785.2,228.79,775.59,225.13,774.06Zm160,32.59-.29-.11-18.94-5.32,8.8,9.55c-5,1.14-14.17,2.22-30.17,1.38-12.85-.68-34.16-6.76-55.28-13.88-4.41-28.48,20.42-44.69,28.45-49.14,11.37,6.88,22.83,14.44,33.32,21.75.18.13.35.26.55.38C371,784.79,387,797.4,392.76,803.13A55.48,55.48,0,0,1,385.13,806.65Zm52.74-16.17a9.73,9.73,0,0,1-5.36,2.25,186.19,186.19,0,0,0-18.71-11.94c3,4.67,6.06,9.39,8.73,14.28-7.14,1.94-16,3.4-21,1.86-4.81-5.35-15.37-14.22-37.76-30.16l-3.38-2.39c5.12-18.38,20.61-24,26.08-25.35,4,2.73,8.25,5.63,12.47,8.6,39,27.5,41.08,35.34,41.19,36C440.15,786.79,439.41,789,437.87,790.48ZM382.55,624.6A53.69,53.69,0,0,1,364.67,628a31.4,31.4,0,0,1-17.78-5.13c-15.47-10.3-17.87-32.77-18.23-39.44-.1-1.67-1.78-36.35,24.55-59.12,12.5-10.81,27.35-14.46,40.73-10a37.41,37.41,0,0,1,13.16,7.72,148.66,148.66,0,0,0-48.42-69.93l-.37,1.87a5.37,5.37,0,0,1-5.26,4.32,4.83,4.83,0,0,1-1.06-.11,5.36,5.36,0,0,1-4.21-6.31l2-9.86a179.76,179.76,0,0,0,1.79-32.47c-1.3-.2-2.6-.38-3.91-.56a245.31,245.31,0,0,1-.93,26.45l-.05.2c0,.21,0,.42-.1.64l-1.74,6.55h0l-1.27,4.8a5.36,5.36,0,0,1-5.18,4,5,5,0,0,1-1.38-.18,5.36,5.36,0,0,1-3.81-6.56l1.88-7.11C281.78,412,228.4,442.3,212.72,452.64l7.21,8.53a5.36,5.36,0,1,1-8.19,6.93L204,459l-.48.38-43-64.38.1-1.79c.13-2.47-.14-10.34-3-13.88-.48-.59-2.14-1.24-4.38-1.24a12.56,12.56,0,0,0-3.19.42,10.65,10.65,0,0,0-8.12,9,6.38,6.38,0,0,0,1.1,5.21c3,4,10.34,5.63,12.93,6l2.67.32,1.35,2.34,33.69,58.73,9.85,13.63a5.37,5.37,0,0,1-8.7,6.29l-5.59-7.73c-30.57,46-25.61,94.62-15.67,128,13.57,45.49,41.06,80.89,60.47,97.39,24.2,20.56,54.91,25.48,76.41,26a84.9,84.9,0,0,0,50.52-14.82h0c31-21.36,47.24-53.93,52.34-106.75C406.55,612.07,396.32,619.7,382.55,624.6Zm-122.9,29.49a62.18,62.18,0,0,1-10.32-.88c-39.69-6.61-57.72-43.73-58.56-62.14-.47-10.53,6.15-27.17,19.38-37.24,8.83-6.72,24.11-13.2,46.74-5.83,43.5,14.16,52,58,52.67,62.11,1.63,6.92-2.86,17.9-11,26.84A51.93,51.93,0,0,1,259.65,654.09Zm72.62,22.68a24.16,24.16,0,0,1-25-13.16c9.44,1.82,17.93,4.94,27,2.62,5.58-1.62,9.32-4.62,14.77-8.3C348.9,667,341.43,675.56,332.27,676.77Z"/><path class="cls-4" d="M240.42,560.67c31.55,2.77,55.74,32.17,56.17,32.69-6.28-13.56-18.59-31-41.9-38.61a55,55,0,0,0-17-2.89,37.6,37.6,0,0,0-23.27,7.61c-12,9.14-16.93,23.8-16.59,31.28a30.3,30.3,0,0,0,.42,3.6C201.71,585.15,214,558.36,240.42,560.67Zm127.31-26.93c13.74-10.83,25-10.66,32.66-8.09a30.38,30.38,0,0,0-8.69-4.58,29.45,29.45,0,0,0-9.39-1.53c-8.27,0-16.71,3.46-24.47,10.17-23.74,20.53-22.12,53-22.1,53.34h0a69.27,69.27,0,0,0,.9,7.75C339,579.93,346,550.9,367.73,533.74Z"/><path class="cls-5" d="M473.4,415c1.84.74,3.61,1.41,5.42,2.06,62.14,21.6,134.06,24,193.53-6.86,2-1.16,7.56-4.07,9.37-5.2,1.45-.89,4-2.55,6.29-4,31.64,17,57.84,45.86,67.75,80.72,9.87,31.77,14.3,76.36-9.77,101-5.81-21.67-19.2-39.27-39.14-51.24a105.71,105.71,0,0,0-27.23-11.48l.59-.59c5.3-5,12.23-8.2,19.29-10a72.85,72.85,0,0,1,10.12-1.78,75.94,75.94,0,0,0-10.45-.88c-8.4,0-17.26,1.68-24.66,5.9-5.91-16.31-13.07-32.17-23.22-46.29a2.24,2.24,0,0,0-3.77,2.38c2.35,4.45,4.56,8.95,6.53,13.59a237.57,237.57,0,0,1,10.26,30H630.85c-1.08-9.84-4.22-27-13-31.83-1.78-1-3.32-1.82-55.47-.16-27.92.9-56.29,2.1-66,2.62a31.23,31.23,0,0,0-4.79.67l.13-35.54-10.11,39.73c-7.49,5-11.89,12.94-14,19.31-18-.68-36-4.37-53.84-9.44-1.91-.52-3.83-1.07-5.74-1.62-1.55-3.07-3.15-5.95-4.77-8.71a106,106,0,0,0-1-70.22A391.46,391.46,0,0,0,473.4,415Zm78.54,281.18c.2,2,.41,3.88.63,5.75-42.12-11.22-77.6,5.27-91.1,13a155,155,0,0,1-9.24-35.77l-.36-4.7c-.49-7.5,1.88-14.8,5.16-21.57,7.29-14.45,18.15-27,30-38.08,8.1,13,17,25.61,28.16,36a131.86,131.86,0,0,1-12.68-22.64c-2.72-6-5.25-12.22-7.52-18.43l38.67-.32h0l60.13-.5a41.7,41.7,0,0,0,4.62,15.73C585.11,633.57,548.32,661.25,551.94,696.21Zm-65.09-199a5.13,5.13,0,0,0,3.54-2,18.87,18.87,0,0,1,6.53-1.53l4.05-.21c2.29,35.46,5.43,38.84,6.65,40.14a37.14,37.14,0,0,0,5.12,4.13c4.56,3.31,11.45,8.32,12.25,13.67,1.16,7.69,2.53,35.44,3.08,47.41l-35.32.29a89,89,0,0,1-9.09-10.9l-.1-.13s0,0,0,0,0-.11-.07-.17l-.16-.41c-2.37-8.65-2.85-18-3.72-27-1.25-15.72-2-31.61-2.54-47.38C477.59,510.87,480,502.18,486.85,497.2Zm134.88,25.89H659a117.89,117.89,0,0,0-19.16,9.52,116.68,116.68,0,0,0-18.06,13.83Zm-5.36-10.74a5.36,5.36,0,0,0-5.37,5.37v40.41l-.85,1.11c0-14.56-.22-33.33-1.13-42.08-1-9.71-6.32-20-10.55-27,7.22-.1,12.55-.09,14.73.1,2.91,2.53,5.58,12.39,6.81,22.05Zm-12.06,91a59.42,59.42,0,0,1,5.29-22.48l0-.08c7.22-16.2,20.93-29.83,35.79-39.1a114.5,114.5,0,0,1,27.66-12.17c8,1.55,53.81,12.55,63.64,60.77a57.93,57.93,0,0,1-9,4.74,284.87,284.87,0,0,1-42.43,13.28c-9,2.36-20.19,4-27.15,11.65a44.7,44.7,0,0,0-2.85,3.69,17.19,17.19,0,0,1-6.17,4.61,40.86,40.86,0,0,1-21.19,3.77C611.79,630.76,604,618.7,604.31,603.4ZM383.09,415.31c2.34.31,4.68.54,7,.79,3.23,7.06,11.92,29.93,5.31,59.2-.77-1.07-1.53-2.14-2.29-3.14a148.63,148.63,0,0,0-32.3-31.83,194.1,194.1,0,0,0,1.56-28.83C368.82,412.84,376.91,414.55,383.09,415.31ZM281.2,412.8c17.84-5.74,36.83-6.68,55.63-5,.16,7.43,0,14.05-.27,18.82-20.95-9.33-44.07-12-68.09-7.84A55.06,55.06,0,0,1,281.2,412.8ZM462.88,785.12a3.27,3.27,0,0,1-.95-1.23,1.26,1.26,0,0,1-.08-.29l-.09-.42c-3-11.66,3.85-23.95,11.23-32.94a57.35,57.35,0,0,1,30.37-5.34,62.57,62.57,0,0,0-30.81-4.61c-2.4-4.74-4.67-9.57-6.77-14.49-.09-.23-.19-.46-.28-.7,11.16-6.58,47.07-24.51,88.57-11.57q.21,1.49.42,2.91l1.21,8.42.15-.1a216.74,216.74,0,0,0,5.16,23c-5.49,2.71-14.07,8.24-18.35,17.78-3,6.79-3.38,14.32-1.07,22.43C518.81,790.52,476.36,794.26,462.88,785.12ZM682.4,760.23c-.32,5.6-.77,11.25-1.35,16.79-33.27,21.06-89.84,17.23-128.27,10.66-2.48-6.71-2.61-12.67-.36-17.74,4.44-10,16.72-14.05,16.82-14.08l4.38-1.39c2-.56,4.09-1,6-1.41,11.25-2.14,23.51-2.19,33.69,3.86a39.11,39.11,0,0,0-10.05-6.78c-10-4.35-21-5.64-31.86-5a218.5,218.5,0,0,1-5.76-26.6c12-6.73,59.17-29.93,113.4-12.29A87.6,87.6,0,0,1,682,721.8C683.28,734.47,683.09,747.45,682.4,760.23Zm64-118.35c-13.17,23.37-35.77,41.79-60.11,53A95.56,95.56,0,0,0,674.9,672.4a89.86,89.86,0,0,1,3.88,22.47C626,679.16,581,698.18,564,707.14c-.49-3.75-1-7.74-1.41-12-3-29.25,31.09-54.33,42.32-61.75,8.92,8.5,22.73,12.1,40.23,7.83,7.38-2.08,15-5.46,19.54-12.18,1.95-2.92,4.45-4.58,7.94-6,4.46-1.72,9.85-2.91,15.17-4.23A312.94,312.94,0,0,0,720,609.46c4-1.39,8-2.88,11.9-4.51a68.82,68.82,0,0,0,13.49-7.57c.14-.08.27-.18.4-.27a65,65,0,0,0,7.35-6.29c-.51,15.61-2.59,31.37-4.46,46.75Zm47.2-14.25c-10.35,6.42-24.23,9.55-33.79,8,.5-3.9,1-7.79,1.44-11.69,1.19-10.75,2.21-21.48,2.69-32.33a147.13,147.13,0,0,0,0-15c15.59-28,11.7-67.14,2.16-97.87-10.28-36-36.49-66.2-68.71-84.76l17.55-13.28,39.28,3.45L737.5,405.27l26-18.25c8.81,11.37,34.52,49.48,42,114.8C815.46,589.28,802,622.35,793.55,627.63ZM598.34,518.28C597.23,507.65,589,495,585.8,490.45c-22.68.54-53.85,1.68-74.1,2.55,1,14.56,2.67,30,4.08,33.59.7.62,2.06,1.6,3.27,2.49,6,4.36,15.08,11,16.56,20.75,1.26,8.36,2.66,37,3.2,48.92l55-.45a66.36,66.36,0,0,1,2.59-12.75,79.47,79.47,0,0,1,2.91-7.86C599.4,571,599.73,531.53,598.34,518.28Zm-29,49.48a20.16,20.16,0,1,1,20.15-20.15A20.18,20.18,0,0,1,569.39,567.76ZM395.84,165.51c.38-.89.78-1.76,1.18-2.64s.86-2,1.31-2.93.84-1.73,1.26-2.6.92-1.94,1.41-2.89.89-1.68,1.33-2.52,1-1.93,1.52-2.88.91-1.6,1.37-2.4c.55-1,1.09-2,1.66-2.91.45-.76.93-1.51,1.4-2.27.59-1,1.18-2,1.8-2.93.47-.74,1-1.46,1.45-2.2.64-1,1.27-1.94,1.92-2.89.49-.71,1-1.4,1.49-2.1.68-1,1.35-1.94,2.05-2.89.51-.68,1-1.35,1.55-2,.71-1,1.42-1.9,2.15-2.83.53-.68,1.09-1.34,1.63-2,.74-.91,1.48-1.84,2.24-2.74.56-.67,1.14-1.31,1.71-2,.76-.89,1.52-1.78,2.31-2.65.6-.67,1.21-1.31,1.82-2,.78-.84,1.56-1.69,2.35-2.52.66-.68,1.33-1.34,2-2s1.43-1.45,2.16-2.16C457,92.93,481.23,84.44,509,80.35c50.18-7.4,104.74,7.84,146,40.76a172.54,172.54,0,0,1,43,50.2,62.57,62.57,0,0,0-7.34,10.94,159.65,159.65,0,0,0-43.56-53.14c-38.3-30.6-89.07-44.75-135.8-37.87-55.21,8.15-94.48,34.65-117.39,79.06.22-.58.46-1.15.69-1.72C395,167.56,395.4,166.53,395.84,165.51Zm349,107.89c-10.73-6.73-19.07-20.57-22.32-37-5.25-26.66,4.82-53,22-57.47a20.33,20.33,0,0,1,5.2-.67,24.71,24.71,0,0,1,13.1,4.06c10.73,6.73,19.07,20.57,22.32,37,5.25,26.66-4.82,53-22,57.47C757.22,278.35,750.9,277.18,744.87,273.4Zm1.47-105.67a32.07,32.07,0,0,0-4.51.8c-23.25,6.09-36.34,36.81-29.81,69.94,3.81,19.29,14,35.75,27.15,44a37.39,37.39,0,0,0,12,5c-.68.22-1.35.47-2,.64-9,2.29-18.43.56-27.26-5-13.62-8.58-24.1-25.36-28-44.89C687,204.39,701,171.92,725,165.83a31.9,31.9,0,0,1,7.81-1A34.3,34.3,0,0,1,746.34,167.73ZM535.46,408.53c36.15,0,71.44-10.14,101.27-30.19,35.15-23.63,57.9-57.95,65.88-97.7a65.09,65.09,0,0,0,10.16,9.26,160.15,160.15,0,0,1-35.37,67.91c-31.57,36.06-79.15,58.46-130.62,61.49-1.36-.14-2.71-.32-4.06-.49-1-.12-2-.23-3.06-.37-1.52-.22-3-.48-4.56-.73-.9-.15-1.81-.28-2.71-.44-1.71-.31-3.42-.67-5.12-1-.7-.15-1.41-.27-2.11-.43q-3.61-.8-7.17-1.74c-3.55-.95-6.67-1.87-9.55-2.8a186.8,186.8,0,0,1-18.67-7.1q-2.47-1.1-4.92-2.27A198.45,198.45,0,0,0,535.46,408.53Zm85.29,3.61a188,188,0,0,0,64.73-47.26,170.86,170.86,0,0,0,36.94-69.28,45,45,0,0,0,18.78,4.23l.74,0C721.38,353.45,676.57,395.16,620.75,412.14ZM497.16,65.88a189.18,189.18,0,0,1,38.69-11.36c5.75-1,11.63-1.81,17.53-2.3,2.32-.21,4.46-.35,6.58-.44a187.42,187.42,0,0,1,57.23,6c48.22,12.71,88.3,43.3,112.87,86.12q2.91,5.08,5.45,10.3a42.63,42.63,0,0,0-13.13,1.22A44.52,44.52,0,0,0,706,163.58a184,184,0,0,0-44.32-50.86C618.15,78,560.5,61.9,507.42,69.73A227.58,227.58,0,0,0,474.74,77,191.32,191.32,0,0,1,497.16,65.88ZM195.24,161.76a58.9,58.9,0,0,1,39.94-21.56,60.86,60.86,0,0,1,6.17-.32,59.3,59.3,0,0,1,50.5,90.19,5.31,5.31,0,0,0-.57,4.26L297.05,254l-21.11-4.74a5.28,5.28,0,0,0-3.92.65,58.75,58.75,0,0,1-24.73,8.29,59.3,59.3,0,0,1-52-96.41Z"/><path class="cls-6" d="M261.89,201.29l-.87.87-17.57,17.58a3.78,3.78,0,0,1-5.34,0l-17.58-17.58-.87-.87a14.31,14.31,0,0,1,0-20.24h0c5.59-5.6,14.66-4.59,20.25,1l.87.87.87-.87c5.59-5.59,14.65-6.6,20.24-1h0A14.31,14.31,0,0,1,261.89,201.29Z"/><path class="cls-7" d="M697.73,274.53c-6.74,40.33-29.07,75.2-64.31,98.89-53,35.64-123.92,38.85-185.14,8.41l-.24-.21c122,1.76,230.15-85.2,225.63-216.08a144.73,144.73,0,0,1,13.73,23.64c-6,14.81-7.82,32.84-4.13,51.14A89,89,0,0,0,697.73,274.53Z"/><path class="cls-8" d="M563.94,124.48s-80.64,4.08-119.53,57.9l-.12.17c-8.18,11.33-14.6,38-15.9,51.78a157.44,157.44,0,0,0,1.6,42.3c5.44,34.14,14.45,49.07,14.45,49.07-22.54-14.81-36.88-33.46-41.7-61.84q-.69-4.2-1.13-8.7c-.07-.69-.13-1.37-.17-2.07,0,0,0,0,0,0a192.7,192.7,0,0,1,.82-23.21c2.63-27.34,12.26-64,43.06-85.37C502.9,104.55,566.22,120.45,563.94,124.48Zm46.63,103.88c5.69,15.28,21.09,23.67,34.4,18.75s19.48-21.28,13.79-36.55-21.09-23.67-34.4-18.75S604.88,213.09,610.57,228.36Zm33.21,47.31c2.88,6.09,9.51,9,14.82,6.53s7.27-9.43,4.39-15.51-9.52-9-14.83-6.52S640.89,269.59,643.78,275.67Z"/></svg>