<svg id="Layer_1" data-name="Layer 1" xmlns="http://www.w3.org/2000/svg" viewBox="0 0 864 864"><defs><style>.cls-1{fill:#ffda22;}.cls-2{fill:#371a45;}.cls-3{fill:#fff;}.cls-4{fill:#22a7f0;}.cls-5{fill:#21102b;}.cls-6{fill:#8c789b;}</style></defs><title>Artboard 2</title><path class="cls-1" d="M378.54,248.53l-60.66-9.39-42.12,44.65A14.86,14.86,0,0,1,250.28,276l-9.81-60.59L185,189.12a14.86,14.86,0,0,1-.43-26.64l30.95-15.9s0,0,0,0l23.63-12.15L247,73.54a14.85,14.85,0,0,1,25.19-8.65l43.56,43.26,60.34-11.37a14.85,14.85,0,0,1,16,21.29l-27.68,54.8,24.18,44.2,5.28,9.65A14.86,14.86,0,0,1,378.54,248.53Z"/><path class="cls-2" d="M265,293.81a20.6,20.6,0,0,1-6-.9,20.09,20.09,0,0,1-14-16.08L235.65,219,182.7,194a20.19,20.19,0,0,1-.59-36.21L234.21,131l7.47-58.1A20.2,20.2,0,0,1,275.94,61.1l41.57,41.28,57.56-10.85a20.19,20.19,0,0,1,21.76,29l-26.4,52.29,28.1,51.39a20.19,20.19,0,0,1-20.8,29.64l-57.89-9-40.2,42.61A20,20,0,0,1,265,293.81ZM261.79,65.9a9.52,9.52,0,0,0-3.17.54,9.35,9.35,0,0,0-6.35,7.78l-8.19,63.67L187,167.24a9.51,9.51,0,0,0,.28,17l58,27.47,10.27,63.36a9.51,9.51,0,0,0,16.31,5l44.05-46.69,63.44,9.81a9.51,9.51,0,0,0,9.8-14L358.36,173l28.94-57.3A9.51,9.51,0,0,0,377.05,102L314,113.91,268.41,68.68A9.35,9.35,0,0,0,261.79,65.9Z"/><path class="cls-3" d="M692.69,651.52a13.41,13.41,0,0,0-1.66-5.11,14.88,14.88,0,0,0-3.38-4,23.61,23.61,0,0,0-4-2.68,51.53,51.53,0,0,0-8-3.34c-2.66-.89-5.3-1.64-7.94-2.35-5.27-1.43-10.5-2.71-15.7-4s-10.52-2.64-15.23-4.27a82.43,82.43,0,0,1-13.9-6.74,140.89,140.89,0,0,1-24.81-19.34c-1.82-1.73-3.6-3.51-5.36-5.31,0-2.48.07-4.95,0-7.37a171.43,171.43,0,0,0-2.13-25.5c9.86-.3,21.63-4.7,34-15.26l.16-.14c9.55-9.21,14.64-18.39,16.48-26.64,4.82-10.86,5.14-21.06,2.44-29.43a165.08,165.08,0,0,0,20-48.17l.06-.29c7.08-44.72-1.63-84.87-25.17-116.1-20.89-27.69-52.23-46.68-88.26-53.48a154.41,154.41,0,0,0-17.23-2.22l-.28-.09-.59-.12a128.82,128.82,0,0,0-68.94,11.92,136.89,136.89,0,0,0-15.41,8,135,135,0,0,0-46.65,47.28,128.74,128.74,0,0,0-7.64,14.2,139.26,139.26,0,0,0-5.66,13.47c-.61-1.85-1.28-3.7-2.05-5.55-.56-1.34-1.13-2.75-1.74-4.23-8.51-20.82-16.45-38.26-27.53-40.69-5.89-1.3-14.06,2.17-16.81,9.4a37.61,37.61,0,0,0-1.91,13.38c-4.55-3.44-10.74-7-16.85-7.19a14.35,14.35,0,0,0-14.54,16.24,13.19,13.19,0,0,0-6.59,1.9,13.79,13.79,0,0,0-6.64,8.59c-1.67,7.18,3.17,14.93,7.44,21.78,2.48,4,5,8.07,5.21,10.45,4,58.93,30.92,98.74,52.75,121.77a200.16,200.16,0,0,0,20.64,18.92q-2.61,6.54-4.72,12.94l-2.41.28a3.57,3.57,0,0,0-3.13,3.61,6.3,6.3,0,0,0-.77,2.58l-.11,1.43c-.61,8.14-1.56,20.85-1.84,32.89v0c0,.32,0,.63-.05,1l-.15.57A24,24,0,0,0,366,595.7a113.07,113.07,0,0,0,33.15,80.2c11.34,38.56,29.14,59,43.49,69.64,14.82,11,28.36,13.76,34.54,14.47.63,11,4.56,45.09,29.21,48.46a33.36,33.36,0,0,0,4.4.31,26.85,26.85,0,0,0,19.2-7.92c9.12-8.8,13.86-23.75,16.27-37.25,18.85-4,35-13.45,42.39-18.27,2.1,5.95,6.66,15.69,15.06,20.67a22.13,22.13,0,0,0,11.43,3.14,27.35,27.35,0,0,0,7.62-1.14c14.61-4.25,22.6-20.89,23.11-48.14a75.41,75.41,0,0,0-3-22.18c1.85.06,3.7.08,5.57,0A44.45,44.45,0,0,0,660.87,696a16.45,16.45,0,0,0,6.18-3.79,20.18,20.18,0,0,0,2.3-2.61c.34-.46.67-.93,1-1.42v0l.14,0c.6-.19,1.19-.38,1.76-.62a17.75,17.75,0,0,0,3.35-1.79,14.35,14.35,0,0,0,5.1-6,17,17,0,0,0,1.4-7.46,22,22,0,0,0-.38-3.57.5.5,0,0,0,0-.13c.37-.18.75-.33,1.11-.53a23.1,23.1,0,0,0,4-2.58,18.54,18.54,0,0,0,3.47-3.64,15,15,0,0,0,1.31-2.31l.53-1.25c.14-.43.24-.88.36-1.32a11.62,11.62,0,0,0,.37-2.68A12.88,12.88,0,0,0,692.69,651.52ZM568,678.93H568a14.71,14.71,0,0,1-6.34-1.47,37.18,37.18,0,0,0,9.67-4.43c1.75,1.23,3.49,2.48,5.26,3.69A21,21,0,0,1,568,678.93Z"/><path class="cls-4" d="M391,591.09c-1.75,7.46-5.45,13-8.28,12.31-.86-.2-11.16-3.68-11.16-3.68h0c-3.36-1.4-4.76-7.83-3.11-14.9,1.75-7.46,6.21-12.8,10-11.92a3.77,3.77,0,0,1,.81.31c1.85.64,8,2.77,9.78,3.18C391.82,577.05,392.71,583.63,391,591.09Z"/><path class="cls-2" d="M692.69,651.52a13.41,13.41,0,0,0-1.66-5.11,14.88,14.88,0,0,0-3.38-4,23.61,23.61,0,0,0-4-2.68,51.53,51.53,0,0,0-8-3.34c-2.66-.89-5.3-1.64-7.94-2.35-5.27-1.43-10.5-2.71-15.7-4s-10.52-2.64-15.23-4.27a82.43,82.43,0,0,1-13.9-6.74,140.89,140.89,0,0,1-24.81-19.34c-1.82-1.73-3.6-3.51-5.36-5.31,0-2.48.07-4.95,0-7.37a171.43,171.43,0,0,0-2.13-25.5c9.86-.3,21.63-4.7,34-15.26l.16-.14c9.55-9.21,14.64-18.39,16.48-26.64,4.82-10.86,5.14-21.06,2.44-29.43a165.08,165.08,0,0,0,20-48.17l.06-.29c7.08-44.72-1.63-84.87-25.17-116.1-20.89-27.69-52.23-46.68-88.26-53.48a154.41,154.41,0,0,0-17.23-2.22l-.28-.09-.59-.12a128.82,128.82,0,0,0-68.94,11.92,136.89,136.89,0,0,0-15.41,8,135,135,0,0,0-46.65,47.28,128.74,128.74,0,0,0-7.64,14.2,139.26,139.26,0,0,0-5.66,13.47c-.61-1.85-1.28-3.7-2.05-5.55-.56-1.34-1.13-2.75-1.74-4.23-8.51-20.82-16.45-38.26-27.53-40.69-5.89-1.3-14.06,2.17-16.81,9.4a37.61,37.61,0,0,0-1.91,13.38c-4.55-3.44-10.74-7-16.85-7.19a14.35,14.35,0,0,0-14.54,16.24,13.19,13.19,0,0,0-6.59,1.9,13.79,13.79,0,0,0-6.64,8.59c-1.67,7.18,3.17,14.93,7.44,21.78,2.48,4,5,8.07,5.21,10.45,4,58.93,30.92,98.74,52.75,121.77a200.16,200.16,0,0,0,20.64,18.92q-2.61,6.54-4.72,12.94l-2.41.28a3.57,3.57,0,0,0-3.13,3.61,6.3,6.3,0,0,0-.77,2.58l-.11,1.43c-.61,8.14-1.56,20.85-1.84,32.89v0c0,.32,0,.63-.05,1l-.15.57A24,24,0,0,0,366,595.7a113.07,113.07,0,0,0,33.15,80.2c11.34,38.56,29.14,59,43.49,69.64,14.82,11,28.36,13.76,34.54,14.47.63,11,4.56,45.09,29.21,48.46a33.36,33.36,0,0,0,4.4.31,26.85,26.85,0,0,0,19.2-7.92c9.12-8.8,13.86-23.75,16.27-37.25,18.85-4,35-13.45,42.39-18.27,2.1,5.95,6.66,15.69,15.06,20.67a22.13,22.13,0,0,0,11.43,3.14,27.35,27.35,0,0,0,7.62-1.14c14.61-4.25,22.6-20.89,23.11-48.14a75.41,75.41,0,0,0-3-22.18c1.85.06,3.7.08,5.57,0A44.45,44.45,0,0,0,660.87,696a16.45,16.45,0,0,0,6.18-3.79,20.18,20.18,0,0,0,2.3-2.61c.34-.46.67-.93,1-1.42v0l.14,0c.6-.19,1.19-.38,1.76-.62a17.75,17.75,0,0,0,3.35-1.79,14.35,14.35,0,0,0,5.1-6,17,17,0,0,0,1.4-7.46,22,22,0,0,0-.38-3.57.5.5,0,0,0,0-.13c.37-.18.75-.33,1.11-.53a23.1,23.1,0,0,0,4-2.58,18.54,18.54,0,0,0,3.47-3.64,15,15,0,0,0,1.31-2.31l.53-1.25c.14-.43.24-.88.36-1.32a11.62,11.62,0,0,0,.37-2.68A12.88,12.88,0,0,0,692.69,651.52ZM613,345.75c17.65,34.18,20.93,72.95,9,106.31a140.49,140.49,0,0,1-7,15.36,44.66,44.66,0,0,0-8-.16c12.07-21.63,16.75-47.32,13.53-75.17l0-.22c-6.69-37.59-23.9-67.88-49.76-87.59a114.71,114.71,0,0,0-81.65-22.78c-3.3.34-6.56.83-9.79,1.44a143.21,143.21,0,0,1,52.49-6.15C565.86,286.69,595.42,311.77,613,345.75ZM393.61,454.92c12.63,23.17,29.81,41.43,50.73,53.61a121.55,121.55,0,0,0,87,13.78,119,119,0,0,0,17.84-5.38,41.09,41.09,0,0,0-1,8.48,128,128,0,0,1-75.44,3c-30.13-8.13-61.51-29.44-76.58-65.84C395.22,460.07,394.39,457.51,393.61,454.92Zm77.24,80.41A135.34,135.34,0,0,0,506.17,540a132.78,132.78,0,0,0,42.69-7,32.94,32.94,0,0,0,4.86,11.78,143.63,143.63,0,0,1-101-15.8A130,130,0,0,0,470.85,535.33ZM559.21,551a35.3,35.3,0,0,0,18.53,8.15,27.92,27.92,0,0,0,5.45,1.67,153.8,153.8,0,0,1,2.36,25.81q-4.62-5.14-9-10.5c-6.54-8-12.77-16.26-18.61-24.81Zm60.64-10.22c-20,17-37.38,16-45.11,7.82-7.11-7.51-7.14-22.55,8.76-39.26,19.5-18.1,38.3-18.49,46.8-9.52C637.65,507.58,637.5,523.69,619.85,540.78Zm-41.31-36.62-.16.14C563,520.42,560.53,535.84,565,546.48a24.25,24.25,0,0,1-2.7-2.45c-10-10.54-11-30.69,9.31-52,24.06-22.13,48.24-21.48,59.71-9.39A25.73,25.73,0,0,1,638,498a22.55,22.55,0,0,0-2.49-3.15C624.56,483.33,601.48,482.81,578.54,504.16Zm78.13-64a159.86,159.86,0,0,1-16.65,42,31.72,31.72,0,0,0-3.51-4.5A33.3,33.3,0,0,0,622.27,469a149.58,149.58,0,0,0,6.47-14.42c12.59-35.3,9.17-76.16-9.39-112.09-13.29-25.73-33.17-46.58-56.68-60.16C619.71,299.12,670.39,353.1,656.67,440.21ZM306.78,374.13c-3.53-5.65-7.53-12.06-6.54-16.33a6.83,6.83,0,0,1,3.42-4.12,7.64,7.64,0,0,1,5.79-.51,53.15,53.15,0,0,0,8.18,10.59,43.06,43.06,0,0,1,7.83,10.46,3.59,3.59,0,0,0,3.2,2,3.52,3.52,0,0,0,1.63-.39,3.59,3.59,0,0,0,1.57-4.83,49.64,49.64,0,0,0-9-12.11,44.07,44.07,0,0,1-7.78-10.31,1.94,1.94,0,0,0-.15-.24s0-.07-.05-.1c-.36-.55-3.41-5.5.89-9.65a6.63,6.63,0,0,1,5.06-1.94c6.38.15,14.48,6.87,18,10.3a132.14,132.14,0,0,0,4.88,19.39,3.59,3.59,0,0,0,3.42,2.51,3.67,3.67,0,0,0,1.08-.16,3.6,3.6,0,0,0,2.35-4.5c-4.15-13.19-4.73-19.08-4.75-19.2a1.43,1.43,0,0,0,0-.22.34.34,0,0,0,0-.1c-.57-3.2-1.54-12.81.75-18.84a8.3,8.3,0,0,1,8.56-4.94c4.39,1,8.94,7.5,13,15.34a10.52,10.52,0,0,0-1.39-.81l-.55-.26a7.3,7.3,0,0,0-.86-.27,5.53,5.53,0,0,0-1.52-.18,6.33,6.33,0,0,0-1.19.05,9.51,9.51,0,0,0-1,.16,13.39,13.39,0,0,0-1.89.51,16.1,16.1,0,0,0-3.39,1.58,11.79,11.79,0,0,0-1.58,1.1A12.77,12.77,0,0,0,351.9,341a14.6,14.6,0,0,0-1,1.91,10.68,10.68,0,0,0-.81,4.33,9,9,0,0,0,.22,2.11,14.58,14.58,0,0,0,.48,1.88c.33,1,.71,2.07,1.14,3.08a39.63,39.63,0,0,0,3,5.67c.44.71.88,1.37,1.23,1.93l-.47.47c-.7.7-1.44,1.51-2.15,2.32a21.88,21.88,0,0,0-3.67,5.6,17.27,17.27,0,0,0-1.48,6.6c0,.56,0,1.12.07,1.66a14.58,14.58,0,0,0,.27,1.63l.16.79.27.78c.18.51.38,1,.6,1.49a.65.65,0,0,0,.37.34.64.64,0,0,0,.81-.39v-.05a46.28,46.28,0,0,1,2.05-5.3,27.87,27.87,0,0,1,2.62-4.32,30.54,30.54,0,0,1,3.32-3.75c.64-.6,1.3-1.17,2-1.8l1.14-1c.24-.24.42-.38.71-.7a6.2,6.2,0,0,0,1-1.37,5.74,5.74,0,0,0,.66-2.37,6.17,6.17,0,0,0-.25-1.92,7.08,7.08,0,0,0-.48-1.29c-.18-.41-.32-.61-.48-.93-.63-1.07-1.15-1.87-1.68-2.66a39.86,39.86,0,0,1-2.66-4.56c-1.7-3.71-2-4.94-.42-6.83a7.87,7.87,0,0,1,3.41-2.08,4.61,4.61,0,0,1,1.49-.27c.08,0,.44.31.71.5a32.17,32.17,0,0,1,3.67,3.57c1.18,1.32,2.31,2.72,3.4,4.14a64.87,64.87,0,0,1,5.79,9.07,62.76,62.76,0,0,1,4.32,10.41v0a.62.62,0,0,0,.89.35c.71,2.56,1.26,5.11,1.72,7.67-.66,2.75-1.26,5.5-1.73,8.25h0l0,.17v0a.17.17,0,0,1,0,.07v0h0a168.51,168.51,0,0,0-2,35.64v.73l0,.51.08.24A136.94,136.94,0,0,0,385,452.16a80.5,80.5,0,0,1-9.25,9.21C362.49,472.51,349.43,475,337,468.83a189.1,189.1,0,0,1-23.89-80.93C312.77,383.73,309.86,379.07,306.78,374.13Zm49.84-11.38Zm.37-1.7v0Zm6.87,144.17a186.8,186.8,0,0,1-22-28.25,34.22,34.22,0,0,0,8.49,1.09c15.13,0,28.07-10.13,36.75-19.42q1.8,5.21,4,10.16c.1.25.21.48.31.73a2.14,2.14,0,0,0,.1.22,134.1,134.1,0,0,0,8.74,17.4,310.88,310.88,0,0,0-18.09,35A192.81,192.81,0,0,1,363.86,505.22ZM404.58,494c1.39,2.05,2.85,4.06,4.36,6,20.84,27.13,51.79,45.76,87.15,52.46a154,154,0,0,0,28.48,2.68,147.69,147.69,0,0,0,25.54-2.23c.4.59.81,1.17,1.22,1.75,12.17,17.26,25.23,34,40.53,48.9-10.41,5.79-35.63,22.36-35.81,46.93l0,0-1.95-2-3.89-4.09a182.34,182.34,0,0,1-13.72-17.82c-4.3-6.15-8.3-12.32-13.19-18.46l0,0a1.24,1.24,0,0,0-2.19.94c1.08,7.51,4.4,14.3,8.29,20.59-28.23,5.79-60.39-12-68.67-17,.7-3.24,1.43-6.33,2.12-9.21.43-1.8.85-3.53,1.23-5.19a17.46,17.46,0,0,0-9-19.43c-33.09-17.08-63.85-37.54-64.16-37.75a3.54,3.54,0,0,0-2.39-.57l-6.06.72A273.42,273.42,0,0,1,404.58,494ZM568,678.93H568a14.71,14.71,0,0,1-6.34-1.47,37.18,37.18,0,0,0,9.67-4.43c1.75,1.23,3.49,2.48,5.26,3.69A21,21,0,0,1,568,678.93Zm-13.24-7a44.83,44.83,0,0,1-7.11-13.46c.16-.82.39-2.17.62-3.86.33-.29.62-.58.93-.87l1.72,1.8,2.13,2c1.42,1.34,2.81,2.72,4.25,4l4.44,3.86c1.11,1,2.27,1.94,3.45,2.86A40.46,40.46,0,0,1,554.78,671.91Zm-170.4-83.37a24.38,24.38,0,0,0,.26-11c1.57.51,3,1,3.73,1.12.75.5,1.94,4.78.28,11.88S384,601,383.24,601.09c-.35-.09-2.16-.68-4.52-1.46A22.88,22.88,0,0,0,384.38,588.54Zm-6.82-13.36.3,0c1.84.43,3.49,5.42,1.9,12.25s-5.29,10.58-7.12,10.14-3.5-5.41-1.9-12.24C372.25,578.88,375.64,575.18,377.56,575.18ZM373.94,603c3.4,1.14,7.57,2.52,8.21,2.67a4.85,4.85,0,0,0,1.06.12c4.63,0,8.41-7.12,10.07-14.2a31.17,31.17,0,0,0,.76-10.76c-.69-5.16-3.12-6.47-4.51-6.8s-6.81-2.16-9.42-3.06a6.18,6.18,0,0,0-6.24.54c.4-7.81.93-15.16,1.32-20.3,7.08,7.82,20.21,20.18,40.89,32.1l-4.15,23.36L403.5,608a2.37,2.37,0,0,0-2,2.2l-1.38,22c-13-8.59-23.37-17.62-25.17-23.67A32.77,32.77,0,0,1,373.94,603Zm32.15,9.33,8.23-1.21a2.38,2.38,0,0,0,2-1.94l4.16-23.41c4,2.16,8.16,4.3,12.65,6.38a5.68,5.68,0,0,1,3.23,6,301.46,301.46,0,0,0-3.5,45.63,3.68,3.68,0,0,1-1.73,3.26,4.76,4.76,0,0,1-4.65.14,232.12,232.12,0,0,1-21.8-12.11Zm30-26.64c-27.83-12.89-45-27.91-53.95-37.44l5.88-.7c5.82,3.83,33.83,22,63.74,37.42a10.34,10.34,0,0,1,5.3,11.52c-.37,1.64-.78,3.35-1.2,5.12-.72,3-1.47,6.18-2.2,9.54a16.14,16.14,0,0,0-11.56,11c-2.2,7.27.71,15.4,7.88,23v.07c.06,2.59-.69,5.2-1.73,6.07-.17.15-.46.38-1.33.21-1.65-.34-5.06-1.08-8.64-1.87a10.88,10.88,0,0,0,1.67-5.93,293.37,293.37,0,0,1,3.42-44.5A12.85,12.85,0,0,0,436.11,585.73ZM449,624.32a9.28,9.28,0,0,1,6.9-6.3c6.16,3.88,33.41,20,61.55,20A63.49,63.49,0,0,0,533.78,636c1.08,1.46,2.28,2.83,3.41,4.25l1.86,2.28c.63.76,1.3,1.47,2,2.21l3.32,3.8c-.26.25-.52.49-.8.73-22.45,18.45-57.57,13-79.23-1.41C452.79,640.15,446.92,631.14,449,624.32Zm-72.39-1.57c12.92,12.82,36.37,25.84,46.77,30.88a12.44,12.44,0,0,0,4.82,1.22c5.46,1.19,14.64,3.15,17.31,3.7a10.1,10.1,0,0,0,2,.21,8.12,8.12,0,0,0,5.31-1.92,11.83,11.83,0,0,0,3.54-5.9c1.25,1,2.55,1.93,3.95,2.86a87.93,87.93,0,0,0,47.59,14.54A64.47,64.47,0,0,0,540.61,660c4.55,13.72,12.16,22.59,21.39,25.27-1.67,13.27-10,64.07-40,72.59a51,51,0,0,1-9.81-2.12c-29.44-9.62-50.23-47.12-50.44-47.5l-.68-1.25-1.36-.44c-.62-.21-62.67-21-81.48-78.07C377.65,626.56,377.11,624.66,376.6,622.75ZM415,698.31c-1.77-3.82-3.47-7.91-5.08-12.3a159,159,0,0,0,46.23,26.87c1.19,2,3.81,6.37,7.65,11.69a44.85,44.85,0,0,1-15.11-.63C431.31,720.11,420.11,706.16,415,698.31ZM525,795.69a20.08,20.08,0,0,1-17.65,5.67c-22.65-3.1-23.12-44.31-23.12-44.72l0-3.6-3.6,0c-.19,0-15.83,0-33.7-13.28a90.39,90.39,0,0,1-18.27-18.46,52.22,52.22,0,0,0,18.78,8.4,49.54,49.54,0,0,0,10.82,1.18,54.94,54.94,0,0,0,9.72-.9c9.57,12.07,24.15,26.67,42.06,32.52a61.61,61.61,0,0,0,19.36,3,75,75,0,0,0,9.39-.6C536.47,776.45,532.33,788.59,525,795.69Zm113.68-76c-.25,13.58-2.92,37-17.93,41.38-5.06,1.48-9.43,1.06-13.37-1.26-7.44-4.39-11.23-14.38-12.6-18.82a34.19,34.19,0,0,0,5.13-4.93,44.53,44.53,0,0,0,5.26-7.69,52.92,52.92,0,0,0,3.79-8.42,40.55,40.55,0,0,0,2.08-8.93.5.5,0,0,0-.25-.49.52.52,0,0,0-.72.16v0c-1.56,2.51-3.19,5-4.9,7.27s-3.47,4.57-5.32,6.7-3.77,4.15-5.7,6.13-3.9,3.85-5.74,5.93c-1.86,1.35-26.31,18.74-53.08,21.19,24.2-16.89,31.05-59.25,32.59-71.88H568c5.45,0,10.59-2.15,15.56-4.9l.88.55,1.3.71,5.2,2.83c1.73.94,3.58,1.69,5.36,2.55l2.7,1.24c.92.38,1.86.71,2.79,1.06a96.74,96.74,0,0,0,23,5.9c3.43.49,6.86.88,10.31,1.18A68.43,68.43,0,0,1,638.66,719.73Zm35.48-43a7,7,0,0,1-2.6,3.07,10.44,10.44,0,0,1-2,1c-.35.15-.72.27-1.09.39l-.55.14-.41.09-1.94.42-.2.39a14.49,14.49,0,0,1-3.27-.43c-1.88-.46-4-1.15-6.3-1.78a53.07,53.07,0,0,0-7-1.43,48.84,48.84,0,0,0-7.05-.48.45.45,0,0,0-.39.23.44.44,0,0,0,.19.59h0c4.16,2.13,8.32,4,12.23,6.1a38,38,0,0,0,6.56,3l.32.08-.3.21a7.92,7.92,0,0,1-1.86.87,38.69,38.69,0,0,1-10.29,1.38,139.67,139.67,0,0,1-22.35-1.62,89.72,89.72,0,0,1-21.49-5.48c-.86-.33-1.74-.63-2.59-1l-2.53-1.17c-1.68-.8-3.41-1.5-5-2.39l-4.92-2.68-1.23-.67-1.19-.74-2.38-1.49c-3.22-1.91-6.23-4.17-9.31-6.31-1.52-1.1-3-2.31-4.45-3.45s-3-2.31-4.36-3.58l-3.82-3.32c-4.91-26,25.2-44.18,33.84-48.83a143.66,143.66,0,0,0,22.78,17.27,85.33,85.33,0,0,0,12,6,3.59,3.59,0,0,0,2.44,2.85h0a113.61,113.61,0,0,1,17.45,7.08,64.19,64.19,0,0,1,7.87,4.75,23.39,23.39,0,0,1,6,5.74,4.82,4.82,0,0,1,.59,1.25,1.24,1.24,0,0,1,.06.36s0,.08,0,.08,0,0,0,.13a6.22,6.22,0,0,1-1.48,2.67,7.6,7.6,0,0,1-6.06,2.22,19.21,19.21,0,0,1-7.79-2.4,86.59,86.59,0,0,1-7.77-4.64l-2.44-1.6-2.12,1.69c-1.32,1.06-2.85,2.22-4.33,3.28s-3,2.12-4.54,3.12-3.09,1.95-4.7,2.8a38.65,38.65,0,0,1-5,2.23l-.08,0a1.2,1.2,0,0,0-.8,1,1.23,1.23,0,0,0,1,1.4,19.48,19.48,0,0,0,6.33-.2l1.54-.32c.5-.12,1-.27,1.5-.41,1-.28,2-.63,2.94-1a47.64,47.64,0,0,0,5.55-2.61c.9-.48,1.76-1,2.63-1.56l.23-.15a47.9,47.9,0,0,0,6.79,3.73l1.54.65c-1.74.12-3.47.28-5.19.53a.44.44,0,0,0,0,.85h0c2.83.7,5.62,1.27,8.37,2s5.44,1.45,8.21,2.2a38.13,38.13,0,0,0,9,1.57,30.14,30.14,0,0,0,5.8-.43,14.78,14.78,0,0,1,.25,2.36A9.89,9.89,0,0,1,674.14,676.69Zm11.5-22.84a5.18,5.18,0,0,1-.18,1.31c-.06.21-.09.42-.16.63l-.27.61a7.06,7.06,0,0,1-.67,1.19,11.31,11.31,0,0,1-2.1,2.18,16.12,16.12,0,0,1-2.79,1.81c-.5.27-1,.51-1.56.74s-1.12.44-1.49.55l-2.54.79c-1.68.14-3.34.28-5,.32-1.16,0-2.34,0-3.55-.08a13.87,13.87,0,0,0,4-3,13.47,13.47,0,0,0,3.18-5.77,6.72,6.72,0,0,0,.2-1.06,7.23,7.23,0,0,0,0-1.13,8.63,8.63,0,0,0-.31-2,12.12,12.12,0,0,0-1.42-3.16,22.6,22.6,0,0,0-3.75-4.41,39.58,39.58,0,0,0-3.7-3l2.25.58c2.56.7,5.1,1.42,7.55,2.24a44.76,44.76,0,0,1,6.88,2.84,11,11,0,0,1,4.52,3.94,6.27,6.27,0,0,1,.79,2.52A6,6,0,0,1,685.64,653.85Z"/><path class="cls-5" d="M552.09,507.94a112.67,112.67,0,0,1-22.3,7.35c-48.77,10.55-108-10.1-136.81-78.08a110.89,110.89,0,0,1-5.2-34.15c1.76-22.52,7.82-41.7,16.77-57.55a141,141,0,0,1,15.56-20.85c-16.66,74.16,44.23,173.06,135.76,176A59.64,59.64,0,0,0,552.09,507.94Z"/><path class="cls-6" d="M577,462c-23.23,15.24-41-10.9-23.09-27.46C577.58,415,599,445.43,577,462Zm-47.5,8.38c-9.49,6.7-1.52,18,7.71,12.67C546.65,476.38,538.68,465.09,529.46,470.41Zm48.81-117.24c-10.55-38.27-101.85-98.49-156.45-7.44C471,324.2,522.31,311.58,578.27,353.17Z"/></svg>