<svg width="107" height="114" viewBox="0 0 107 114" fill="none" xmlns="http://www.w3.org/2000/svg">
<g filter="url(#filter0_d_122_103)">
<path d="M36.9228 99.0366L43.0697 78.1022L45.4821 78.8106L39.3352 99.745L36.9228 99.0366Z" fill="white"/>
<path d="M28.8992 68.041C29.9318 69.2326 30.5594 70.4884 30.7822 71.8084C30.995 73.1276 30.8287 74.4323 30.2833 75.7226C29.7278 77.012 28.8167 78.2056 27.55 79.3032C26.2832 80.4009 24.9668 81.1375 23.6007 81.513C22.2245 81.8879 20.9049 81.8942 19.6419 81.532C18.3688 81.1691 17.2486 80.4294 16.2812 79.3129C15.7231 78.6688 15.2793 77.9398 14.9498 77.1257C14.6204 76.3117 14.4739 75.4377 14.5105 74.5038C14.5417 73.5746 14.8193 72.6152 15.3432 71.6255C15.8671 70.6359 16.7061 69.6411 17.8601 68.6411L18.6653 67.9435L26.9254 77.4762L25.283 78.8994L18.6971 71.299C17.9994 71.9036 17.4977 72.5827 17.192 73.3362C16.8817 74.0843 16.7892 74.8506 16.9143 75.6349C17.0348 76.4139 17.3928 77.1469 17.9881 77.8339C18.6439 78.5907 19.3992 79.0828 20.2539 79.3101C21.0987 79.5366 21.9469 79.5394 22.7985 79.3184C23.6501 79.0973 24.4167 78.6915 25.0984 78.1008L26.1934 77.152C27.1273 76.3427 27.7795 75.4956 28.1499 74.6108C28.5103 73.7253 28.6084 72.8462 28.4443 71.9735C28.2748 71.1054 27.8575 70.2876 27.1924 69.52C26.7598 69.0209 26.2994 68.6304 25.811 68.3488C25.3126 68.0664 24.7932 67.9009 24.253 67.8522C23.7073 67.8081 23.15 67.8916 22.5811 68.1027L21.5057 65.8205C22.2958 65.4742 23.1247 65.3245 23.9923 65.3715C24.8547 65.4231 25.708 65.6704 26.5524 66.1135C27.3914 66.5612 28.1737 67.2037 28.8992 68.041Z" fill="white"/>
<path d="M21.8929 53.1156C22.0405 54.1419 21.9811 55.1012 21.7147 55.9934C21.4413 56.8865 20.9709 57.6322 20.3035 58.2305C19.6291 58.8297 18.7646 59.2051 17.7101 59.3567C16.7822 59.4902 16.0037 59.4155 15.3747 59.1329C14.7386 58.8512 14.2114 58.4283 13.7931 57.8642C13.3747 57.3001 13.0317 56.6606 12.7638 55.9457C12.488 55.2248 12.2468 54.4953 12.0402 53.7572C11.7722 52.7912 11.5625 52.007 11.4113 51.4045C11.2521 50.7959 11.0714 50.3627 10.8693 50.1047C10.6661 49.8398 10.3642 49.7361 9.96351 49.7937L9.87915 49.8058C8.83871 49.9554 8.0712 50.3564 7.57661 51.0087C7.08102 51.654 6.9156 52.5495 7.08035 53.6954C7.25117 54.8835 7.6452 55.7776 8.26245 56.3776C8.8797 56.9777 9.5033 57.3724 10.1332 57.5617L9.62925 60.045C8.58441 59.7647 7.73728 59.3125 7.08787 58.6884C6.43041 58.0582 5.93258 57.3405 5.59437 56.5352C5.24812 55.724 5.01637 54.9106 4.89912 54.0951C4.82433 53.5749 4.80168 52.9683 4.83119 52.2752C4.85265 51.5761 5.00771 50.8829 5.29636 50.1956C5.584 49.5013 6.08064 48.8882 6.78626 48.3562C7.49188 47.8243 8.48794 47.4658 9.77442 47.2808L20.4459 45.7465L20.8037 48.2351L18.6104 48.5505L18.6286 48.677C19.0043 48.7952 19.4209 49.0223 19.8782 49.3584C20.3355 49.6944 20.7518 50.1691 21.127 50.7825C21.5022 51.3959 21.7575 52.1735 21.8929 53.1156ZM19.6028 53.0574C19.4613 52.0732 19.1487 51.2714 18.665 50.6521C18.1803 50.0258 17.6074 49.5844 16.9463 49.3279C16.2841 49.0643 15.6156 48.981 14.9407 49.0781L12.663 49.4056C12.8047 49.4928 12.9541 49.7081 13.1111 50.0515C13.26 50.3888 13.4065 50.7839 13.5506 51.2368C13.6866 51.6836 13.814 52.121 13.9329 52.5487C14.0438 52.9705 14.136 53.3124 14.2096 53.5745C14.3869 54.2091 14.6109 54.794 14.8816 55.3291C15.1442 55.8582 15.4866 56.2682 15.9087 56.5591C16.3228 56.844 16.8462 56.9409 17.4789 56.8499C18.3436 56.7256 18.9514 56.3118 19.3023 55.6083C19.6451 54.8989 19.7453 54.0486 19.6028 53.0574Z" fill="white"/>
<path d="M22.5783 36.915L7.69343 30.1173L8.70247 27.9078L10.9507 28.9346L11.0215 28.7795C10.4089 28.1718 10.0356 27.4079 9.90143 26.4878C9.76728 25.5677 9.90378 24.6618 10.3109 23.7703C10.3876 23.6023 10.4868 23.3938 10.6083 23.1448C10.7298 22.8958 10.8265 22.7097 10.8985 22.5863L13.2242 23.6485C13.1694 23.7172 13.0592 23.8815 12.8936 24.1416C12.7245 24.3923 12.5706 24.6695 12.4319 24.9731C12.1015 25.6967 11.9582 26.4121 12.0022 27.1193C12.0427 27.8171 12.2526 28.4516 12.6319 29.0231C13.0077 29.5851 13.5315 30.0195 14.2034 30.3263L23.6228 34.628L22.5783 36.915Z" fill="white"/>
<path d="M27.2377 14.0003L32.5596 22.2813L30.4445 23.6406L21.5977 9.87466L23.641 8.56146L25.0234 10.7124L25.2026 10.5972C25.076 9.6908 25.205 8.8143 25.5896 7.96772C25.9704 7.11515 26.6806 6.35481 27.7202 5.68669C28.6522 5.08769 29.5907 4.75475 30.5355 4.68788C31.4764 4.61504 32.3888 4.83921 33.2725 5.36037C34.1523 5.87556 34.9685 6.71869 35.7211 7.88975L41.3426 16.6369L39.2275 17.9962L33.6982 9.39243C33.0032 8.31099 32.181 7.64901 31.2315 7.40649C30.2782 7.158 29.3117 7.34861 28.3318 7.97834C27.6566 8.41223 27.1473 8.94643 26.8036 9.58094C26.466 10.2116 26.3253 10.9057 26.3815 11.6631C26.4378 12.4206 26.7231 13.1996 27.2377 14.0003Z" fill="white"/>
<path d="M61.9975 14.4153L70.8444 0.649341L72.8877 1.96255L71.5054 4.11348L71.6847 4.22867C72.4437 3.67808 73.2735 3.40507 74.1739 3.40964C75.0782 3.40823 75.9784 3.69551 76.8746 4.27148C77.7828 4.85513 78.4061 5.54699 78.7446 6.34707C79.093 7.14501 79.2013 8.02087 79.0695 8.97464L79.2129 9.06679C80.0224 8.58234 80.914 8.35754 81.8878 8.3924C82.8655 8.42128 83.8472 8.7525 84.8331 9.38606C86.0639 10.1771 86.823 11.2094 87.1103 12.4832C87.4015 13.751 87.0269 15.1945 85.9863 16.8136L80.0653 26.0268L77.9502 24.6675L83.8712 15.4544C84.524 14.4386 84.7127 13.5341 84.4373 12.7409C84.1619 11.9476 83.6479 11.3091 82.895 10.8253C81.9271 10.2032 80.9891 10.0141 80.0811 10.2579C79.1769 10.4957 78.4387 11.0597 77.8666 11.95L72.1069 20.9122L69.956 19.5299L76.0151 10.1016C76.5181 9.31894 76.6693 8.52541 76.4686 7.72104C76.2718 6.9107 75.7731 6.24826 74.9724 5.73373C74.4227 5.38047 73.8148 5.19664 73.1487 5.18222C72.4885 5.17164 71.8451 5.33218 71.2182 5.66384C70.6012 5.99337 70.0758 6.49571 69.6419 7.17086L64.1126 15.7746L61.9975 14.4153Z" fill="white"/>
<path d="M82.5448 34.0717C81.9312 32.7279 81.7125 31.4028 81.8889 30.0965C82.0682 28.7965 82.603 27.5997 83.4934 26.506C84.3866 25.4188 85.6021 24.5241 87.1397 23.8219C88.6902 23.1138 90.172 22.7767 91.5851 22.8107C93.0011 22.8511 94.2591 23.2291 95.3589 23.9449C96.4617 24.6671 97.32 25.7001 97.9337 27.0439C98.5473 28.3876 98.7645 29.7095 98.5852 31.0094C98.4088 32.3158 97.8708 33.5141 96.971 34.6042C96.0742 35.7009 94.8506 36.6032 93.3001 37.3113C91.7625 38.0135 90.2889 38.3429 88.8793 38.2996C87.4727 38.2627 86.2179 37.8832 85.1151 37.161C84.0153 36.4452 83.1585 35.4155 82.5448 34.0717ZM84.5993 33.1335C85.0654 34.1542 85.7106 34.8746 86.5349 35.2946C87.3591 35.7146 88.2699 35.8881 89.2673 35.8152C90.2646 35.7423 91.2607 35.4787 92.2556 35.0243C93.2505 34.57 94.1053 33.9883 94.82 33.2793C95.5347 32.5704 96.0064 31.7655 96.2352 30.8646C96.4641 29.9637 96.3454 29.0028 95.8792 27.9821C95.4131 26.9613 94.7646 26.2424 93.9339 25.8254C93.1032 25.4084 92.186 25.2378 91.1822 25.3136C90.1784 25.3894 89.179 25.6545 88.1841 26.1089C87.1892 26.5633 86.3376 27.1435 85.6294 27.8495C84.9212 28.5555 84.4559 29.3575 84.2336 30.2554C84.0112 31.1534 84.1331 32.1127 84.5993 33.1335Z" fill="white"/>
<path d="M85.9191 48.7458L102.116 51.0746L101.771 53.4789L99.3241 53.1271L99.2998 53.2959C100.059 53.7064 100.632 54.3341 101.02 55.1792C101.408 56.0242 101.532 56.9318 101.393 57.902C101.367 58.0848 101.33 58.3127 101.284 58.5859C101.237 58.8591 101.197 59.0649 101.163 59.2035L98.6319 58.8396C98.6651 58.7583 98.7246 58.5695 98.8102 58.2733C98.9019 57.9851 98.9715 57.6758 99.019 57.3454C99.1322 56.558 99.068 55.8313 98.8266 55.1652C98.5911 54.5071 98.211 53.9573 97.686 53.5159C97.1672 53.0825 96.5421 52.8133 95.811 52.7081L85.5613 51.2345L85.9191 48.7458Z" fill="white"/>
<path d="M77.332 68.6937C78.3645 67.5021 79.5182 66.7021 80.7931 66.2937C82.0686 65.8954 83.3837 65.8743 84.7384 66.2306C86.0938 66.5968 87.4049 67.3288 88.6716 68.4264C89.9384 69.5241 90.8548 70.7223 91.421 72.0211C91.9879 73.3299 92.1819 74.6351 92.0032 75.9368C91.8251 77.2486 91.2523 78.4627 90.2849 79.5791C89.7268 80.2232 89.0683 80.7663 88.3095 81.2082C87.5506 81.6502 86.7064 81.9195 85.7768 82.0162C84.8526 82.1176 83.8634 81.9794 82.8093 81.6016C81.7551 81.2239 80.6511 80.535 79.497 79.535L78.6919 78.8374L86.9521 69.3046L88.5946 70.7278L82.0087 78.3283C82.7065 78.9329 83.4501 79.3329 84.2394 79.5282C85.0241 79.7288 85.7957 79.7114 86.5543 79.4759C87.3081 79.2457 87.9827 78.7872 88.5781 78.1001C89.2339 77.3433 89.6134 76.5257 89.7167 75.6472C89.8208 74.7788 89.7028 73.9389 89.3628 73.1274C89.0228 72.3159 88.512 71.6149 87.8303 71.0242L86.7353 70.0754C85.8014 69.2661 84.8701 68.7411 83.9416 68.5004C83.0138 68.2697 82.1296 68.2977 81.2892 68.5844C80.4541 68.8757 79.704 69.4051 79.0389 70.1727C78.6064 70.6719 78.2855 71.1832 78.0762 71.7067C77.8676 72.2402 77.7777 72.7778 77.8064 73.3195C77.8404 73.8659 78.0024 74.4056 78.2922 74.9388L76.1863 76.328C75.7311 75.5952 75.465 74.7961 75.388 73.9305C75.3164 73.0697 75.4397 72.1898 75.7581 71.291C76.0818 70.3968 76.6065 69.531 77.332 68.6937Z" fill="white"/>
</g>
<defs>
<filter id="filter0_d_122_103" x="0.0379639" y="0.469727" width="106.331" height="113.275" filterUnits="userSpaceOnUse" color-interpolation-filters="sRGB">
<feFlood flood-opacity="0" result="BackgroundImageFix"/>
<feColorMatrix in="SourceAlpha" type="matrix" values="0 0 0 0 0 0 0 0 0 0 0 0 0 0 0 0 0 0 127 0" result="hardAlpha"/>
<feOffset dy="10"/>
<feGaussianBlur stdDeviation="2"/>
<feComposite in2="hardAlpha" operator="out"/>
<feColorMatrix type="matrix" values="0 0 0 0 0 0 0 0 0 0 0 0 0 0 0 0 0 0 0.25 0"/>
<feBlend mode="normal" in2="BackgroundImageFix" result="effect1_dropShadow_122_103"/>
<feBlend mode="normal" in="SourceGraphic" in2="effect1_dropShadow_122_103" result="shape"/>
</filter>
</defs>
</svg>
