<svg width="224" height="228" viewBox="0 0 224 228" fill="none" xmlns="http://www.w3.org/2000/svg">
<mask id="mask0_25_144" style="mask-type:alpha" maskUnits="userSpaceOnUse" x="28" y="21" width="182" height="175">
<path d="M162.561 193.426L119.223 170.822L76.0361 193.712C74.0867 194.746 71.8868 195.215 69.685 195.065C67.4831 194.915 65.3671 194.153 63.5759 192.864C61.7848 191.574 60.3899 189.81 59.5488 187.769C58.7077 185.729 58.4539 183.494 58.8162 181.317L66.9244 133.119L31.8248 99.0992C30.2406 97.5629 29.1176 95.6141 28.5827 93.4731C28.0477 91.3322 28.1222 89.0842 28.7975 86.9833C29.4729 84.8824 30.7224 83.0122 32.4047 81.584C34.087 80.1558 36.1352 79.2266 38.3179 78.9012L65.7249 74.832L86.6525 71.7174L108.154 27.8118C109.123 25.8296 110.628 24.158 112.498 22.9863C114.368 21.8146 116.528 21.1894 118.734 21.1815C120.941 21.1736 123.106 21.7832 124.984 22.9414C126.862 24.0997 128.379 25.7603 129.362 27.7356L151.138 71.5033L199.548 78.3712C201.732 78.6818 203.786 79.5973 205.477 81.0142C207.168 82.4311 208.429 84.2929 209.118 86.389C209.806 88.4852 209.894 90.7322 209.372 92.8759C208.851 95.0195 207.739 96.9745 206.164 98.5196L171.268 132.758L178.19 172.275L179.702 180.903C180.083 183.079 179.846 185.318 179.02 187.367C178.194 189.416 176.81 191.193 175.026 192.496C173.243 193.799 171.13 194.577 168.927 194.741C166.724 194.906 164.519 194.45 162.561 193.426Z" fill="#FFDA22"/>
</mask>
<g mask="url(#mask0_25_144)">
<rect x="-189.818" y="155.55" width="624.658" height="39.8571" fill="#5CB2B2"/>
<rect x="-189.919" y="125.178" width="625" height="30.3976" fill="#B3C8BB"/>
<rect x="-189.919" y="100.407" width="625" height="25" fill="#FBC183"/>
<rect x="-189.919" y="50.4067" width="625" height="50" fill="#FB726D"/>
<rect x="-189.818" y="21.4067" width="624.658" height="42.2142" fill="#FF5455"/>
<path d="M102.333 60.478C102.333 54.2895 105.528 48.5182 107.764 42.8254C108.243 41.6062 110.737 33.4834 111.604 34.3502" stroke="white" stroke-width="10" stroke-linecap="round"/>
</g>
</svg>
